<?xml version="1.0" encoding="UTF-8"?>
<svg xmlns="http://www.w3.org/2000/svg" version="1.1" viewBox="0 0 24 24">
    <defs>
        <style>
            .cls-1 {
            fill: url(#linear-gradient-2);
            }

            .cls-1, .cls-2 {
            fill-rule: evenodd;
            }

            .cls-2 {
            fill: url(#linear-gradient);
            isolation: isolate;
            }
        </style>
        <linearGradient id="linear-gradient" x1="7.9" y1="991" x2="20.8" y2="975.5"
                        gradientTransform="translate(0 -974)" gradientUnits="userSpaceOnUse">
            <stop offset="0" stop-color="#5eead4"/>
            <stop offset="1" stop-color="#d688ff"/>
        </linearGradient>
        <linearGradient id="linear-gradient-2" x1="7.6" y1="986" x2="16.4" y2="986"
                        gradientTransform="translate(0 -974)" gradientUnits="userSpaceOnUse">
            <stop offset="0" stop-color="#2a4943"/>
            <stop offset="1" stop-color="#3f3f25"/>
        </linearGradient>
    </defs>
    <!-- Generator: Adobe Illustrator 28.7.3, SVG Export Plug-In . SVG Version: 1.2.0 Build 164)  -->
    <g>
        <g id="Layer_1">
            <g id="uuid-6ec82ffe-8b5e-44a0-a132-2ee34f4aa191">
                <path class="cls-2"
                      d="M11,2.5c.2-.3.5-.6,1-.6s.8.3,1,.6l1.1,2.3c.3.6,1.1,1,1.8.7l2.3-.9c.4-.2.8,0,1,.3.3.3.4.7.3,1.1l-.9,2.3c-.3.7,0,1.5.7,1.8l2.3,1.1c.4.2.6.5.6,1s-.3.8-.6,1l-2.3,1.1c-.6.3-1,1.1-.7,1.8l.9,2.3c.2.4,0,.8-.3,1-.3.3-.7.4-1,.3l-2.3-.9c-.7-.3-1.5,0-1.8.7l-1.1,2.3c-.2.4-.5.6-1,.6s-.8-.3-1-.6l-1.1-2.3c-.3-.6-1.1-1-1.8-.7l-2.3.9c-.3.2-.8,0-1.1-.3s-.3-.7-.3-1l.9-2.3c.3-.7,0-1.5-.7-1.8l-2.3-1.1c-.3-.2-.6-.5-.6-1s.3-.8.6-1l2.3-1.1c.6-.3,1-1.1.7-1.8l-.9-2.3c-.2-.4,0-.9.3-1.1.3-.3.7-.3,1.1-.3l2.3.9c.7.3,1.5,0,1.8-.7,0,0,1.1-2.3,1-2.3h.1Z"/>
                <path class="cls-1"
                      d="M16.4,12c0,2.5-1.9,4.4-4.4,4.4s-4.4-1.9-4.4-4.4,1.9-4.4,4.4-4.4,4.4,1.9,4.4,4.4"/>
            </g>
        </g>
    </g>
</svg>