<svg height="1174.498" viewBox="0 0 1114.703 1174.498" width="1114.703" xmlns="http://www.w3.org/2000/svg"><path d="m2 2h950.727v1170.485h-950.727z" fill="transparent"/><path d="m952.727 1174.485h-950.727c-1.104 0-2-.896-2-2v-1170.485c0-1.105.896-2 2-2h950.727c1.104 0 2 .896 2 2v1170.485c0 1.104-.896 2-2 2zm-948.727-4h946.727v-1166.485h-946.727z" fill="#0f766e"/><path d="m736.918 1089.775c-25.133-110.362-3.425-218.243-18.729-332.934-5.845-64.13-22.886-110.474-45.566-142.258-94.399-132.293-286.501-12.387-175.791 126.892 2.366 6.642 7.002 23.803 9.761 61.377 10.654 105.883-11.204 262.449 26.335 369.634h259.351c-1.579-34.601-18.439-64.157-55.362-82.71z" fill="#fff"/><path d="m792.28 1174.485h-259.351c-.85 0-1.607-.537-1.888-1.339-24.416-69.714-23.835-158.198-23.274-243.769.3-45.817.584-89.094-3.163-126.327-2.683-36.513-7.085-53.557-9.546-60.595-32.588-41.132-41.918-84.564-26.27-122.326 7.122-17.184 19.237-32.264 35.036-43.607 15.582-11.188 34.049-18.268 53.405-20.473 44.72-5.104 87.369 15.815 117.021 57.37 25.008 35.048 40.461 83.24 45.93 143.239 6.77 50.717 6.302 100.677 5.851 148.991-.585 62.58-1.139 121.702 12.629 182.767 34.695 17.74 53.918 46.758 55.617 83.978.025.545-.175 1.077-.552 1.473-.377.395-.9.618-1.446.618zm-257.929-4h255.816c-2.257-35.455-20.466-61.999-54.147-78.923-.534-.269-.919-.761-1.052-1.343-14.083-61.845-13.526-121.475-12.936-184.606.451-48.175.916-97.99-5.825-148.508-5.413-59.366-20.621-106.899-45.211-141.361-28.783-40.338-70.086-60.647-113.313-55.721-38.621 4.4-71.267 28.019-85.199 61.639-15.101 36.438-5.897 78.547 25.914 118.568.137.172.245.365.318.573 2.505 7.031 7.12 24.425 9.872 61.9 3.764 37.393 3.479 80.773 3.178 126.7-.555 84.678-1.128 172.225 22.584 241.081z" fill="#0f766e"/><path d="m687.337 1172.485h201.982c46.782-85.883 69.953-198.921 106.262-274.836 93.954-104.539-58.313-247.473-156.74-147.159-70.756 71.553-89.475 232.167-140.479 327.126" fill="#fff"/><path d="m889.319 1174.485h-201.982c-1.104 0-2-.896-2-2s.896-2 2-2h200.792c25.897-47.857 44.396-103.677 62.292-157.675 14.084-42.499 27.388-82.641 43.355-116.025.083-.172.189-.332.317-.474 47.506-52.858 30.143-113.56-6.094-147.59-36.25-34.044-97.944-47.573-147.731 3.169-42.255 42.731-66.078 118.347-89.117 191.472-15.754 50.003-30.635 97.233-51.028 135.2-.523.973-1.734 1.339-2.708.815-.973-.522-1.338-1.735-.815-2.708 20.214-37.635 35.04-84.691 50.736-134.51 23.182-73.579 47.153-149.663 90.083-193.076 23.233-23.679 51.147-35.656 80.729-34.619 26.265.916 52.044 12.047 72.59 31.341 20.541 19.29 33.262 44.312 35.822 70.456 2.875 29.357-7.257 57.883-29.298 82.508-15.803 33.105-29.037 73.035-43.043 115.299-18.081 54.557-36.778 110.972-63.143 159.374-.35.643-1.024 1.043-1.756 1.043z" fill="#0f766e"/><path d="m871.352 734.063c23.781-20.045 55.332-35.165 72.584-47.807 0 0 15.346-48.874 18.913-57.551 3.566-8.678 14.684-17.908 28.47-14.593 12.555 3.019 20.873 15.623 18.114 27.096s-14.699 45.764-20.211 64.493c-4.885 16.599-38.522 38.723-38.522 38.723" fill="#fff"/><path d="m950.701 746.424c-.65 0-1.289-.316-1.673-.901-.607-.922-.351-2.162.572-2.77.33-.217 33.081-21.912 37.703-37.616 2.419-8.22 6.086-19.471 9.632-30.351 4.638-14.229 9.019-27.669 10.553-34.047 1.188-4.941.082-10.46-3.035-15.142-3.159-4.744-8.117-8.222-13.603-9.541-12.958-3.116-23.093 5.966-26.151 13.408-3.494 8.5-18.701 56.902-18.854 57.391-.128.406-.382.762-.726 1.014-6.766 4.958-15.811 10.355-25.388 16.07-15.306 9.134-32.653 19.485-47.089 31.653-.846.711-2.107.604-2.818-.24-.712-.845-.604-2.106.24-2.818 14.685-12.378 32.181-22.818 47.618-32.029 9.243-5.516 17.987-10.733 24.545-15.478 1.883-5.989 15.393-48.859 18.773-57.083 4.202-10.226 16.415-19.233 30.787-15.776 6.55 1.574 12.231 5.557 15.997 11.213 3.732 5.605 5.042 12.273 3.594 18.294-1.57 6.531-5.975 20.044-10.638 34.351-3.538 10.854-7.196 22.076-9.599 30.24-5.034 17.105-37.943 38.909-39.341 39.829-.339.223-.72.329-1.097.329z" fill="#0f766e"/><path d="m981.189 784.793s41.496-33.901 48.651-45.593 26.369-55.508 30.585-64.948-2.861-22.822-15.487-28.882c-12.548-6.023-25.314-1.22-30.246 8.197-4.612 8.808-33.403 58.227-33.403 58.227l-44.186 33.795" fill="#fff"/><path d="m981.19 786.793c-.58 0-1.154-.251-1.55-.734-.699-.855-.572-2.115.284-2.814.412-.337 41.313-33.817 48.209-45.088 6.34-10.358 22.573-46.94 28.684-60.712.737-1.66 1.341-3.021 1.781-4.008 3.78-8.462-3.008-20.734-14.526-26.264-11.892-5.706-23.375-.758-27.608 7.322-4.581 8.747-32.27 56.286-33.446 58.306-.131.226-.306.423-.513.582l-44.186 33.795c-.876.672-2.132.504-2.803-.374-.671-.877-.504-2.133.374-2.804l43.871-33.555c2.563-4.402 28.822-49.521 33.16-57.806 5.113-9.764 18.811-15.828 32.883-9.072 13.623 6.538 21.155 20.964 16.448 31.5-.439.984-1.042 2.343-1.777 3.999-6.14 13.838-22.451 50.595-28.928 61.178-7.249 11.846-47.386 44.705-49.091 46.098-.371.304-.819.451-1.264.451z" fill="#0f766e"/><path d="m1000.595 831.121s60.999-45.2 66.711-57.671 24.35-67.943 27.642-77.744c3.292-9.8-5.034-22.443-18.183-27.266-13.067-4.793-25.315 1.211-29.321 11.057-3.747 9.209-27.463 64.481-27.463 64.481l-50.315 41.181" fill="#fff"/><path d="m1000.597 833.121c-.612 0-1.216-.279-1.608-.81-.658-.887-.471-2.14.416-2.797 16.852-12.487 61.574-47.052 66.084-56.897 3.603-7.866 13.65-36.131 27.564-77.547 2.951-8.786-4.981-20.353-16.976-24.751-12.386-4.544-23.342 1.482-26.78 9.933-3.712 9.121-27.24 63.962-27.478 64.516-.126.295-.323.555-.571.759l-50.315 41.182c-.855.697-2.115.574-2.814-.281-.699-.854-.574-2.114.281-2.814l49.937-40.872c2.271-5.295 23.736-55.349 27.255-63.996 4.155-10.21 17.21-17.556 31.863-12.181 14.185 5.202 23.065 18.84 19.39 29.78-8.203 24.414-22.71 67.003-27.72 77.939-5.859 12.791-64.832 56.587-67.339 58.444-.358.266-.775.394-1.189.394z" fill="#0f766e"/><path d="m995.581 897.649s75.949-58.087 87.648-68.154c9.994-8.6 27.237-75.089 28.336-79.698 2.678-11.238 2.058-29.157-17.993-35.864-18.861-6.309-30.354 7.49-33.361 15.687-1.377 3.755-14.187 57.317-14.187 57.317l-49.502 31.209" fill="#fff"/><path d="m995.583 899.648c-.602 0-1.196-.271-1.59-.785-.671-.877-.503-2.133.374-2.804.759-.58 76.037-58.166 87.558-68.08 9.027-7.768 25.647-70.052 27.695-78.646 1.853-7.775 3.938-26.606-16.682-33.504-18.662-6.244-28.596 8.335-30.849 14.479-1.097 2.99-10.564 42.228-14.12 57.094-.122.508-.437.948-.879 1.227l-49.501 31.209c-.934.59-2.168.311-2.758-.625-.589-.935-.309-2.169.625-2.758l48.813-30.775c1.656-6.917 12.741-53.138 14.065-56.748 3.649-9.951 16.617-23.337 35.873-16.896 24.419 8.168 20.949 31.322 19.304 38.225-.167.702-18.03 71.33-28.976 80.749-11.609 9.989-84.635 65.854-87.738 68.227-.362.277-.79.411-1.213.411z" fill="#0f766e"/><path d="m894.946 832.513c25.731-30.31-2.023-72.278-2.023-72.278s24.996-48.036 33.635-58.864c27.007-33.851-9.96-66.395-37.679-39.477-6.997 6.795-60.238 58.206-81.271 81.743-16.745 18.739-18.99 87.204-18.99 87.204" fill="#fff"/><path d="m894.945 834.513c-.458 0-.917-.156-1.293-.476-.842-.715-.945-1.977-.23-2.818 24.477-28.832-1.897-69.473-2.167-69.88-.401-.606-.441-1.382-.106-2.026 1.024-1.969 25.186-48.334 33.846-59.188 13.282-16.648 10.247-32.245 1.348-40.317-8.08-7.329-22.813-9.351-36.069 3.521l-1.729 1.678c-49.353 47.841-70.442 69.891-79.443 79.964-16.07 17.983-18.459 85.259-18.481 85.937-.037 1.104-.98 1.961-2.064 1.934-1.104-.036-1.97-.961-1.934-2.064.093-2.825 2.464-69.411 19.497-88.472 9.044-10.121 30.204-32.246 79.642-80.17l1.727-1.675c15.108-14.672 32.125-12.158 41.544-3.615 9.95 9.025 13.911 27.2-.908 45.774-7.733 9.692-29.25 50.564-32.897 57.531 4.054 6.725 25.382 45.229 1.247 73.656-.396.467-.958.706-1.525.706z" fill="#0f766e"/><path d="m769.646 880.131c24.624 54.279 157.821 87.065 209.411 56.426-4.831 14.803-11.499 34.16-17.698 49.759-51.591 30.639-181.557-8.053-206.181-62.332z" fill="#fff"/><path d="m911.984 999.197c-20.421 0-43.671-3.75-67.536-11.25-44.925-14.119-79.83-38.312-91.092-63.137-.208-.457-.235-.976-.078-1.453l14.468-43.853c.258-.782.97-1.326 1.792-1.37.812-.06 1.588.42 1.928 1.171 9.93 21.888 40.177 42.598 80.912 55.399 49.237 15.473 99.735 15.527 125.657.133.716-.424 1.621-.361 2.271.158.65.521.91 1.391.651 2.182-2.874 8.807-10.356 31.297-17.741 49.877-.163.411-.458.756-.837.981-12.531 7.441-30.061 11.161-50.396 11.161zm-154.659-75.337c11.15 23.578 44.88 46.618 88.323 60.271 45.5 14.301 90.162 14.597 114.106.808 6.17-15.596 12.378-33.815 15.84-44.255-27.855 13.499-76.826 12.794-124.415-2.163-39.762-12.495-68.945-31.71-81.136-53.212l-12.719 38.552z" fill="#0f766e"/><path d="m672.623 614.582c-44.417-61.607-103.255-76.663-156.246-87.197l-201.266-28.593c-88.507-11.223-185.036.88-237.86 41.754-82.26 63.652-1.581 165.006 42.846 198.955-32.707 147.958-85.542 432.983-85.542 432.983l540.205.013c8.594-99.618 24.674-285.412 31.956-365.489" fill="#fff"/><path d="m574.76 1174.498-540.205-.013c-.594 0-1.158-.265-1.538-.721-.38-.457-.537-1.06-.429-1.644.527-2.843 52.918-285.155 85.281-431.811-31.687-24.621-77.921-79.399-78.081-132.122-.083-27.264 12.109-50.555 36.237-69.225 25.263-19.547 62.074-33.658 106.455-40.806 41.361-6.662 87.311-7.128 132.88-1.351l201.296 28.598c.037.006.073.012.109.019 55.543 11.041 113.455 26.929 157.478 87.988.646.896.443 2.146-.453 2.792-.894.646-2.145.444-2.792-.452-43.16-59.863-100.213-75.509-154.96-86.394l-201.211-28.586c-95.458-12.104-188.243 4.127-236.354 41.355-23.094 17.87-34.764 40.092-34.686 66.049.157 51.843 46.446 105.989 77.522 129.736.619.473.907 1.261.738 2.021-30.752 139.118-79.922 402.775-85.088 430.552l535.964.013c8.852-102.606 24.588-284.373 31.799-363.669.1-1.102 1.081-1.902 2.173-1.812 1.1.101 1.911 1.073 1.811 2.173-7.253 79.761-23.134 263.221-31.955 365.479-.089 1.034-.955 1.828-1.993 1.828z" fill="#0f766e"/><path d="m162.566 786.242c-44.272 78.462-65.658 170.988-84.66 280.994-5.573 32.262-14.593 77.218-20.156 105.249h-55.75v-543.93c21.879-32.126 46.307-61.401 75.251-88.009" fill="#fff"/><g fill="#0f766e"><path d="m57.75 1174.485h-55.75c-1.104 0-2-.896-2-2v-543.931c0-.401.121-.794.347-1.126 23.165-34.014 47.877-62.915 75.55-88.355.813-.745 2.079-.692 2.826.119.748.813.694 2.078-.119 2.826-27.307 25.104-51.714 53.615-74.604 87.153v541.313h52.108l1.294-6.514c5.687-28.613 13.476-67.8 18.533-97.076 19.603-113.485 41.54-204.81 84.889-281.636.542-.962 1.764-1.3 2.725-.76.962.543 1.302 1.763.759 2.725-43.066 76.326-64.899 167.275-84.431 280.353-5.065 29.325-12.859 68.54-18.551 97.174l-1.614 8.124c-.186.936-1.007 1.61-1.962 1.61z"/><path d="m370.147 339.798 172.073-75.745c19.492-8.54 35.943-20.777 55.103-44.412 35.023-43.202 37.162-91.411 12.214-110.206-23.889-17.997-66.994-1.446-98.438 36.924-23.155-18.223-54.007-27.647-85.665-24.739-65.643 6.03-113.97 64.132-107.94 129.776.509 5.547 1.399 10.966 2.625 16.243-5.417-2.566-11.673-4.346-18.432-5.03-22.625-2.291-42.246 8.488-43.824 24.075-1.171 11.561 7.919 22.515 21.921 28.34-24.922 17.677-38.735 41.56-32.915 77.511 7.129 44.04 46.518 62.877 83.27 59.501 36.753-3.376 63.81-35.907 60.434-72.659-2.493-27.138-6.491-37.669-6.491-37.669"/><path d="m321.935 454.409c-33.735.003-70.06-18.431-77.041-61.556-5.244-32.391 4.884-57.754 30.949-77.426-13.354-6.617-21.109-17.707-19.971-28.945 1.688-16.659 22.324-28.261 46.016-25.864 5.436.551 10.619 1.777 15.458 3.653-.837-4.206-1.456-8.46-1.845-12.692-6.121-66.636 43.112-125.829 109.749-131.95 30.695-2.823 61.755 5.903 85.542 23.967 15.234-18.145 33.516-31.856 51.651-38.708 19.062-7.201 36.213-6.153 48.296 2.949 9.419 7.097 15.297 18.185 16.999 32.067 3.026 24.691-7.764 54.97-28.862 80.996-18.077 22.298-34.781 35.751-55.854 44.984l-172.07 75.743c-1.012.447-2.191-.013-2.636-1.024s.014-2.191 1.025-2.636l172.073-75.745c20.726-9.081 36.472-21.782 54.355-43.842 20.429-25.199 30.896-54.354 27.999-77.99-1.566-12.779-6.903-22.932-15.435-29.358-22.777-17.16-64.809-1.086-95.688 36.595-.691.844-1.928.979-2.784.304-23.182-18.244-53.892-27.102-84.245-24.319-64.44 5.92-112.051 63.162-106.132 127.603.49 5.336 1.359 10.71 2.582 15.972.173.748-.096 1.528-.693 2.011-.597.482-1.416.578-2.111.25-5.432-2.572-11.414-4.203-17.778-4.848-21.484-2.188-40.168 7.821-41.633 22.286-1.043 10.307 7.082 20.627 20.7 26.292.672.279 1.139.901 1.22 1.624.081.724-.237 1.434-.831 1.854-27.129 19.243-37.328 43.252-32.098 75.561 7.154 44.193 47.068 60.955 81.113 57.829 17.244-1.584 32.838-9.788 43.911-23.101s16.299-30.141 14.715-47.385c-2.428-26.433-6.331-37.04-6.37-37.145-.389-1.032.132-2.187 1.164-2.576 1.033-.39 2.185.128 2.576 1.159.167.44 4.124 11.097 6.613 38.196 1.682 18.307-3.867 36.174-15.623 50.308s-28.313 22.844-46.62 24.525c-2.763.254-5.569.383-8.387.383z"/></g><path d="m369.589 349.959-23.169 154.934s37.348 56.816 100.949 64.237c43.662 5.095 44.294-46.877 44.294-46.877l7.963-46.354" fill="#fff"/><path d="m453.213 571.482c-1.964 0-3.99-.122-6.076-.365-33.364-3.893-59.424-21.39-75.41-35.383-17.293-15.137-26.591-29.153-26.979-29.742-.27-.411-.379-.907-.307-1.395l23.169-154.935c.164-1.093 1.176-1.851 2.274-1.682 1.092.163 1.846 1.181 1.682 2.273l-23.053 154.157c4.29 6.146 40.729 55.923 99.087 62.732 11.041 1.285 20.151-1.143 27.074-7.221 14.49-12.727 14.984-37.447 14.987-37.695.001-.104.011-.21.029-.313l7.963-46.354c.188-1.088 1.229-1.826 2.31-1.632 1.089.187 1.82 1.221 1.633 2.31l-7.937 46.204c-.054 2.455-.979 26.976-16.33 40.474-6.478 5.696-14.571 8.566-24.117 8.566z" fill="#0f766e"/><path d="m447.369 569.13c29.446-19.831 43.193-36.317 47.18-63.001l21.829 21.256c11.742 27.394 1.236 83.03-18.937 99.819z" fill="#fff"/><path d="m497.442 629.205c-.562 0-1.121-.235-1.516-.694l-50.072-58.074c-.374-.433-.543-1.005-.468-1.571.076-.566.391-1.074.865-1.394 30.465-20.517 42.585-36.646 46.319-61.639.111-.742.628-1.359 1.339-1.6.711-.239 1.497-.062 2.035.463l21.829 21.257c.188.184.339.402.443.645 12.177 28.408 1.427 84.73-19.496 102.145-.374.311-.827.463-1.278.463zm-47.092-59.681 47.278 54.835c18.438-17.581 27.941-69.762 17.065-95.822l-18.807-18.314c-4.467 23.638-16.866 39.68-45.537 59.302z" fill="#0f766e"/><path d="m447.369 569.13c-47.466-22.384-77.856-54.865-96.41-94.59l-35.847 24.251c.56 53.378 28.609 88.136 63.573 121.69l68.685-51.352z" fill="#fff"/><path d="m378.685 622.482c-.501 0-1.001-.188-1.385-.557-38.137-36.599-63.647-71.54-64.188-123.112-.007-.672.323-1.302.879-1.678l35.848-24.251c.485-.328 1.089-.428 1.653-.271.564.156 1.032.551 1.279 1.081 19.596 41.954 50.818 72.58 95.451 93.628.635.299 1.066.909 1.137 1.607s-.23 1.383-.792 1.803l-68.685 51.352c-.357.267-.778.398-1.197.398zm-61.559-122.639c.86 49.048 25.255 82.803 61.721 118.02l64.679-48.356c-43.179-21.051-73.765-51.188-93.377-92.004l-33.023 22.341z" fill="#0f766e"/><path d="m403.047 462.653c30.027 20.724 68.845 23.97 89.838 24.763 63.201 3.065 113.374-40.576 104.365-82.361-7.849-36.402-47.66-105.856-63.843-141.006-17.479-37.966-55.336-65.452-99.549-64.042-53.928 1.721-96.052 51.063-98.164 104.065-1.532 38.457 16.878 69.134 16.878 69.134" fill="#fff"/><path d="m499.058 489.566c-2.086 0-4.174-.05-6.27-.151-38.78-1.465-68.514-9.681-90.878-25.115-.909-.628-1.137-1.873-.51-2.782.627-.91 1.871-1.139 2.782-.511 21.719 14.99 50.759 22.976 88.778 24.411 35.265 1.722 69.295-11.524 88.817-34.539 11.983-14.129 16.784-30.252 13.517-45.401-5.531-25.65-27.476-68.633-45.109-103.17-7.154-14.013-13.912-27.249-18.596-37.422-18.189-39.51-56.516-64.181-97.668-62.879-50.881 1.623-94.049 47.446-96.229 102.146-1.489 37.374 16.414 67.723 16.595 68.025.567.947.26 2.176-.687 2.743-.948.567-2.174.262-2.743-.686-.764-1.273-18.7-31.634-17.162-70.243 1.047-26.271 12.045-52.709 30.174-72.533 18.964-20.737 43.797-32.617 69.924-33.451 42.752-1.372 82.565 24.229 101.43 65.205 4.649 10.098 11.389 23.299 18.524 37.274 17.739 34.744 39.816 77.985 45.457 104.146 3.535 16.393-1.571 33.734-14.377 48.832-19.14 22.565-51.574 36.101-85.77 36.101z" fill="#0f766e"/><path d="m542.221 264.052c-19.507 7.591-35.659 5.488-53.563.368-14.32-4.095-24.04-11.022-37.348-24.253 0 0-4.93 49.971-43.17 65.607 0 0 9.943 55.979 2.53 60.395-7.414 4.416-10.185-14.042-16.531-20.133-5.6-5.375-43.512-9.637-55.073-6.47 0 0-32.593-103.923 63.407-137.948 107.403-38.067 139.749 62.434 139.749 62.434z" fill="#0f766e"/><path d="m408.484 368.847c-.534 0-1.064-.081-1.59-.244-3.706-1.146-6.009-6.121-8.448-11.388-1.75-3.78-3.56-7.688-5.693-9.737-4.522-4.34-41.281-9.235-53.159-5.983-1.04.288-2.115-.304-2.437-1.33-.338-1.078-8.235-26.747-4.373-57.066 3.585-28.142 18.47-65.449 69.02-83.365 33.619-11.915 63.451-11.632 88.666.84 39.299 19.441 53.088 61.103 53.656 62.867.324 1.007-.192 2.093-1.179 2.477-19.805 7.706-36.246 5.743-54.838.427-14.411-4.121-24.222-11.243-35.366-21.975-2.033 12.234-10.641 48.662-42.363 62.627.69 4.076 2.547 15.475 3.794 27.106 2.885 26.917.189 32.194-2.481 33.785-1.073.639-2.147.96-3.208.96zm-57.462-32.335c16.15 0 39.602 3.378 44.501 8.08 2.677 2.57 4.648 6.826 6.553 10.942 1.873 4.044 3.995 8.627 6 9.247.286.089.761.151 1.57-.331.361-.216 3.447-2.884.552-29.904-1.533-14.313-4.002-28.283-4.027-28.423-.165-.928.34-1.845 1.212-2.201 36.656-14.988 41.888-63.465 41.937-63.953.077-.768.588-1.424 1.314-1.685s1.539-.08 2.086.464c14.055 13.974 23.263 19.967 36.488 23.749 17.236 4.929 32.5 6.865 50.463.376-3.11-8.189-17.743-42.295-51.011-58.732-24.2-11.96-52.974-12.173-85.52-.639-38.998 13.822-61.329 40.729-66.371 79.974-3.22 25.062 2.02 47.443 3.708 53.736 2.744-.479 6.406-.7 10.545-.7z" fill="#0f766e"/><path d="m493.535 218.428c-.019 0-.037 0-.056 0-1.104-.03-1.975-.95-1.944-2.054.68-24.753 5.83-58.3 18.105-71.382.755-.807 2.021-.847 2.827-.09.805.755.846 2.021.09 2.826-11.508 12.265-16.363 44.703-17.024 68.755-.03 1.086-.919 1.945-1.998 1.945z" fill="#fff"/><path d="m506.718 304.019 6.007 25.477" fill="#fff"/><path d="m512.724 331.496c-.907 0-1.728-.62-1.945-1.541l-6.007-25.478c-.253-1.075.413-2.152 1.488-2.405 1.077-.261 2.152.412 2.406 1.487l6.007 25.478c.253 1.075-.413 2.152-1.488 2.405-.154.037-.309.054-.46.054z" fill="#0f766e"/><path d="m549.314 407.076c9.487-1.897 19.525 7.505 7.312 24.541-8.926 12.451-33.817 15.177-46.105 10.771-11.273-4.042-28.132-12.813-32.205-31.322-4.623-21.009 9.539-25.913 22.161-15.756 14.141 11.379 35.364 14.459 48.837 11.766z" fill="#fff"/><path d="m523.817 446.341c-5.29 0-10.195-.717-13.972-2.07-13.012-4.667-29.383-14.141-33.483-32.774-2.25-10.227-.349-18.069 5.216-21.519 5.388-3.341 13.11-1.894 20.153 3.773 13.589 10.937 34.025 13.995 47.19 11.364 5.394-1.079 10.646.966 13.383 5.208 3.627 5.621 2.15 13.807-4.053 22.459-6.742 9.405-21.699 13.559-34.435 13.559zm-35.746-54.119c-1.638 0-3.131.378-4.385 1.155-4.035 2.501-5.28 8.792-3.417 17.26 3.708 16.849 18.865 25.543 30.927 29.868 11.451 4.107 35.421 1.64 43.805-10.053 5.195-7.247 6.632-13.793 3.943-17.96-1.841-2.853-5.468-4.203-9.238-3.455-14.077 2.813-35.937-.464-50.482-12.169-3.77-3.034-7.769-4.646-11.152-4.646zm61.243 14.854h.01z" fill="#0f766e"/><path d="m555.402 334.069c5.648-5.457 26.146-22.544 35.968-11.283 9.822 11.26-12.674 28.759-19.359 33.143" fill="#fff"/><path d="m572.012 357.928c-.652 0-1.291-.317-1.674-.903-.606-.924-.348-2.163.576-2.77 5.36-3.515 19.549-14.652 20.814-23.857.332-2.418-.278-4.478-1.865-6.298-1.7-1.948-3.825-2.951-6.496-3.065-8.789-.34-20.83 8.922-26.575 14.473-.795.767-2.061.745-2.828-.049s-.746-2.061.049-2.828c1.71-1.652 17.056-16.114 29.525-15.592 3.773.161 6.915 1.652 9.34 4.433 2.359 2.704 3.305 5.891 2.813 9.472-1.77 12.875-21.734 26.102-22.583 26.658-.338.222-.719.327-1.095.327z" fill="#0f766e"/><path d="m392.882 352.243c-5.743-13.963-20.353-22.865-36.015-20.75-18.621 2.514-31.678 19.647-29.164 38.268s19.647 31.678 38.268 29.164c8.147-1.1 15.228-4.998 20.407-10.595" fill="#fff"/><path d="m361.394 401.233c-17.741 0-33.235-13.148-35.673-31.205-2.658-19.683 11.194-37.859 30.878-40.518 16.231-2.19 31.911 6.845 38.132 21.972.42 1.021-.067 2.19-1.089 2.61-1.023.421-2.19-.067-2.61-1.089-5.531-13.447-19.475-21.483-33.898-19.528-17.498 2.362-29.812 18.521-27.449 36.018 2.362 17.498 18.517 29.811 36.018 27.449 7.355-.993 14.176-4.534 19.207-9.971.75-.811 2.016-.861 2.826-.109.811.75.86 2.016.109 2.826-5.66 6.116-13.333 10.101-21.607 11.219-1.626.219-3.246.326-4.844.326z" fill="#0f766e"/><path d="m342.478 368.287c-8.206-18.792 16.811-31.421 26.61-18.822 9.445 12.144-2.597 17.638-6.837 22.833-5.385 6.598 5.505 18.286 13.637 5.042" fill="#fff"/><path d="m367.554 385.385c-.2 0-.388-.008-.564-.021-3.171-.228-6.086-2.384-7.427-5.492-1.315-3.049-.89-6.354 1.139-8.839.968-1.187 2.227-2.318 3.56-3.518 4.941-4.445 9.609-8.644 3.248-16.823-4.276-5.499-11.93-5.156-17.28-1.975-5.169 3.073-9.82 9.832-5.918 18.769.442 1.013-.021 2.191-1.033 2.634-1.013.438-2.191-.021-2.633-1.032-4.628-10.599.452-19.595 7.54-23.809 6.857-4.076 16.782-4.372 22.481 2.958 8.647 11.118 1.199 17.818-3.73 22.253-1.214 1.092-2.362 2.124-3.136 3.072-1.537 1.884-.907 3.932-.565 4.726.756 1.753 2.342 2.965 4.041 3.086 2.345.195 4.792-1.636 6.907-5.081.578-.941 1.81-1.238 2.751-.657.941.577 1.236 1.81.658 2.751-3.652 5.947-7.664 6.997-10.039 6.998z" fill="#0f766e"/></svg>