<svg xmlns="http://www.w3.org/2000/svg" viewBox="0 0 3000 3000" width="3000" height="3000">
    <g transform="translate(2197.5 628.125) rotate(-76.27862223302853 292.5 239.0625) scale(2.6840525982546777 2.694542442037398)">
        <svg width="217.954" height="177.442" viewBox="0 0 217.954 177.442">
            <path d="M3.598 35.429a19.266 19.266 0 0 1-.234-.576C-.638 24.557 4.465 12.967 14.761 8.966 35.615.861 57.848-.193 79.053 5.919c18.952 5.463 36.3 16.314 50.167 31.381 27.464 29.84 35.269 69.517 19.883 101.083-4.84 9.929-16.813 14.054-26.741 9.214-9.93-4.842-14.054-16.815-9.215-26.742 8.122-16.661 2.876-38.829-13.358-56.467C84.86 48.167 58.491 34.885 29.251 46.249c-10.101 3.926-21.449-.912-25.652-10.82z"
                  fill="#BEDAFA"/>
            <path d="M131.089 151.616a21.87 21.87 0 0 1-9.604-2.222c-10.904-5.317-15.451-18.513-10.136-29.416 7.759-15.917 2.644-37.205-13.032-54.236-14.482-15.735-40.041-28.629-68.342-17.629C18.823 52.448 6.428 47.22 1.757 36.21a21.854 21.854 0 0 1 .114-17.466A21.856 21.856 0 0 1 14.037 7.103c21.266-8.267 43.94-9.34 65.57-3.106 19.305 5.564 36.969 16.612 51.085 31.948 28.025 30.451 35.958 71.004 20.209 103.313-3.807 7.81-11.657 12.358-19.811 12.358zM51.371 39.995c20.709 0 38.523 10.69 49.889 23.039 16.798 18.25 22.17 41.291 13.684 58.698-4.348 8.92-.628 19.717 8.294 24.068 8.921 4.349 19.718.628 24.067-8.293 15.023-30.819 7.346-69.621-19.557-98.852-13.619-14.797-30.649-25.452-49.249-30.813-20.78-5.991-42.57-4.957-63.014 2.989a17.878 17.878 0 0 0-9.954 9.524 17.881 17.881 0 0 0-.092 14.293C9.26 43.655 19.4 47.931 28.525 44.385c7.87-3.059 15.539-4.39 22.845-4.39z"
                  fill="#0b122d"/>
            <path d="M149.103 138.382c-13.188 27.055-35.744 40.61-60.336 36.259-20.873-3.692-39.629-20.216-48.337-40.738-2.498-5.887-4.167-12.098-4.824-18.434C32.845 88.858 47.908 66.261 75.9 55.02c27.514-11.048 57.622-7.228 84.778 10.759 22.45 14.869 41.999 39.139 53.647 66.594l.042.099c4.307 10.172-.448 21.909-10.619 26.215-10.167 4.305-21.899-.444-26.21-10.606-.013-.033-.025-.059-.038-.089-8.66-20.413-22.838-38.22-38.91-48.865-16.327-10.814-32.421-13.208-47.784-6.989-12.666 5.127-15.557 11.824-15.413 19.201.231 11.863 9.316 23.52 20.343 23.912 6.444.229 12.207-3.721 17.412-14.398"
                  fill="#BEDAFA"/>
            <path d="M97.803 177.446c-3.086 0-6.218-.276-9.385-.836-21.043-3.722-40.602-20.179-49.83-41.926-2.635-6.211-4.308-12.606-4.972-19.009-2.859-27.55 12.669-50.918 41.538-62.511 28.143-11.301 58.908-7.413 86.627 10.948 22.765 15.079 42.587 39.674 54.383 67.481l.043.1c2.291 5.411 2.338 11.391.132 16.838s-6.401 9.708-11.813 11.999c-11.163 4.726-24.097-.507-28.831-11.667-8.548-20.148-22.461-37.636-38.211-48.067-15.791-10.459-31.244-12.748-45.929-6.803-12.678 5.132-14.274 11.629-14.164 17.309.221 11.353 8.826 21.612 18.414 21.952 3.828.136 9.604-1.092 15.543-13.276a2.001 2.001 0 0 1 3.596 1.752c-5.225 10.719-11.537 15.795-19.281 15.521-11.604-.413-22.011-12.502-22.271-25.872-.191-9.847 4.948-16.353 16.663-21.094 15.982-6.469 32.683-4.055 49.639 7.176 16.387 10.854 30.838 28.988 39.646 49.751l.052.123c3.859 9.097 14.441 13.379 23.575 9.512 4.427-1.875 7.86-5.361 9.665-9.817s1.767-9.349-.108-13.776l1.8-.879-1.841.781c-11.498-27.102-30.782-51.052-52.91-65.708-26.591-17.613-56.042-21.367-82.928-10.571-27.115 10.888-41.713 32.715-39.05 58.386.623 6.007 2.196 12.016 4.676 17.86 8.713 20.533 27.1 36.057 46.844 39.55 23.66 4.187 45.415-8.96 58.189-35.166a2 2 0 1 1 3.595 1.753c-11.915 24.441-31.315 38.188-53.097 38.188z"
                  fill="#0b122d"/>
        </svg>
    </g>
    <g transform="translate(215.625 511.875) rotate(0.0 1245.9375 1070.625) scale(1.876057311456946 1.872402901754484)">
        <svg width="1328.251" height="1143.584" viewBox="0 0 1328.251 1143.584">
            <circle cx="691.598" cy="601.202" fill="#fcf051" r="539.381"/>
            <path d="M691.598 1143.584c-73.22 0-144.251-14.341-211.12-42.624-64.587-27.318-122.591-66.426-172.401-116.235-49.811-49.811-88.918-107.815-116.236-172.402-28.283-66.869-42.624-137.9-42.624-211.12s14.341-144.251 42.624-211.12c27.318-64.587 66.425-122.591 116.236-172.401s107.814-88.917 172.401-116.235c66.869-28.283 137.9-42.624 211.12-42.624s144.251 14.341 211.12 42.624c64.587 27.318 122.591 66.426 172.401 116.235 49.811 49.811 88.917 107.814 116.236 172.401 28.283 66.869 42.624 137.9 42.624 211.12s-14.341 144.251-42.624 211.12c-27.318 64.587-66.425 122.592-116.236 172.402s-107.814 88.917-172.401 116.235c-66.869 28.283-137.9 42.624-211.12 42.624zm0-1078.763c-295.762 0-536.381 240.619-536.381 536.381s240.62 536.382 536.381 536.382 536.381-240.62 536.381-536.382S987.36 64.821 691.598 64.821z"
                  fill="#0b122d"/>
            <path d="M414.394 948.207c-8.126 10.449-22.036 49.799-34.396 93.314 88.001 62.389 195.517 99.063 311.6 99.063 69.084 0 135.131-12.996 195.84-36.663.219-37.834-2.247-86.448-14.824-109.051-22.166-39.834-436.978-73.977-458.22-46.663z"
                  fill="#bedafa"/>
            <path d="M691.598 1143.584c-113.062 0-221.412-34.446-313.335-99.615a2.999 2.999 0 0 1-1.151-3.267c10.694-37.652 25.483-82.208 34.914-94.337 1.91-2.456 7.722-9.93 67.097-10.891 34.575-.562 80.956 1.231 130.592 5.04 91.599 7.031 250.602 26.083 265.521 52.896 12.958 23.289 15.42 72.96 15.203 110.528a2.999 2.999 0 0 1-1.91 2.777c-62.753 24.464-129.01 36.868-196.93 36.868zm-308.132-103.286c90.53 63.653 197.029 97.286 308.132 97.286 66.487 0 131.357-12.017 192.85-35.721.115-36.583-2.356-83.791-14.455-105.535-9.881-17.758-121.974-39.18-260.737-49.831-117.544-9.021-185.81-5.042-192.493 3.552-7.227 9.293-20.244 44.602-33.296 90.249zm30.928-92.091h.01z"
                  fill="#0b122d"/>
            <path d="M615.689 1138.281c-.047 0-.095 0-.143-.003a3 3 0 0 1-2.856-3.138c.743-15.855 1.517-35.67 1.524-35.868.064-1.654 1.467-2.933 3.114-2.881a3 3 0 0 1 2.881 3.115c-.008.198-.782 20.035-1.526 35.915a3 3 0 0 1-2.994 2.859z"
                  fill="#0b122d"/>
            <path d="M691.598 1143.584c-73.22 0-144.251-14.341-211.12-42.624-64.587-27.318-122.591-66.426-172.401-116.235-49.811-49.811-88.918-107.815-116.236-172.402-28.283-66.869-42.624-137.9-42.624-211.12s14.341-144.251 42.624-211.12c27.318-64.587 66.425-122.591 116.236-172.401s107.814-88.917 172.401-116.235c66.869-28.283 137.9-42.624 211.12-42.624s144.251 14.341 211.12 42.624c64.587 27.318 122.591 66.426 172.401 116.235 49.811 49.811 88.917 107.814 116.236 172.401 28.283 66.869 42.624 137.9 42.624 211.12s-14.341 144.251-42.624 211.12c-27.318 64.587-66.425 122.592-116.236 172.402s-107.814 88.917-172.401 116.235c-66.869 28.283-137.9 42.624-211.12 42.624zm0-1078.763c-295.762 0-536.381 240.619-536.381 536.381s240.62 536.382 536.381 536.382 536.381-240.62 536.381-536.382S987.36 64.821 691.598 64.821z"
                  fill="#0b122d"/>
            <path d="M1120.549 619.627c-13.504-36.25 173.186-124.959 191.873-59.453s-168.831 121.31-191.873 59.453z"
                  fill="#0b122d"/>
            <path d="M1177.403 649.411c-28.503 0-52.12-8.481-59.666-28.737-2.51-6.739.24-14.772 8.174-23.876 13.685-15.703 42.022-33.51 73.954-46.472 34.88-14.159 66.847-19.615 87.7-14.96 14.811 3.304 24.144 11.373 27.742 23.984 9.77 34.245-31.919 64.697-77.568 79.686-20.068 6.589-41.292 10.375-60.335 10.375zm-54.043-30.831c6.439 17.284 26.317 22.756 41.858 24.303 20.274 2.02 46.024-1.463 70.649-9.548 23.394-7.681 43.694-18.722 57.16-31.087 10.222-9.388 21.385-24.165 16.51-41.251-2.948-10.334-10.78-16.987-23.278-19.775-19.693-4.392-50.359.952-84.137 14.663-30.642 12.439-58.781 30.046-71.687 44.854-4.385 5.031-9.17 12.211-7.075 17.841z"
                  fill="#0b122d"/>
            <path d="M1116.779 955.006c-148.545-3.027-175.106-190.922-236.562-292.396-146.953-81.176 72.365-313.503 188.817 24.935 14.972 35.568 30.996 77.928 51.698 104.155 36.996-37.303 39.87-102.736 37.6-167.992-3.594-55.346-16.93-109.435-36.59-148.397-45.156-95.252 92.896-165.152 142.845-72.078 88.83 163.743 86.849 541.064-147.809 551.773z"
                  fill="#ef9b99"/>
            <path d="M1116.78 958.007h-.062c-49.908-1.018-90.693-22.687-124.686-66.248-29.707-38.067-50.439-87.32-70.49-134.951-14.198-33.728-27.615-65.602-43.48-91.963-38.448-21.538-56.321-56.355-47.832-93.279 8.389-36.486 40.071-63.332 77.046-65.283 19.847-1.033 50.529 4.587 83.982 37.374 31.46 30.834 58.571 78.883 80.58 142.818 1.999 4.749 4.017 9.62 6.062 14.557 12.384 29.894 26.354 63.614 43.082 86.065 33.831-36.802 36.549-100.137 34.352-163.283-3.564-54.869-16.786-108.536-36.27-147.149-24.18-51.002 2.296-93.124 37.114-110.706 34.791-17.568 84.381-13.839 111.052 35.857 61.459 113.291 79.917 328.13 8.126 455.26-17.041 30.178-38.427 54.021-63.563 70.867-27.338 18.322-59.26 28.437-94.878 30.062a3.085 3.085 0 0 1-.136.003zM911.412 512.174c-1.347 0-2.621.036-3.82.1-34.315 1.811-63.723 26.744-71.515 60.636-7.906 34.387 9.138 66.938 45.591 87.075.459.254.844.623 1.115 1.072 16.272 26.867 29.881 59.196 44.289 93.422 19.898 47.27 40.474 96.149 69.69 133.589 32.79 42.019 72.034 62.934 119.979 63.938 66.847-3.081 118.455-36.013 153.392-97.882 70.828-125.425 52.535-337.538-8.183-449.46-24.775-46.166-70.792-49.647-103.067-33.352-32.302 16.312-56.854 55.412-34.43 102.714 19.802 39.241 33.253 93.752 36.873 149.487 2.299 66.034-.773 132.295-38.463 170.299a2.989 2.989 0 0 1-2.299.883 3.003 3.003 0 0 1-2.186-1.137c-18.181-23.032-32.971-58.733-46.021-90.231a2817.78 2817.78 0 0 0-6.088-14.618 3.301 3.301 0 0 1-.072-.188c-53.978-156.873-123.626-176.348-154.786-176.348z"
                  fill="#0b122d"/>
            <path d="M1116.714 975.028C960.419 972.583 926.27 789.446 866.85 678.454c-141.709-89.85 14.956-275.59 140.676-143.49 36.869 38.202 58.974 94.144 80.012 144.978 13.499 32.303 26.725 66.556 43.792 92.506 146.637 5.718 133.276 208.014-14.615 202.58z"
                  fill="#fff"/>
            <path d="M1122.471 978.135c-1.927 0-3.86-.035-5.833-.107-55.456-.876-100.667-24.274-138.216-71.533-32.805-41.288-55.429-94.544-77.307-146.047-12.191-28.697-23.713-55.82-36.54-79.886-21.289-13.631-36.904-30.009-46.422-48.69-8.627-16.934-11.974-35.693-9.676-54.249 4.825-38.973 33.902-73.684 72.356-86.373 19.999-6.601 41.609-6.936 62.492-.973 23.522 6.718 45.854 21.057 66.375 42.619 35.588 36.875 57.025 88.789 77.757 138.993l2.854 6.905c1.741 4.167 3.482 8.377 5.227 12.597 11.379 27.515 23.138 55.948 37.464 78.128 33.401 1.629 60.979 13.538 79.826 34.496 17.014 18.92 25.827 44.051 24.815 70.764-1.971 52.063-42.107 103.352-115.171 103.356zM913.134 492.04a96.7 96.7 0 0 0-30.422 4.907c-36.296 11.978-63.736 44.694-68.282 81.412-2.714 21.922.696 63.747 54.026 97.562.437.276.794.661 1.039 1.117 13.103 24.476 24.779 51.962 37.142 81.062 42.223 99.395 90.079 212.05 210.125 213.928.021 0 .042 0 .063.002 72.852 2.703 112.911-47.011 114.822-97.479 1.733-45.778-28.956-96.318-100.434-99.105a3 3 0 0 1-2.39-1.35c-15.02-22.836-27.125-52.106-38.831-80.413-1.742-4.213-3.48-8.416-5.223-12.586l-2.859-6.919c-20.517-49.686-41.733-101.063-76.543-137.132-28.042-29.466-60.438-45.007-92.233-45.007z"
                  fill="#0b122d"/>
            <path d="M1107.49 776.266c3.249-3.414 11.604-17.917 15.726-49.684 4.662-35.943 6.161-58.888-2.667-106.956 24.991 52.429 174.674-.021 191.873-59.453 10.757 58.563 20.909 145.383 3.222 226.41-9.151 41.93-24.693 77.97-46.193 107.12-27.354 37.085-65.031 65.597-114.106 77.554"
                  fill="#fff"/>
            <path d="M1155.343 974.258a3.002 3.002 0 0 1-.707-5.916c45.328-11.043 83.146-36.754 112.402-76.419 21.248-28.809 36.616-64.465 45.676-105.979 13.197-60.459 12.711-132.763-1.432-215.046-19.398 37.111-84.132 68.782-133.651 72.829-23.295 1.908-41.215-2.422-51.998-12.302 6.417 39.848 4.943 61.736.558 95.543-4.031 31.074-12.286 46.908-16.527 51.366a3 3 0 0 1-4.347-4.137c.101-.105 10.125-11.008 14.924-48.001 4.735-36.509 6.019-58.87-2.643-106.028a3 3 0 0 1 5.658-1.833c9.507 19.945 37.84 20.719 53.885 19.412 25.659-2.098 56.263-12.06 81.866-26.648 27.057-15.418 45.475-34.283 50.532-51.76a2.993 2.993 0 0 1 3.032-2.162 3 3 0 0 1 2.801 2.454c16.035 87.297 17.112 163.87 3.203 227.592-9.242 42.344-24.958 78.769-46.71 108.261-30.114 40.828-69.078 67.302-115.811 78.688a3.007 3.007 0 0 1-.712.086z"
                  fill="#0b122d"/>
            <path d="M1174.311 716.145c-25.309 0-42.932-8.088-50.159-23.249a3 3 0 1 1 5.416-2.582c9.539 20.011 38.609 20.741 55.089 19.393 26.229-2.144 57.468-12.128 83.567-26.707 27.6-15.418 46.322-34.256 51.365-51.683a3.001 3.001 0 0 1 5.764 1.668c-11.892 41.094-85.134 78.2-140.207 82.701-3.751.307-7.366.459-10.835.459z"
                  fill="#0b122d"/>
            <path d="M1271.068 415.888c-19.444-45.844-47.733-75.461-74.64-80.154-21.972-3.833-52.645 19.524-44.347 40.334 7.19 18.031 26.568 21.478 43.663 28.072"
                  fill="#ef9b99"/>
            <path d="M1271.069 418.89a3.002 3.002 0 0 1-2.763-1.829c-18.574-43.792-46.313-73.821-72.394-78.371-11.813-2.054-27.401 4.618-36.265 15.533-3.268 4.024-8.235 12.07-4.78 20.733 5.437 13.635 18.751 18.239 32.848 23.114 2.999 1.037 6.099 2.109 9.108 3.271a3 3 0 0 1-2.159 5.598c-2.91-1.122-5.96-2.177-8.91-3.197-14.752-5.102-30.007-10.378-36.46-26.562-3.401-8.53-1.379-18.026 5.696-26.738 10.129-12.475 28.164-20.066 41.954-17.661 28.49 4.969 57.232 35.601 76.886 81.938a3.001 3.001 0 0 1-2.76 4.173z"
                  fill="#0b122d"/>
            <path d="M1222.52 419.227c-16.282-33.946-53.091-63.009-77.743-56.834-21.914 5.489-29.323 31.678-25.06 43.651 4.522 12.697 37.962 35.46 37.962 35.46"
                  fill="#ef9b99"/>
            <path d="M1157.676 444.504a2.984 2.984 0 0 1-1.685-.52c-3.506-2.387-34.386-23.696-39.1-36.934-2.739-7.693-1.155-19.257 3.942-28.776 5.175-9.664 13.419-16.338 23.215-18.792 12.582-3.149 28.398 1.779 44.54 13.882 15.147 11.358 28.501 27.602 36.638 44.564a3.001 3.001 0 0 1-5.41 2.596c-7.732-16.122-20.426-31.562-34.827-42.36-14.454-10.838-28.844-15.523-39.482-12.861-10.424 2.611-16.294 10.035-19.383 15.804-4.994 9.325-5.355 18.942-3.579 23.931 3.438 9.653 27.747 27.807 36.824 33.987a3 3 0 0 1-1.691 5.48z"
                  fill="#0b122d"/>
            <path d="M1173.35 441.983c-10.53-25.232-39.568-55.992-66.979-43.221-27.756 12.932-26.382 51.604-12.816 71.146 10.305 14.844 25.598 8.199 25.778-.669"
                  fill="#ef9b99"/>
            <g fill="#0b122d">
                <path d="M1107.998 481.649c-5.389 0-11.758-2.616-16.906-10.03-9.114-13.129-12.347-32.648-8.043-48.57 3.384-12.521 11.011-21.86 22.056-27.007 9.035-4.209 18.698-4.373 28.722-.489 19.281 7.473 35.135 28.124 42.292 45.275a3 3 0 0 1-5.537 2.311c-6.452-15.459-21.384-35.194-38.923-41.991-8.441-3.271-16.523-3.159-24.02.334-11.863 5.527-16.771 15.63-18.798 23.133-3.807 14.087-.854 32.009 7.18 43.583 4.14 5.965 9.68 8.599 14.816 7.047 3.185-.962 5.445-3.456 5.498-6.065.034-1.656 1.432-2.97 3.06-2.938a3 3 0 0 1 2.939 3.06c-.107 5.26-4.03 9.957-9.762 11.688a15.842 15.842 0 0 1-4.574.661z"/>
                <path d="M1124.603 484.185a3 3 0 0 1-2.773-1.854c-6.783-16.393-9.732-21.21-17.528-28.638a3 3 0 1 1 4.138-4.344c8.465 8.064 11.827 13.514 18.933 30.687a3 3 0 0 1-2.771 4.149zM919.054 735.994c1.726 24.566 9.52 87.107 30.053 120.367-18.001-37.169-35.512-74.926-52.57-113.225l22.517-7.141z"/>
                <path d="M949.11 859.361a2.999 2.999 0 0 1-2.555-1.424c-4.017-6.507-7.526-14-10.588-22.009a3976.236 3976.236 0 0 1-42.17-91.572 2.997 2.997 0 0 1 1.834-4.08l22.518-7.142a3.001 3.001 0 0 1 3.9 2.649c1.684 23.971 7.582 66.612 19.698 98.323a3638.47 3638.47 0 0 0 10.062 20.946 3.001 3.001 0 0 1-2.697 4.308zM900.644 744.98a4039.74 4039.74 0 0 0 24.57 53.977c-5.624-25.418-8.039-49.268-8.857-58.96zM36.23 397.371c17.827-34.129 210.57-16.989 192.291 43.065S3.37 460.28 36.23 397.371z"/>
                <path d="M159.73 472.953c-18.693 0-39.236-2.629-58.588-7.686-30.6-7.996-54.215-20.938-64.791-35.51-7.769-10.705-8.731-22.385-2.781-33.775 8.867-16.975 49.266-18.922 66.224-18.971 33.7-.069 70.125 6.18 95.059 16.383 29.315 11.995 42.291 29.012 36.537 47.915-4.624 15.189-20.277 25.435-45.27 29.626-8.071 1.354-16.999 2.018-26.392 2.018zm-123.5-75.582 2.659 1.389c-4.894 9.368-4.113 18.611 2.318 27.474 20.166 27.786 92.796 47.355 143.922 38.785 15.755-2.643 35.575-9.204 40.521-25.456 6.059-19.905-14.639-33.073-33.069-40.615-24.067-9.849-59.253-15.937-92.003-15.937h-.766c-32.554.095-55.898 6.129-60.923 15.748l-2.659-1.389z"/>
            </g>
            <path d="M215.25 803.741c-288.414-17.383-171.848-438.659-41.56-586.648 69.014-79.721 188.553 18.359 123.57 101.63-55.242 65.95-126.813 232.348-93.458 320.481 23.079 20.655 79.687-45.436 104.639-68.98 47.208-47.994 96.024-97.621 160.753-109.947 43.391-8.262 85.191 20.204 93.482 63.577 8.292 43.374-20.187 85.274-63.555 93.599-.294.057-7.393 1.538-24.306 15.172-74.425 64.488-149.723 172.619-259.566 171.116z"
                  fill="#ef9b99"/>
            <path d="M217.503 806.757c-.766 0-1.527-.006-2.293-.016-.046 0-.093-.003-.14-.006-41.583-2.506-76.762-13.546-104.56-32.812-25.583-17.732-45.144-42.555-58.138-73.777-26.546-63.789-25.431-154.706 3.142-256.004 24.924-88.362 69.343-176.122 115.924-229.031 36.886-42.608 86.104-35.377 116.218-10.62 30.088 24.737 46.668 71.613 11.969 116.078l-.065.081c-28.819 34.405-59.99 93.66-79.412 150.959-23.183 68.396-28.075 127.232-13.81 165.813 17.472 13.988 59.841-28.94 85.261-54.693 5.676-5.75 10.58-10.719 14.742-14.648 47.518-48.309 96.661-98.253 162.292-110.75 44.897-8.548 88.404 21.043 96.99 65.961 8.587 44.919-20.992 88.481-65.936 97.108-.046.01-6.889 1.59-22.948 14.528-16.939 14.682-33.7 31.409-51.445 49.118-29.76 29.701-60.532 60.412-94.773 83.801-38.308 26.167-75.308 38.91-113.019 38.91zm-2.141-6.015c.728.01 1.468.015 2.193.015 82.307 0 143.905-61.479 203.501-120.958 17.835-17.8 34.682-34.612 51.795-49.441l.082-.068c17.184-13.852 24.808-15.625 25.621-15.781 41.7-8.005 69.142-48.418 61.175-90.09-7.966-41.672-48.329-69.124-89.975-61.193-63.81 12.15-112.291 61.438-159.176 109.103l-.08.078c-4.094 3.863-8.977 8.81-14.63 14.538-25.372 25.704-58.502 59.265-81.299 59.269-4.764 0-9.073-1.464-12.769-4.772a2.995 2.995 0 0 1-.805-1.174c-15.087-39.864-10.304-100.446 13.47-170.584 19.633-57.924 51.212-117.91 80.461-152.845 32.188-41.285 16.823-84.771-11.081-107.712-27.937-22.967-73.615-29.656-107.888 9.932-46.042 52.297-89.974 139.161-114.669 226.714-28.208 100.003-29.407 189.522-3.377 252.069 26.451 63.56 79.427 98.181 157.451 102.902z"
                  fill="#0b122d"/>
            <path d="M215.246 823.741C-9.191 817.21-30.442 580.528 36.23 397.371c11.924 63.189 153.394 75.909 192.291 43.065-22.285 49.958-36.136 142.141-12.642 182.687 14.317.073 55.947-42.285 78.304-66.925 57.209-63.052 108.498-95.763 151.11-109.657 135.169-44.071 197.605 150.076 58.885 190.305-1.684.728-8.304 4.017-21.375 15.135-73.654 67.789-154.809 174.061-267.557 171.76z"
                  fill="#fff"/>
            <path d="M218.848 826.778c-1.221 0-2.435-.013-3.663-.038h-.026c-39.544-1.151-74.517-9.514-103.947-24.857-27.381-14.274-50.21-34.692-67.853-60.687C15.38 699.973.389 644.136.007 579.723c-.35-58.975 11.201-122.385 33.404-183.378a2.998 2.998 0 0 1 5.766.47c3.737 19.802 22.15 36.521 51.848 47.076 47.422 16.856 112.036 14.117 135.56-5.747a3 3 0 0 1 4.675 3.514c-11.333 25.405-20.021 60.523-23.242 93.939-3.511 36.429-.13 66.249 9.519 84.337 12.658-2.726 45.943-34.362 74.424-65.752 51.987-57.297 103.262-94.473 152.401-110.493 40.86-13.321 78.768-6.511 106.738 19.184 27.695 25.439 40.092 65.318 31.584 101.596-8.544 36.432-36.054 63.133-77.478 75.203-1.503.679-7.882 3.901-20.417 14.558-13.293 12.236-26.658 25.557-40.806 39.658-62.547 62.339-133.34 132.892-225.137 132.892zm-3.527-6.036c1.167.023 2.34.035 3.5.035 89.352 0 159.201-69.619 220.928-131.141 14.208-14.16 27.627-27.535 41.021-39.862.029-.026.058-.053.088-.078 13.39-11.389 20.322-14.823 22.128-15.604.116-.051.234-.094.355-.128 39.357-11.414 65.46-36.582 73.501-70.867 8.021-34.202-3.677-71.809-29.802-95.808-26.304-24.161-62.108-30.52-100.819-17.896-48.135 15.692-98.541 52.305-149.818 108.819-14.461 15.939-62.976 67.904-80.496 67.91h-.045a3.002 3.002 0 0 1-2.581-1.496c-23.105-39.875-10.975-125.478 8.659-176.166-29.556 16.093-87.796 17.124-132.926 1.083-27.286-9.698-45.733-24.575-53.037-42.498-43.635 126.096-39.005 255.123 12.345 330.78 35.859 52.835 92.046 80.731 166.998 82.916z"
                  fill="#0b122d"/>
            <path d="M138.584 536.33c-23.393 0-48.509-3.805-70.55-11.639-32.03-11.386-51.959-29.789-56.116-51.82a3 3 0 1 1 5.896-1.113c3.746 19.848 22.295 36.639 52.23 47.279 47.637 16.935 112.386 14.316 135.844-5.491a3.001 3.001 0 0 1 3.872 4.584c-14.185 11.978-41.269 18.2-71.174 18.2z"
                  fill="#0b122d"/>
            <path d="M283.393 215.832c18.87-56.475 61.567-59.393 74.347-23.654 13.538 37.857-18.557 59.629-26.331 69.051s-38.062-5.783-26.376-36.906c4.587-12.216 10.072-23.649 10.072-23.649"
                  fill="#ef9b99"/>
            <path d="M324.605 266.989c-3.369 0-7.122-1.046-10.769-3.156-10.173-5.886-19.317-20.04-11.611-40.564 4.581-12.198 10.12-23.775 10.175-23.892a3.001 3.001 0 0 1 5.41 2.596c-.055.113-5.483 11.462-9.968 23.405-6.388 17.012.855 28.551 8.999 33.262 4.946 2.86 10.213 3.152 12.254.681 1.334-1.617 3.251-3.493 5.47-5.664 11.63-11.38 31.094-30.425 20.351-60.468-4.854-13.573-14.604-21.629-25.989-21.485-13.402.141-31.654 12.057-42.688 45.08a3 3 0 0 1-5.691-1.902c12.032-36.011 32.848-49.016 48.316-49.178h.323c13.954 0 25.667 9.496 31.378 25.467 12.038 33.662-9.977 55.203-21.804 66.775-2.097 2.052-3.907 3.823-5.039 5.194-2.111 2.559-5.377 3.851-9.118 3.851z"
                  fill="#0b122d"/>
            <path d="M240.172 194.648c21.032-55.453 71.011-47.509 75.91-7.545 3.856 31.457-12.8 47.325-20.837 56.394-18.42 20.785-60.009-7.547-42.966-36.09 6.69-11.203 12.929-24.797 12.929-24.797"
                  fill="#ef9b99"/>
            <path d="M279.227 253.697c-7.139 0-14.346-2.789-19.994-6.922-11.762-8.606-19.271-24.593-9.53-40.906 6.526-10.93 12.717-24.376 12.778-24.511a3.001 3.001 0 0 1 5.453 2.504c-.258.561-6.384 13.868-13.08 25.083-7.805 13.072-1.646 25.987 7.922 32.988 8.72 6.381 21.897 8.968 30.223-.426a286.27 286.27 0 0 1 1.732-1.928c8.156-9.019 21.805-24.111 18.373-52.112-1.97-16.074-12.06-27.525-25.703-29.175-13.981-1.683-32.983 7.256-44.424 37.419a3 3 0 0 1-5.61-2.127c12.669-33.403 34.52-43.212 50.754-41.248 16.477 1.991 28.621 15.494 30.938 34.4 3.766 30.723-11.035 47.089-19.878 56.867-.596.659-1.163 1.285-1.692 1.883-5.183 5.848-11.694 8.209-18.263 8.21z"
                  fill="#0b122d"/>
            <path d="M154.179 241.42c16.131-23.124 35.905-52.75 54.96-66.354 36.947-26.376 62.91-17.321 70.466 12.638 7.44 29.5-28.083 53.596-42.011 63.297-9.89 6.888-40.124-10.071-27.432-40.75 4.981-12.042 13.628-21.621 13.628-21.621-9.602 13.517-17.762 22.001-16.312 39.443"
                  fill="#ef9b99"/>
            <path d="M232.01 255.519c-5.063 0-10.981-2.213-16.11-6.339-3.88-3.121-14.902-13.835-11.027-32.084 1.027-6.063 3.377-11.089 6.463-16.016 4.723-8.319 9.942-14.147 10.225-14.461a3 3 0 0 1 4.673 3.747c-1.175 1.654-2.329 3.234-3.446 4.764-2.338 3.201-4.482 6.137-6.309 9.058-1.272 2.246-2.498 4.677-3.546 7.21-.977 2.362-1.668 4.601-2.121 6.712-.504 2.926-.645 6.113-.345 9.714.022.264.009.522-.035.771 1.382 8.757 6.893 14.031 9.229 15.911 6.309 5.075 13.33 6.044 16.218 4.034l.749-.521c14.026-9.757 46.871-32.605 40.068-59.58-3.169-12.562-9.645-20.966-18.728-24.301-12.251-4.496-28.533.126-47.086 13.371-17.154 12.246-35.601 38.801-50.424 60.138a3244.118 3244.118 0 0 1-3.819 5.491 3 3 0 0 1-4.921-3.434c1.25-1.791 2.521-3.621 3.813-5.48 15.873-22.849 33.863-48.747 51.865-61.598 20.242-14.451 38.445-19.331 52.641-14.121 11.029 4.05 18.802 13.894 22.477 28.467 7.818 30.997-27.414 55.507-42.458 65.973l-.747.52c-1.991 1.387-4.516 2.056-7.297 2.056z"
                  fill="#0b122d"/>
            <path d="M283.603 336.6c13.347-6.158 36.447-22.876 42.209-35.281 6.682-14.384 9.522-42.746 13.379-60.807 9.671-45.289-41.657-29.394-50.531 5.282-3.171 12.391-5.108 22.133-5.108 22.133s-48.318-1.985-56.745 35.352"
                  fill="#ef9b99"/>
            <path d="M283.605 339.601a3 3 0 0 1-1.259-5.724c12.686-5.854 35.407-22.327 40.746-33.82 4.458-9.599 7.261-26.381 9.734-41.188 1.148-6.875 2.233-13.37 3.431-18.982 1.683-7.878 2.964-21.455-7.351-23.875-12.276-2.878-32.321 10.914-37.34 30.527-3.112 12.161-5.053 21.877-5.072 21.974-.289 1.449-1.599 2.491-3.065 2.412-.115 0-11.843-.415-24.334 3.586-16.25 5.204-26.128 15.106-29.361 29.43a3.004 3.004 0 0 1-3.587 2.267 3.001 3.001 0 0 1-2.266-3.587c3.693-16.365 15.295-28.079 33.551-33.877 10-3.177 19.322-3.75 23.679-3.826a495.352 495.352 0 0 1 4.643-19.866c5.893-23.027 29.404-38.428 44.523-34.881 5.286 1.24 17.022 6.741 11.848 30.971-1.17 5.479-2.245 11.91-3.381 18.717-2.66 15.925-5.41 32.391-10.211 42.727-6.077 13.083-29.532 30.217-43.673 36.74a2.985 2.985 0 0 1-1.255.277zm121.716 350.782s-32.795 69.656-58.019 86.205c25.563-19.196 51.432-41.611 77.682-67.015l-19.662-19.19z"
                  fill="#0b122d"/>
            <path d="M347.304 779.588a2.999 2.999 0 0 1-1.804-5.399 592.464 592.464 0 0 0 4.316-3.27c23.611-20.218 52.483-81.164 52.79-81.814a3.002 3.002 0 0 1 4.809-.868l19.663 19.19a3.002 3.002 0 0 1-.009 4.302c-25.131 24.32-49.88 45.821-73.638 63.979a46.03 46.03 0 0 1-4.484 3.389 2.988 2.988 0 0 1-1.643.491zm58.908-84.144c-4.683 9.576-17.606 35.094-32.197 56.103 15.289-12.778 30.891-26.815 46.661-41.986l-14.464-14.116zm-168.237-48.676c-.194 0-.392-.019-.59-.059-.503-.101-12.457-2.69-23.951-21.977a3 3 0 1 1 5.155-3.072c9.984 16.754 19.91 19.15 20.009 19.173 1.604.36 2.636 1.946 2.295 3.554a2.99 2.99 0 0 1-2.917 2.381z"
                  fill="#0b122d"/>
            <path d="M751.62 465.234s-23.212 96.115-76.089 88.184c-52.877-7.932-42.128-100.594-42.128-100.594l7.09-67.544 118.216 12.41-7.09 67.544z"
                  fill="#ef9b99"/>
            <path d="M681.591 556.876c-2.151 0-4.318-.163-6.505-.491-23.037-3.455-38.047-22.736-43.409-55.757-3.943-24.29-1.365-47.187-1.253-48.149l7.087-67.512a3.002 3.002 0 0 1 1.095-2.018 3.021 3.021 0 0 1 2.201-.652l118.216 12.41a2.998 2.998 0 0 1 2.67 3.297l-7.09 67.543a3.042 3.042 0 0 1-.067.391c-.241.997-6.037 24.672-18.491 47.785-15.288 28.374-34.003 43.153-54.454 43.153zm-38.426-168.299-6.777 64.561c-.107.93-9.808 89.904 39.589 97.313 48.499 7.268 71.51-81.085 72.682-85.739l6.755-64.352zm108.455 76.657h.01z"
                  fill="#0b122d"/>
            <path d="m753.966 442.884 3.495-33.294-65.864 18.086c18.993 8.518 46.126 19.079 62.369 15.208z"
                  fill="#0b122d"/>
            <path d="M746.227 446.705c-13.119 0-31.524-5.379-55.856-16.292a3 3 0 0 1 .433-5.63l65.864-18.086a2.998 2.998 0 0 1 3.777 3.206l-3.495 33.295a2.998 2.998 0 0 1-2.288 2.604c-2.52.601-5.331.902-8.435.902zm7.739-3.82h.01zm-53.371-14.569c22.879 9.616 39.87 13.66 50.62 12.046l2.804-26.716z"
                  fill="#0b122d"/>
            <path d="M685.741 427.175c81.591 7.95 123.226-26.898 141.646-58.468 15.884-27.222 22.063-51.46 24.161-93.985 4.447-90.104-13.503-171.347-136.724-177.428-123.22-6.081-149.082 73.001-153.529 163.104-2.032 41.176 2.493 75.716 15.34 101.165 12.075 23.921 28.821 47.882 60.195 58.613"
                  fill="#ef9b99"/>
            <path d="M708.829 431.336c-7.386 0-15.166-.374-23.379-1.174a3.001 3.001 0 0 1-2.695-3.277 3.005 3.005 0 0 1 3.277-2.695c86.862 8.465 124.225-32.075 138.764-56.993 15.669-26.855 21.664-50.227 23.756-92.62 2.644-53.557-3.732-91.222-20.065-118.536-20.785-34.76-58.012-52.995-113.81-55.749-125.233-6.182-146.303 77.543-150.384 160.256-2.086 42.256 2.968 75.788 15.021 99.666 10.544 20.89 26.722 46.261 58.487 57.126a3 3 0 0 1-1.941 5.678c-33.816-11.567-50.845-38.194-61.902-60.101-12.527-24.816-17.795-59.358-15.658-102.664 2.704-54.795 13.129-92.69 32.81-119.26 25.391-34.279 65.905-49.56 123.863-46.693 57.955 2.86 96.771 22.049 118.664 58.662 16.969 28.378 23.613 67.116 20.909 121.91-2.12 42.944-8.548 67.896-24.566 95.349-13.873 23.776-47.426 61.116-121.149 61.116z"
                  fill="#0b122d"/>
            <path d="M794.841 245.042c-11.375-5.83-23.146-8.363-37.483-10.767-9.192-1.542-9.137-11.964 3.944-17.071 12.294-4.8 35.985 1.412 43.267 12.89 7.597 11.974-.444 19.707-9.728 14.948z"
                  fill="#5c79f6"/>
            <path d="M800.269 249.459c-2.182 0-4.511-.575-6.797-1.747-10.524-5.394-21.393-7.926-36.61-10.478-5.05-.848-8.462-4.034-8.905-8.316-.467-4.519 2.506-10.703 12.253-14.509 13.002-5.076 38.564.955 46.891 14.077 5.15 8.117 3.807 14.493.833 17.753-1.942 2.13-4.664 3.22-7.665 3.22zm-28.954-30.877c-3.371 0-6.457.454-8.921 1.417-6.159 2.404-8.707 5.989-8.468 8.302.224 2.165 2.823 2.83 3.929 3.016 15.798 2.649 27.138 5.308 38.354 11.056 2.951 1.514 5.813 1.444 7.292-.176 1.86-2.04 1.285-6.159-1.466-10.495-5.131-8.088-19.503-13.119-30.721-13.119z"
                  fill="#0b122d"/>
            <path d="M671.02 236.783c-12.727 1.184-24.019 5.362-37.407 11.026-8.584 3.631-14.13-5.193-5.832-16.522 7.799-10.647 31.124-18.116 43.427-12.338 12.835 6.028 10.199 16.868-.188 17.834z"
                  fill="#5c79f6"/>
            <path d="M629.86 251.632c-2.827 0-5.337-1.13-7.055-3.3-2.818-3.562-3.627-10.377 2.556-18.817 8.249-11.261 33.055-19.886 47.123-13.281 8.7 4.086 10.988 10.187 10.228 14.534-.857 4.903-5.337 8.438-11.414 9.003-11.772 1.095-22.304 4.789-36.516 10.801-1.684.713-3.352 1.061-4.922 1.061zm30.925-31.732c-11.334 0-25.377 6.052-30.583 13.159-3.907 5.334-4.134 9.726-2.691 11.549 1.351 1.707 3.9.874 4.934.438 14.754-6.241 25.751-10.083 38.298-11.25 3.303-.308 5.681-1.901 6.059-4.062.476-2.719-2.221-5.886-6.869-8.068-2.599-1.221-5.752-1.765-9.148-1.765zm10.235 16.883h.01z"
                  fill="#0b122d"/>
            <path d="M703.754 344.792c-11.88 21.323-53.609 15.661-52.966-11.669z" fill="#fff"/>
            <path d="M678.898 360.761c-3.418 0-6.793-.449-9.931-1.304-13.361-3.639-21.477-13.757-21.179-26.404.021-.896.442-1.736 1.147-2.29s1.623-.763 2.497-.569l52.966 11.669a3 3 0 0 1 1.975 4.389c-5.631 10.107-16.769 14.509-27.476 14.509zm-24.881-23.855c1.227 8.082 7.185 14.218 16.527 16.762 9.455 2.576 21.425.842 28.183-6.911zm137.928-62.594a3.003 3.003 0 0 1-2.934-2.387c-1.04-4.967-5.827-7.789-9.961-8.774-6.232-1.481-12.48.338-15.921 4.645a3.001 3.001 0 0 1-4.687-3.746c4.884-6.112 13.521-8.757 22-6.734 7.558 1.801 13.092 6.929 14.443 13.382a3 3 0 0 1-2.94 3.615zm-152.209.221a3 3 0 0 1-2.94-3.615c1.351-6.453 6.885-11.581 14.443-13.382 8.478-2.022 17.115.622 22 6.734a3.001 3.001 0 0 1-4.687 3.746c-3.441-4.306-9.689-6.129-15.921-4.645-4.134.985-8.921 3.808-9.961 8.774a3.001 3.001 0 0 1-2.934 2.387z"
                  fill="#0b122d"/>
            <path d="M562.126 249.27c5.776-25.473 18.041-156.589 135.106-152.407 159.261 5.691 143.031 125.66 151.143 168.689 1.71 9.071 24.463 7.388 27.444-8.896 8.346-45.6 11.551-126.762-47.999-171.406-81.391-61.018-196.39-47.909-250.253 1.727-47.297 43.586-52.657 109.411-41.559 158.277 8.531 37.562 26.118 4.014 26.118 4.014z"
                  fill="#0b122d"/>
            <path d="M857.699 274.03c-6.55 0-11.364-3.105-12.272-7.923-1.188-6.305-1.849-14.011-2.613-22.933-2.195-25.626-5.202-60.722-24.299-89.438-22.708-34.145-62.415-51.768-121.39-53.875-103.997-3.715-123.078 101.224-130.268 140.729-.711 3.91-1.273 6.998-1.805 9.343a2.998 2.998 0 0 1-.269.729c-.891 1.699-8.958 16.562-18.471 15.321-6.015-.785-10.342-7.348-13.23-20.064-6.168-27.155-6.569-56.418-1.13-82.397 6.643-31.727 21.305-58.222 43.581-78.75 27.71-25.535 70.251-41.264 116.715-43.15 50.397-2.046 99.177 12.595 137.371 41.229 26.897 20.165 43.927 49.511 50.615 87.222 5.89 33.213 2.455 65.711-1.464 87.125-2.017 11.021-12.098 16.811-21.015 16.834h-.056zM691.789 93.766c1.833 0 3.682.033 5.549.1 32.315 1.154 59.694 7.149 81.376 17.818 18.778 9.239 33.849 22.271 44.796 38.73 19.948 29.996 23.03 65.977 25.281 92.248.75 8.761 1.398 16.326 2.531 22.334.397 2.106 3.473 3.056 6.416 3.034 5.208-.014 13.534-3.198 15.128-11.914 6.453-35.256 14.805-122.246-46.847-168.466-37.092-27.808-84.517-42.034-133.528-40.034-45.064 1.83-86.212 16.981-112.892 41.567-46.314 42.68-51.374 108.263-40.667 155.407 3.037 13.371 6.714 15.254 8.154 15.442 3.74.521 9.395-6.638 12.2-11.816.48-2.18 1.008-5.082 1.667-8.701 3.601-19.791 10.305-56.628 29.724-88.544 23.109-37.98 57.107-57.206 101.112-57.206zM562.126 249.269h.01z"
                  fill="#0b122d"/>
            <path d="M846.214 268.579c10.26-15.877 30.603-22.869 48.872-15.683 20.835 8.196 31.082 31.73 22.886 52.565s-31.73 31.082-52.565 22.886c-7.353-2.893-13.715-7.794-18.086-13.715-1.107 5.712-2.31 11.253-3.68 16.501"
                  fill="#ef9b99"/>
            <path d="M880.195 334.162c-5.293 0-10.67-.972-15.886-3.023-5.727-2.253-10.983-5.695-15.257-9.938a239 239 0 0 1-2.508 10.69 3 3 0 1 1-5.806-1.515c1.245-4.768 2.435-10.104 3.638-16.313a2.998 2.998 0 0 1 5.359-1.21c4.097 5.55 10.052 10.062 16.77 12.704 19.265 7.578 41.098-1.93 48.675-21.192s-1.93-41.098-21.192-48.675c-16.573-6.519-35.604-.412-45.254 14.52a3 3 0 0 1-4.148.892 2.998 2.998 0 0 1-.891-4.147c11.194-17.324 33.27-24.409 52.49-16.848 22.341 8.789 33.368 34.114 24.58 56.455-6.737 17.126-23.191 27.603-40.569 27.604z"
                  fill="#0b122d"/>
            <path d="M871.313 300.357a3 3 0 0 1-1.487-5.608l23.343-13.299a3 3 0 0 1 2.969 5.213l-23.343 13.299a2.976 2.976 0 0 1-1.482.395z"
                  fill="#0b122d"/>
            <path d="M889.307 307.436a2.998 2.998 0 0 1-2.735-1.766l-12.361-27.342a3 3 0 1 1 5.467-2.472l12.361 27.342a3 3 0 0 1-2.732 4.238z"
                  fill="#0b122d"/>
            <path d="M569.586 258.306c-7.602-20.817-31.571-29.334-50.443-23.925-21.523 6.169-33.97 28.617-27.801 50.139 6.169 21.523 28.617 33.97 50.139 27.801 7.596-2.177 15.169-6.154 20.085-11.63.275 4.457.888 9.945 1.722 16.102"
                  fill="#ef9b99"/>
            <path d="M563.284 319.793a3 3 0 0 1-2.969-2.598 313.311 313.311 0 0 1-1.228-10.173c-4.573 3.508-10.343 6.338-16.779 8.183-11.179 3.205-22.937 1.864-33.109-3.776-10.171-5.64-17.537-14.902-20.741-26.082-6.614-23.078 6.78-47.235 29.858-53.85 19.451-5.578 45.658 2.698 54.087 25.78a3 3 0 0 1-5.636 2.059c-7.245-19.841-29.933-26.904-46.798-22.071-19.898 5.703-31.447 26.531-25.744 46.43 2.763 9.639 9.114 17.625 17.883 22.487 8.77 4.862 18.906 6.019 28.546 3.256 7.726-2.214 14.534-6.132 18.679-10.75a2.998 2.998 0 0 1 5.226 1.819c.254 4.114.811 9.31 1.7 15.884a2.999 2.999 0 0 1-2.976 3.402z"
                  fill="#0b122d"/>
            <path d="M540.502 283.948c-.597 0-1.2-.178-1.725-.547l-21.966-15.467a3 3 0 0 1 3.454-4.907l21.966 15.467a3 3 0 0 1-1.73 5.453z"
                  fill="#0b122d"/>
            <path d="M521.913 289.277a3 3 0 0 1-2.6-4.492l14.917-26.038a3 3 0 0 1 5.206 2.983l-14.917 26.038a2.998 2.998 0 0 1-2.606 1.51z"
                  fill="#0b122d"/>
            <path d="M844.103 225.02c11.33-1.793 31.747-8.216 45.265-15.204 3.402-17.878 2.183-39.327-.622-62.002 11.616 17.681 15.947 32.5 18.406 51.207 5.951-4.294 10.925-8.801 14.224-13.243C906.707 131.033 873.884 1.165 711.998 3.02 531.217 5.091 509.353 145.362 509.994 203.185c0 0 36.844 15.615 58.65 13.344 0 0 7.016-38.22 16.445-55.122s239.051-19.255 247.885 6.673 11.129 56.94 11.129 56.94z"
                  fill="#5c79f6"/>
            <path d="M844.103 228.02a3.002 3.002 0 0 1-2.992-2.778c-.023-.307-2.374-30.944-10.977-56.194-.485-1.426-5.115-8.778-48.695-13.587-32.936-3.636-79.509-4.782-121.543-2.99-49.594 2.111-70.343 7.377-72.189 10.401-9.081 16.277-16.043 53.821-16.112 54.199a2.999 2.999 0 0 1-2.64 2.442c-22.32 2.318-58.598-12.917-60.131-13.567a3 3 0 0 1-1.83-2.729c-.235-21.226 2.554-75.669 33.461-122.671C574.996 28.021 632.7.928 711.964.019c1.149-.013 2.308-.02 3.445-.02C874.791 0 909.054 128.116 923.751 183.051l.522 1.951c.237.885.057 1.83-.49 2.565-3.348 4.508-8.354 9.18-14.877 13.887a3.001 3.001 0 0 1-4.73-2.042c-1.715-13.053-4.417-24.929-10.927-37.875 1.859 20.419 1.54 35.832-.935 48.84a2.998 2.998 0 0 1-1.569 2.104c-14.107 7.293-34.952 13.726-46.173 15.502a2.965 2.965 0 0 1-.469.037zm-144.207-82.373c25.896 0 51.615.992 72.814 2.91 58.587 5.3 61.986 15.276 63.104 18.555 7.265 21.323 10.138 45.618 10.988 54.369 10.807-2.186 27.63-7.561 39.881-13.667 2.614-14.951 2.324-33.446-.915-59.632a3 3 0 0 1 5.485-2.016c11.232 17.098 15.666 31.598 18.143 47.38 3.584-2.883 6.496-5.705 8.697-8.43l-.138-.516C903.617 131.006 870.148 5.998 715.364 5.998c-1.113 0-2.206.007-3.332.02-184.07 2.108-199.15 147.262-199.051 195.143 7.299 2.915 34.93 13.381 53.148 12.547 1.687-8.602 8.014-38.839 16.34-53.764 1.416-2.537 5.435-5.834 24.104-8.828 12.05-1.933 28.545-3.452 47.701-4.396 14.652-.721 30.169-1.074 45.622-1.074z"
                  fill="#0b122d"/>
            <path d="M559.524 184.605c12.592 6.544 32.77 11.046 56.933 13.888 2.635-18.56 14.843-35.613 32.9-51.744-1.975 20.162-.56 38.892 7.352 54.878 77.125 3.458 171.151-4.73 201.167-15.983-.624-56.291-52.19-135.18-148.516-134.146-101.389 1.088-147.766 70.926-149.837 133.107z"
                  fill="#5c79f6"/>
            <path d="M693.412 205.406c-12.607 0-24.994-.251-36.837-.782a3.004 3.004 0 0 1-2.555-1.666c-6.56-13.254-9.271-29.269-8.236-48.776-15.611 15.229-24.253 29.916-26.357 44.733a2.999 2.999 0 0 1-3.321 2.558c-26.27-3.09-45.772-7.869-57.966-14.206a3.002 3.002 0 0 1-1.615-2.762c2.157-64.738 50.894-134.913 152.804-136.008 97.866-1.087 150.903 78.955 151.548 137.113a2.999 2.999 0 0 1-1.947 2.842c-26.469 9.924-98.892 16.953-165.518 16.954zm-34.773-6.698c78.412 3.333 166.416-5.107 196.19-15.165-1.869-55.445-52.697-130.022-145.436-129.046-96.955 1.041-143.835 66.856-146.793 128.29 11.198 5.367 28.457 9.527 51.374 12.384 3.284-16.946 14.233-33.55 33.386-50.659a3.001 3.001 0 0 1 4.984 2.53c-2.066 21.081-.006 38.008 6.295 51.666z"
                  fill="#0b122d"/>
            <path d="M647.886 315.334c-.294 0-.588-.002-.882-.006-15.623-.229-30.221-6.529-41.105-17.738-10.885-11.209-16.752-25.985-16.523-41.607.229-15.623 6.528-30.221 17.737-41.105 11.208-10.885 25.98-16.724 41.608-16.523 32.25.474 58.102 27.097 57.628 59.346-.229 15.623-6.529 30.221-17.738 41.105-10.998 10.68-25.43 16.529-40.726 16.529zm-.044-110.986c-13.728 0-26.678 5.249-36.548 14.834-10.06 9.768-15.712 22.868-15.918 36.889-.206 14.02 5.06 27.28 14.829 37.34 9.768 10.06 22.869 15.712 36.888 15.918 14.055.218 27.282-5.06 37.34-14.828 10.06-9.768 15.713-22.868 15.919-36.889.424-28.941-22.776-52.833-51.717-53.258a52.376 52.376 0 0 0-.792-.006zm-55.466 51.678h.01zm188.842 60.061c-.302 0-.604-.003-.906-.007-15.622-.235-30.218-6.54-41.098-17.753-10.88-11.214-16.743-25.993-16.507-41.615.486-32.25 27.097-58.053 59.368-57.605 15.622.235 30.218 6.54 41.098 17.753s16.743 25.992 16.507 41.614c-.235 15.623-6.541 30.219-17.753 41.099-10.996 10.67-25.422 16.515-40.709 16.515zm-52.512-59.285c-.211 14.021 5.05 27.284 14.814 37.347s22.863 15.721 36.882 15.932c14.02.256 27.283-5.049 37.346-14.813 10.063-9.765 15.721-22.863 15.933-36.883.211-14.021-5.05-27.283-14.814-37.346s-22.863-15.721-36.882-15.932c-14.024-.263-27.283 5.049-37.346 14.813s-15.721 22.862-15.933 36.882z"
                  fill="#0b122d"/>
            <path d="M725.689 260.983h-.045l-22.337-.328a3 3 0 0 1 .043-6h.045l22.337.328a3 3 0 0 1-.043 6zm126.589 3.294c-.179 0-.36-.017-.542-.05l-15.594-2.848a3 3 0 1 1 1.078-5.902l15.594 2.848a3 3 0 0 1-.536 5.952zm-259.902-5.25c-.31 0-.625-.049-.935-.15l-30.176-9.889a3 3 0 1 1 1.868-5.701l30.176 9.889a3 3 0 0 1-.934 5.851z"
                  fill="#0b122d"/>
            <path d="M648.942 470.574c2.809 13.994-1.045 32.465-1.045 32.465s15.395 40.724 27.634 50.378c0 0 42.335-39.395 40.679-71.67l35.41-16.514s164.956 7.801 216.791 38.774c-25.034 39.56-37.146 200.224-58.105 257.181-53.697 145.924-7.556 174.102-37.692 223.031-30.023 48.746-413.262 11.822-458.22-37.866-18.985-20.983-31.318-48.096-10.332-74.155 18.475-22.941 1.9-162.741.053-198.76 41.352-24.489 80.481-175.51 66.071-232.541 29.27-.924 163.218 11.927 163.218 11.927z"
                  fill="#fff"/>
            <path d="M675.531 556.418a2.985 2.985 0 0 1-1.857-.645c-12.747-10.055-27.942-49.978-28.583-51.673a3.002 3.002 0 0 1-.131-1.673c.037-.175 3.553-17.366 1.188-30.491l-14.256-16.285c-12.417-1.62-124.116-15.938-161.372-11.772a2.997 2.997 0 0 1-3.315-2.648 3 3 0 0 1 2.648-3.314c40.002-4.471 158.905 11.263 163.948 11.935.721.096 1.382.45 1.861.998L651.2 468.6c.345.394.581.871.684 1.385 2.576 12.835-.132 28.856-.877 32.792 4.19 10.914 15.437 37.098 24.462 46.518 8.222-8.188 39.11-40.809 37.746-67.393a3.001 3.001 0 0 1 1.728-2.872l35.41-16.514a2.997 2.997 0 0 1 1.39-.278c6.456.262 158.798 6.788 218.106 39.138a2.999 2.999 0 0 1 1.197 4.07 2.998 2.998 0 0 1-4.07 1.197c-56.049-30.572-203.093-37.849-214.752-38.379l-32.965 15.373c-.021 32.825-39.948 70.364-41.682 71.979a3 3 0 0 1-2.044.804z"
                  fill="#0b122d"/>
            <path d="M635.715 430.81c.987-9.809-41.993 11.861-42.539 19.496-.545 7.635 5.999 72.27 12.543 76.633s41.18-53.003 43.223-56.365-13.849-33.587-13.227-39.764z"
                  fill="#fff"/>
            <path d="M606.541 530.178a4.43 4.43 0 0 1-2.486-.742c-1.626-1.084-5.435-3.623-10.239-39.184-2.434-18.015-3.925-36.06-3.632-40.159.548-7.672 21.741-17.931 24.156-19.075 11.451-5.427 18.97-6.969 22.344-4.591 1.476 1.041 2.211 2.749 2.016 4.685-.229 2.276 3.957 12.336 6.727 18.992 6.321 15.191 7.696 19.368 6.08 22.028l-.142.233c-15.349 25.298-35.382 55.84-43.663 57.681a5.355 5.355 0 0 1-1.161.132zm25.962-98.897c-2.463 0-8.87 1.755-17.809 6.239-11.323 5.68-18.042 11.254-18.539 13.094-.641 9.067 6.029 65.542 10.872 73.315 4.6-2.528 19.016-21.416 39.092-54.486-.169-2.464-3.8-11.188-6.233-17.035-4.358-10.474-7.127-17.325-7.187-21.123a6.034 6.034 0 0 0-.196-.004z"
                  fill="#0b122d"/>
            <path d="M754.681 436.078c5.65-10.342 37.242 23.281 37.92 30.065s-26.397 71.915-33.891 74.628c-7.494 2.714-50.039-54.676-42.5-59.024 13.852-7.99 29.014-28.361 38.471-45.67z"
                  fill="#fff"/>
            <path d="M758.091 543.923c-2.671 0-8.209-2.514-21.464-18.853-9.312-11.479-17.864-24.345-21.787-32.777-1.326-2.851-4.848-10.423-.129-13.145 14.032-8.094 28.883-29.035 37.337-44.509 1.548-2.833 4.502-4.04 8.11-3.307 11.66 2.366 34.716 27.388 35.429 34.512.642 6.417-13.513 38.957-14.116 40.339-10.153 23.275-17.467 35.862-21.738 37.408-.399.146-.915.331-1.641.331zm-39.785-59.928c.091 2.418 3.601 10.631 13.364 24.546 11.872 16.921 22.943 28.094 26.212 29.242 2.197-1.84 8.544-12.062 18.267-34.407 8.793-20.209 13.543-34.686 13.464-36.966-.703-4.548-21.51-27.596-30.802-29.226-1.2-.209-1.366.09-1.498.332-8.71 15.942-24.083 37.536-39.007 46.479zm36.375-47.917h.01zm-122.176 566.681a2.987 2.987 0 0 1-1.98-.747c-.751-.661-18.322-16.49-12.32-43.765 1.551-7.05 4.787-17.678 8.535-29.985 9.929-32.608 24.935-81.888 22.937-113.791-1.3-20.761 1.443-78.927 6.672-141.45 2.137-25.562 9.654-109.85 16.629-121.176a3 3 0 1 1 5.108 3.147c-9.391 15.249-25.167 215.25-22.421 259.104 2.065 32.987-12.529 80.917-23.186 115.914-3.71 12.186-6.915 22.709-8.415 29.526-5.25 23.855 10.266 37.832 10.423 37.97a3 3 0 0 1-1.982 5.253zm139.311-186.4c-.424 0-.844-.09-1.232-.265-2.582-1.163-63.178-28.885-58.568-64.081 5.227-39.899 11.683-102.726 11.747-103.355a3 3 0 0 1 2.963-2.694c48.645-.327 95.337 5.126 142.775 16.71a3 3 0 0 1 2.254 3.366c-.118.771-11.816 77.444-17.029 102.672-8.566 41.446-79.658 47.405-82.68 47.639a2.972 2.972 0 0 1-.231.009zm-42.362-164.408c-1.295 12.467-6.87 65.573-11.489 100.842-3.796 28.985 47.727 54.357 54.383 57.505 7.613-.747 69.286-7.881 76.502-42.801 4.624-22.375 14.419-85.72 16.557-99.641-45.161-10.812-89.698-16.014-135.954-15.905z"
                  fill="#0b122d"/>
            <path d="M751.349 1010.12c-51.196 0-112.794-4.511-172.483-12.958-42.257-5.979-143.09-22.705-166.697-48.796-25.371-28.04-28.982-55.029-10.443-78.05 14.156-17.578 6.09-113.973 1.757-165.759-1.121-13.39-2.005-23.965-2.364-30.966a3 3 0 1 1 5.992-.306c.354 6.903 1.279 17.965 2.351 30.771 6.375 76.189 11.39 152.076-3.063 170.023-16.671 20.702-13.233 44.341 10.22 70.261 15.465 17.093 76.433 34.618 163.088 46.881 83.416 11.806 170.521 15.892 227.323 10.668 34.985-3.218 57.37-10.052 63.031-19.243 12.231-19.858 11.42-35.652 10.193-59.559-1.69-32.932-4.005-78.032 27.238-162.936 4.763-12.942 11.042-31.732 17.227-51.553a3 3 0 1 1 5.727 1.787c-6.213 19.911-12.527 38.806-17.323 51.838-30.819 83.75-28.54 128.142-26.876 160.556 1.239 24.13 2.134 41.564-11.077 63.013-6.869 11.152-29.609 18.578-67.59 22.071-16.488 1.517-35.512 2.256-56.229 2.256z"
                  fill="#0b122d"/>
        </svg>
    </g>
    <g transform="translate(446.25 2199.375) rotate(-93.15056417441524 365.625 366.5625) scale(2.833456681533031 2.829931946529968)">
        <svg width="258.077" height="259.061" viewBox="0 0 258.077 259.061">
            <path d="M74.612 255.813c4.293.679 8.578 1.084 12.846 1.208 24.508.717 47.33-8.173 62.614-24.39 12.672-13.446 19.3-30.872 18.665-49.07-.665-19.033-9.121-37.646-24.454-53.827-6.488-6.848-13.875-12.245-21.954-16.044-9.995-4.699-21.909-.405-26.609 9.591-4.699 9.996-.406 21.909 9.591 26.609 3.549 1.668 6.892 4.144 9.938 7.358 18.817 19.857 15.289 37.789 5.714 47.949-7.452 7.908-19.238 12.224-32.335 11.841-12.045-.353-31.148-4.763-53.753-23.775-8.453-7.109-21.07-6.021-28.18 2.433-7.11 8.453-6.02 21.07 2.433 28.179 20.843 17.529 43.248 28.418 65.485 31.937z"
                  fill="#EE83F9"/>
            <path d="M90.204 259.061c-.933 0-1.866-.014-2.805-.041a103.415 103.415 0 0 1-13.1-1.232c-22.529-3.565-45.51-14.762-66.46-32.381-9.284-7.808-10.484-21.713-2.676-30.997a21.855 21.855 0 0 1 14.945-7.758 21.857 21.857 0 0 1 16.053 5.081c22.163 18.639 40.796 22.962 52.524 23.306 12.526.368 23.76-3.721 30.821-11.214 8.949-9.495 12.148-26.356-5.71-45.202-2.873-3.032-6.014-5.361-9.337-6.923-10.978-5.161-15.71-18.292-10.55-29.27 5.162-10.978 18.292-15.71 29.27-10.549 8.307 3.906 15.895 9.45 22.555 16.478 15.674 16.54 24.319 35.605 25.001 55.132.654 18.736-6.167 36.674-19.208 50.511-15.089 16.01-37.313 25.058-61.323 25.059zm-68.173-68.493a18.6 18.6 0 0 0-1.579.068 17.877 17.877 0 0 0-12.227 6.348c-6.388 7.596-5.406 18.973 2.19 25.361 20.393 17.151 42.7 28.041 64.51 31.492 4.2.665 8.437 1.063 12.592 1.185 23.942.695 46.208-7.961 61.1-23.763 12.302-13.054 18.738-29.969 18.122-47.628-.648-18.538-8.915-36.699-23.907-52.521-6.315-6.665-13.5-11.917-21.353-15.609-8.981-4.222-19.725-.35-23.948 8.631-4.223 8.982-.35 19.725 8.632 23.948 3.776 1.775 7.321 4.397 10.538 7.792 19.775 20.869 15.92 39.871 5.718 50.697-7.844 8.323-20.186 12.866-33.849 12.468-12.364-.363-31.939-4.863-54.982-24.243a17.867 17.867 0 0 0-11.555-4.226z"
                  fill="#0b122d"/>
            <path d="M122.327 113.69c-20.549-9.658-44.471-8.062-60.946 4.067-12.165 8.957-18.28 22.577-16.356 36.431 1.862 13.413 11.783 32.289 48.466 46.045a79.19 79.19 0 0 0 15.445 4.081c26.468 4.188 53.507-5.468 72.044-26.628 23.332-26.634 27.439-64.373 10.462-96.144-3.217-6.019-6.908-11.472-10.974-16.209-7.195-8.382-19.821-9.344-28.202-2.15s-9.344 19.82-2.15 28.202c2.168 2.527 4.203 5.557 6.047 9.008 10.992 20.571 4.485 39.799-5.271 50.935-11.441 13.061-27.649 17.341-43.356 11.451-13.866-5.2-20.642-10.04-22.136-13.059-2.554-5.161 9.455-5.223 19.912.169"
                  fill="#EE83F9"/>
            <path d="M121.134 207.276c-4.154 0-8.332-.324-12.51-.986a81.375 81.375 0 0 1-15.834-4.184c-37.605-14.101-47.807-33.691-49.744-47.642-2.027-14.593 4.385-28.917 17.151-38.317 17.056-12.558 41.778-14.233 62.982-4.267a2 2 0 1 1-1.702 3.62c-19.896-9.351-43.018-7.832-58.909 3.868-11.565 8.515-17.382 21.429-15.561 34.545 1.788 12.875 11.425 31.037 47.187 44.447a77.438 77.438 0 0 0 15.055 3.979c26.109 4.132 52.363-5.577 70.228-25.971 22.779-26.002 26.783-62.854 10.202-93.884-3.149-5.892-6.758-11.224-10.728-15.849-6.465-7.531-17.851-8.399-25.382-1.935s-8.399 17.85-1.935 25.382c2.263 2.637 4.38 5.789 6.293 9.368 11.472 21.47 4.666 41.557-5.53 53.196-12.011 13.711-29.043 18.2-45.563 12.006-12.701-4.763-21.167-9.882-23.227-14.045-.918-1.855-.695-3.656.612-4.941 3.552-3.493 14.248-1.555 22.009 2.446a2 2 0 1 1-1.833 3.555c-8.368-4.314-16.205-4.334-17.336-3.19.012.063.045.179.133.356 1.172 2.368 7.387 6.951 21.046 12.074 14.897 5.586 30.28 1.512 41.15-10.896 9.314-10.633 15.522-29.004 5.011-48.675-1.775-3.322-3.727-6.232-5.8-8.648-7.901-9.206-6.84-23.122 2.365-31.023s23.122-6.839 31.022 2.365c4.159 4.845 7.934 10.42 11.22 16.569 17.373 32.512 13.164 71.138-10.721 98.405-15.92 18.173-38.196 28.27-61.351 28.271z"
                  fill="#0b122d"/>
            <path d="M180.468 65.333c-16.997-19.803-41.747-27.474-63.054-19.542-17.042 6.343-28.016 21.453-27.958 38.494.047 13.85 7.395 39.737 56.083 57.486 9.688 3.532 18.54 5.81 26.608 7.087 44.051 6.972 64.849-15.912 72.383-27.532 10.217-15.76 13.821-36.404 10.147-58.13-3.513-20.777-13.335-40.352-27.655-55.12-7.689-7.927-20.351-8.125-28.281-.435-7.929 7.689-8.124 20.351-.435 28.281 19.044 19.64 21.957 49.305 12.66 63.645-4.599 7.093-17.433 17.125-51.726 4.624-23.164-8.445-29.482-17.411-29.746-19.796-.277-2.496 1.357-4.488 3.891-4.71 5.251-.457 11.625 5.75 16.732 11.7"
                  fill="#EE83F9"/>
            <path d="M187.825 152.144c-4.967 0-10.29-.407-15.992-1.309-8.531-1.35-17.609-3.767-26.98-7.184-49.827-18.165-57.349-44.987-57.397-59.359-.06-17.888 11.425-33.736 29.26-40.375 22.102-8.228 47.722-.332 65.27 20.114a2 2 0 0 1-3.035 2.605c-16.445-19.16-40.325-26.607-60.839-18.97-16.247 6.048-26.71 20.419-26.656 36.613.045 13.33 7.221 38.281 54.768 55.614 9.13 3.329 17.957 5.681 26.235 6.991 43.48 6.882 63.712-16.341 70.392-26.644 9.944-15.338 13.443-35.478 9.853-56.709-3.446-20.381-13.077-39.581-27.119-54.062-6.911-7.125-18.329-7.301-25.453-.392-7.125 6.909-7.301 18.327-.392 25.453 19.698 20.314 22.61 51.153 12.903 66.125-4.922 7.592-18.494 18.391-54.09 5.415-21.921-7.992-30.578-17.209-31.049-21.455-.193-1.744.277-3.408 1.325-4.687 1.054-1.287 2.61-2.081 4.379-2.236 4.947-.43 10.8 3.506 18.425 12.39a2 2 0 0 1-3.035 2.605c-6.528-7.606-11.587-11.31-15.041-11.01-.697.061-1.262.333-1.634.786-.365.445-.518 1.037-.443 1.711.273 1.633 6.196 10.027 28.443 18.137 32.992 12.027 45.088 2.761 49.363-3.833 8.887-13.708 5.973-42.199-12.418-61.165-8.445-8.709-8.23-22.664.479-31.109 8.707-8.444 22.663-8.23 31.109.478 14.6 15.057 24.611 35.008 28.191 56.179 3.758 22.221.05 43.371-10.44 59.552-6.221 9.595-23.455 29.728-58.382 29.729z"
                  fill="#0b122d"/>
        </svg>
    </g>
    <g transform="translate(2551.875 1993.125) rotate(-178.17443411295065 141.5625 151.875) scale(2.3013989254041927 2.3008400433277534)">
        <svg width="123.023" height="132.017" viewBox="0 0 123.023 132.017">
            <path d="M10.095 76.03C-11.741 40.622 17.515 2 17.515 2l24.632 27.852s-26.846 48.21 5.225 89.275z"
                  fill="#5C79F6"/>
            <path d="M47.373 121.126a1.999 1.999 0 0 1-1.514-.691L8.583 77.339a2.1 2.1 0 0 1-.19-.259C-13.904 40.925 15.62 1.19 15.921.792a2 2 0 0 1 1.518-.791 2.037 2.037 0 0 1 1.574.674l24.632 27.852c.562.635.661 1.557.25 2.297-.262.472-25.803 47.563 5.053 87.071a2 2 0 0 1-1.575 3.231zM11.714 74.845l23.406 27.06c-6.403-15.955-6.186-31.533-4.363-43.125 2.255-14.339 7.183-25.066 8.979-28.634L17.71 5.239c-5.433 8.272-23.926 40.338-5.995 69.605z"
                  fill="#0b122d"/>
            <path d="M104.14 74.137c-19.57 12.49-68.275 27.426-94.045 1.893 0 0 17.811 25.739 37.277 43.096 0 0 31.44 23.242 73.65 1.818L104.14 74.136z"
                  fill="#5C79F6"/>
            <path d="M85.114 131.944c-23.376 0-38.708-11.046-38.93-11.21a2.228 2.228 0 0 1-.142-.115C26.622 103.304 8.631 77.428 8.451 77.168a1.998 1.998 0 0 1 .36-2.67 1.998 1.998 0 0 1 2.693.111c24.412 24.188 71.68 10.529 91.561-2.158a1.997 1.997 0 0 1 2.958 1.007l16.882 46.808a2 2 0 0 1-.976 2.462c-13.521 6.863-26.025 9.217-36.814 9.217zm-36.489-14.38c1.569 1.105 31.036 21.177 69.911 2.381L103.09 77.121c-9.431 5.518-25.602 12.107-43.413 14.208-11.671 1.374-26.941 1.107-40.122-5.895 6.966 8.999 17.782 22.049 29.07 32.13z"
                  fill="#0b122d"/>
        </svg>
    </g>
    <g transform="translate(808.125 360.0) rotate(75.87826168237288 -141.5625 151.875) scale(-2.3013989254041927 2.3008400433277534)">
        <svg width="123.023" height="132.017" viewBox="0 0 123.023 132.017">
            <path d="M10.095 76.03C-11.741 40.622 17.515 2 17.515 2l24.632 27.852s-26.846 48.21 5.225 89.275z"
                  fill="#EE83F9"/>
            <path d="M47.373 121.126a1.999 1.999 0 0 1-1.514-.691L8.583 77.339a2.1 2.1 0 0 1-.19-.259C-13.904 40.925 15.62 1.19 15.921.792a2 2 0 0 1 1.518-.791 2.037 2.037 0 0 1 1.574.674l24.632 27.852c.562.635.661 1.557.25 2.297-.262.472-25.803 47.563 5.053 87.071a2 2 0 0 1-1.575 3.231zM11.714 74.845l23.406 27.06c-6.403-15.955-6.186-31.533-4.363-43.125 2.255-14.339 7.183-25.066 8.979-28.634L17.71 5.239c-5.433 8.272-23.926 40.338-5.995 69.605z"
                  fill="#0b122d"/>
            <path d="M104.14 74.137c-19.57 12.49-68.275 27.426-94.045 1.893 0 0 17.811 25.739 37.277 43.096 0 0 31.44 23.242 73.65 1.818L104.14 74.136z"
                  fill="#EE83F9"/>
            <path d="M85.114 131.944c-23.376 0-38.708-11.046-38.93-11.21a2.228 2.228 0 0 1-.142-.115C26.622 103.304 8.631 77.428 8.451 77.168a1.998 1.998 0 0 1 .36-2.67 1.998 1.998 0 0 1 2.693.111c24.412 24.188 71.68 10.529 91.561-2.158a1.997 1.997 0 0 1 2.958 1.007l16.882 46.808a2 2 0 0 1-.976 2.462c-13.521 6.863-26.025 9.217-36.814 9.217zm-36.489-14.38c1.569 1.105 31.036 21.177 69.911 2.381L103.09 77.121c-9.431 5.518-25.602 12.107-43.413 14.208-11.671 1.374-26.941 1.107-40.122-5.895 6.966 8.999 17.782 22.049 29.07 32.13z"
                  fill="#0b122d"/>
        </svg>
    </g>
</svg>