<?xml version="1.0" encoding="UTF-8"?><svg id="Layer_1" xmlns="http://www.w3.org/2000/svg" xmlns:xlink="http://www.w3.org/1999/xlink" viewBox="0 0 1024 1024"><defs><style>.cls-1{fill:url(#linear-gradient-2);}.cls-2{opacity:.83;}.cls-2,.cls-3{fill:none;}.cls-3{opacity:.79;}.cls-4{fill:url(#linear-gradient-3);}.cls-5{fill:url(#linear-gradient);}</style><linearGradient id="linear-gradient" x1="287.82" y1="334.12" x2="860.18" y2="788.28" gradientTransform="translate(-87.76 106.32) rotate(-10.93)" gradientUnits="userSpaceOnUse"><stop offset="0" stop-color="#185051"/><stop offset="1" stop-color="#0a3638"/></linearGradient><linearGradient id="linear-gradient-2" x1="122.33" y1="679.82" x2="970.77" y2="314.42" gradientTransform="translate(-63.72 72.87) rotate(-7.67)" gradientUnits="userSpaceOnUse"><stop offset="0" stop-color="#2b8ba5"/><stop offset="1" stop-color="#118e8e"/></linearGradient><linearGradient id="linear-gradient-3" x1="99.31" y1="331.93" x2="999.84" y2="724.9" gradientUnits="userSpaceOnUse"><stop offset="0" stop-color="#55ffd6"/><stop offset="1" stop-color="#15c1ff"/></linearGradient></defs><path class="cls-5" d="m787.18,105.18c5.93,4.01,10.94,8.88,15.02,14.36,9.6,12.99,13.59,29.11,11.41,44.97.02.11,0,.14-.06.3-.49,2.2-.96,4.46-1.35,6.73-.05.21-.1.36-.15.57-2.33,11.7-4.35,23.51-6.06,35.3-.73,5.1-1.47,10.23-2.06,15.32-.2,1.01-.34,2.06-.43,3.1-.57,4.72-1.07,9.49-1.53,14.2-.21,1.44-.38,2.89-.44,4.39-.48,4.88-.89,9.86-1.29,14.69-.09.84-.15,1.71-.12,2.64-.36,5.2-.76,10.37-.98,15.57-.31,5.33-.53,10.67-.63,16.05-.15,5.58-.23,11.21-.23,16.79-.11,7.09-.03,14.16.14,21.25.16,4.64.27,9.35.53,13.97.12,3.85.28,7.78.56,11.74.28,5.3.68,10.58,1.1,15.88-.04.41.04.79.09,1.21.45,5.89,1.02,11.91,1.68,17.85.09,1.06.24,2.12.36,3.21.45,4.41.98,8.93,1.6,13.45.37,3.12.76,6.29,1.28,9.41.68,5.42,1.55,10.84,2.47,16.33,1.1,6.57,2.27,13.23,3.53,19.77s2.65,13.16,4.08,19.66c1.19,5.44,2.43,10.81,3.79,16.08.71,3.11,1.48,6.21,2.32,9.21,1.09,4.46,2.3,8.81,3.52,13.08.27,1.09.55,2.09.86,3.11,1.63,5.78,3.29,11.44,5.08,17.19.14.43.21.81.37,1.15,1.56,5.11,3.18,10.13,4.89,15.15,1.21,3.78,2.53,7.49,3.85,11.11,1.47,4.39,3.12,8.8,4.71,13.16,2.51,6.66,5.06,13.21,7.78,19.78,2.08,5.18,4.25,10.37,6.47,15.5,2.1,4.95,4.29,9.83,6.56,14.66,2.14,4.74,4.41,9.43,6.71,14.09.31.88.71,1.63,1.09,2.41,2.18,4.34,4.41,8.81,6.67,13.15.62,1.42,1.32,2.71,2.04,3.91,2.18,4.19,4.42,8.43,6.71,12.61.45.88,1.01,1.83,1.55,2.72,2.47,4.54,5.04,9,7.61,13.46,5.98,10.3,12.27,20.48,18.76,30.5.12.18.23.3.35.47,1.2,1.96,2.46,3.91,3.76,5.74.05.13.12.18.16.25,7.89,13.89,10.16,30.37,6.14,45.99-1.72,6.57-4.56,12.96-8.6,18.92s-8.88,10.94-14.36,15.02c-12.99,9.6-29.11,13.59-44.97,11.41-.11.02-.14,0-.3-.06-2.2-.49-4.46-.96-6.73-1.35-.21-.05-.36-.1-.57-.15-11.7-2.33-23.51-4.35-35.3-6.06-2.55-.39-5.1-.73-7.67-1.08-3.86-.65-7.74-1.13-11.6-1.49-4.43-.51-8.95-1.04-13.35-1.44-1.33-.23-2.65-.31-4.09-.38-.02-.11-.16-.11-.3-.06-2.44-.27-4.88-.48-7.37-.69-2.44-.27-4.9-.45-7.32-.61-.72-.06-1.46-.17-2.22-.11-2.7-.25-5.45-.49-8.17-.56-2.64-.12-5.15-.29-7.8-.4-10.86-.61-21.9-.87-32.84-.87-2.37-.03-4.76-.02-7.17.02-18.97.02-37.93.8-56.91,2.38-5.89.45-11.91,1.02-17.85,1.68-1.32.11-2.69.23-4.12.51-3.93.3-7.9.81-11.89,1.41-.14,0-.41-.04-.61.06-3.12.37-6.29.76-9.41,1.28-24.1,3.37-48.18,8.05-71.84,13.87-3.11.71-6.21,1.48-9.21,2.32-.23-.01-.49.1-.59.17-3.94.96-7.82,1.97-11.56,3.11-1.43.28-2.75.67-4.01,1.06-5.78,1.63-11.55,3.31-17.19,5.08-18.18,5.56-36.1,11.92-53.71,18.97-2.22.88-4.48,1.75-6.67,2.65-10.15,4.07-20.28,8.44-30.16,13.03-2.38,1.11-4.68,2.18-7.09,3.28-2.49,1.14-4.96,2.33-7.37,3.56-.75.26-1.42.62-2.01.93-2.19,1.05-4.4,2.13-6.57,3.29-2.23,1.11-4.38,2.24-6.58,3.38-.14,0-.27.05-.25.16-1.31.59-2.51,1.17-3.65,1.87-3.91,2.04-7.94,4.18-11.86,6.31-3.45,1.78-6.84,3.68-10.21,5.7-2.26,1.29-4.53,2.53-6.72,3.86-10.3,5.98-20.48,12.27-30.5,18.76-.18.12-.3.23-.47.35-1.96,1.2-3.91,2.46-5.74,3.76-.13.05-.18.12-.25.16-13.89,7.89-30.37,10.16-45.99,6.14-6.57-1.72-12.96-4.56-18.92-8.6s-10.94-8.88-15.02-14.36c-9.6-12.99-13.59-29.11-11.41-44.97-.02-.11,0-.14.06-.3.49-2.2.96-4.46,1.35-6.73.05-.21.1-.36.15-.57,37.02-187.6-.82-383.54-104.98-543.86-.12-.18-.23-.3-.35-.47-1.2-1.96-2.46-3.91-3.76-5.74-.05-.13-.12-.18-.16-.25-7.89-13.89-10.16-30.37-6.14-45.99,1.72-6.57,4.56-12.96,8.6-18.92,4.03-5.96,8.88-10.94,14.36-15.02,12.99-9.6,29.11-13.59,44.97-11.41.11-.02.14,0,.3.06,2.2.49,4.46.96,6.73,1.35.21.05.36.1.57.15,187.6,37.02,383.54-.82,543.86-104.98.18-.12.3-.23.47-.35,1.96-1.2,3.91-2.46,5.74-3.76.13-.05.18-.12.25-.16,13.89-7.89,30.37-10.16,45.99-6.14,6.57,1.72,12.96,4.56,18.92,8.6l-.1.08Z"/><g class="cls-2"><path class="cls-1" d="m941.72,274.17c3.47,6.26,5.73,12.88,6.88,19.61,2.67,15.93-1.08,32.11-10.22,45.26-.03.11-.07.13-.18.24-1.43,1.74-2.88,3.54-4.25,5.38-.13.17-.25.28-.39.44-7.38,9.37-14.54,18.99-21.41,28.71-2.96,4.21-5.95,8.45-8.78,12.73-.64.81-1.24,1.68-1.79,2.57-2.65,3.95-5.26,7.97-7.8,11.96-.84,1.19-1.65,2.41-2.38,3.71-2.64,4.13-5.26,8.38-7.82,12.51-.47.71-.91,1.45-1.3,2.3-2.68,4.47-5.38,8.9-7.94,13.43-2.69,4.61-5.31,9.27-7.84,14.01-2.66,4.91-5.29,9.89-7.82,14.86-3.31,6.26-6.45,12.61-9.51,19.01-1.97,4.21-4,8.45-5.86,12.69-1.64,3.49-3.28,7.06-4.83,10.72-2.15,4.85-4.2,9.74-6.22,14.65-.22.35-.32.72-.47,1.12-2.27,5.46-4.49,11.08-6.6,16.67-.4.99-.75,2-1.13,3.02-1.6,4.14-3.17,8.4-4.67,12.71-1.08,2.95-2.18,5.95-3.13,8.97-1.86,5.14-3.53,10.36-5.2,15.67-2,6.35-3.98,12.83-5.82,19.22-1.84,6.4-3.6,12.93-5.28,19.38-1.4,5.39-2.74,10.74-3.91,16.05-.77,3.1-1.49,6.21-2.11,9.26-1.05,4.47-1.95,8.9-2.79,13.25-.26,1.09-.46,2.11-.65,3.16-1.17,5.89-2.25,11.69-3.26,17.63-.07.45-.18.82-.2,1.19-.93,5.26-1.76,10.47-2.51,15.72-.63,3.92-1.14,7.82-1.6,11.65-.68,4.58-1.21,9.26-1.77,13.87-.78,7.08-1.48,14.07-2.04,21.15-.49,5.56-.91,11.17-1.26,16.75-.38,5.36-.63,10.7-.8,16.04-.24,5.2-.34,10.41-.41,15.6-.12.93-.1,1.77-.12,2.64-.03,4.85-.07,9.85-.02,14.75-.09,1.54-.05,3.01.04,4.41.04,4.73.12,9.52.26,14.28,0,.99.07,2.09.15,3.13.15,5.16.41,10.3.68,15.45.66,11.89,1.65,23.81,2.89,35.7.03.21.07.37.1.58.18,2.29.42,4.6.75,6.82-.01.14.03.21.03.3.74,15.96-4.71,31.68-15.38,43.77-4.51,5.08-9.94,9.48-16.24,12.97-6.3,3.49-12.88,5.73-19.61,6.88-15.93,2.67-32.11-1.08-45.26-10.22-.11-.03-.13-.07-.24-.18-1.74-1.43-3.54-2.88-5.38-4.25-.16-.13-.28-.25-.44-.39-9.37-7.38-18.99-14.54-28.71-21.41-2.1-1.51-4.21-2.96-6.35-4.44-3.14-2.33-6.39-4.51-9.66-6.59-3.71-2.46-7.5-4.98-11.25-7.34-1.08-.8-2.22-1.48-3.47-2.19.03-.11-.1-.17-.24-.18-2.06-1.35-4.13-2.64-6.26-3.95-2.06-1.35-4.16-2.62-6.25-3.86-.62-.38-1.22-.82-1.92-1.11-2.29-1.44-4.64-2.9-7.03-4.2-2.3-1.3-4.46-2.59-6.77-3.9-9.4-5.47-19.13-10.71-28.88-15.66-2.1-1.1-4.23-2.18-6.4-3.24-16.91-8.59-34.17-16.49-51.8-23.68-5.46-2.27-11.08-4.49-16.67-6.6-1.22-.5-2.5-1.01-3.9-1.41-3.64-1.51-7.41-2.86-11.24-4.13-.13-.07-.35-.22-.58-.22-2.95-1.08-5.95-2.18-8.97-3.13-23.01-7.92-46.59-14.67-70.32-20.21-3.1-.77-6.21-1.49-9.26-2.11-.2-.12-.48-.14-.61-.12-3.95-.93-7.87-1.8-11.72-2.47-1.4-.4-2.75-.65-4.06-.87-5.89-1.17-11.8-2.29-17.63-3.26-18.73-3.29-37.58-5.74-56.47-7.44-2.38-.22-4.78-.47-7.14-.66-10.89-.98-21.9-1.67-32.79-2.06-2.62-.08-5.16-.17-7.8-.29-2.73-.12-5.48-.18-8.19-.17-.78-.11-1.54-.09-2.22-.08-2.43-.06-4.89-.1-7.35-.05-2.5-.02-4.92.01-7.4.03-.13-.07-.27-.08-.3.03-1.44-.06-2.77-.1-4.11.01-4.41.04-8.97.13-13.43.24-3.88.02-7.76.18-11.68.45-2.6.13-5.18.2-7.74.39-11.89.66-23.81,1.65-35.7,2.89-.21.03-.37.07-.58.1-2.29.18-4.6.42-6.82.75-.14-.01-.21.03-.3.03-15.96.74-31.68-4.71-43.77-15.38-5.08-4.51-9.48-9.94-12.97-16.24-3.49-6.3-5.73-12.88-6.88-19.61-2.67-15.93,1.08-32.11,10.22-45.26.03-.11.07-.13.18-.24,1.43-1.74,2.88-3.54,4.25-5.38.13-.16.25-.28.39-.44,118.06-150.42,173.17-342.22,153.03-532.34-.03-.21-.07-.37-.1-.58-.18-2.29-.42-4.6-.75-6.82.01-.14-.03-.21-.03-.3-.74-15.96,4.71-31.68,15.38-43.77,4.51-5.08,9.94-9.48,16.24-12.97s12.88-5.73,19.61-6.88c15.93-2.67,32.11,1.08,45.26,10.22.11.03.13.07.24.18,1.74,1.43,3.54,2.88,5.38,4.25.17.13.28.25.44.39,150.42,118.06,342.22,173.17,532.34,153.03.21-.03.37-.07.58-.1,2.29-.18,4.6-.42,6.82-.75.14.01.21-.03.3-.03,15.96-.74,31.68,4.71,43.77,15.38,5.08,4.51,9.48,9.94,12.97,16.24l-.12.02Z"/></g><g class="cls-3"><path class="cls-4" d="m1003.15,512c0,7.16-1.23,14.04-3.48,20.49-5.38,15.23-16.49,27.57-30.85,34.65-.08.08-.12.08-.28.12-2.1.83-4.23,1.7-6.33,2.65-.2.08-.36.12-.55.2-11,4.63-21.91,9.57-32.63,14.75-4.63,2.25-9.3,4.51-13.84,6.88-.95.4-1.9.87-2.81,1.38-4.23,2.18-8.46,4.43-12.62,6.68-1.31.63-2.61,1.31-3.88,2.1-4.31,2.33-8.66,4.79-12.89,7.16-.75.4-1.5.83-2.25,1.38-4.51,2.61-9.02,5.18-13.45,7.91-4.59,2.73-9.14,5.54-13.65,8.46-4.71,3.01-9.41,6.09-14.04,9.22-5.93,3.88-11.75,7.91-17.52,12.02-3.76,2.73-7.59,5.46-11.27,8.27-3.12,2.25-6.29,4.59-9.41,7.04-4.23,3.2-8.39,6.49-12.54,9.81-.36.2-.63.47-.95.75-4.63,3.68-9.3,7.52-13.84,11.39-.83.67-1.62,1.38-2.45,2.1-3.4,2.85-6.84,5.81-10.24,8.86-2.37,2.06-4.79,4.15-7.08,6.33-4.11,3.6-8.11,7.36-12.14,11.19-4.83,4.59-9.69,9.3-14.4,14-4.71,4.71-9.41,9.57-14,14.4-3.84,4.03-7.59,8.07-11.19,12.14-2.18,2.33-4.31,4.71-6.33,7.08-3.09,3.4-6.01,6.84-8.86,10.24-.75.83-1.42,1.62-2.1,2.45-3.88,4.59-7.63,9.14-11.39,13.84-.28.36-.55.63-.75.95-3.36,4.15-6.61,8.31-9.81,12.54-2.45,3.12-4.79,6.29-7.04,9.41-2.81,3.68-5.54,7.52-8.27,11.27-4.11,5.81-8.11,11.59-12.02,17.52-3.12,4.63-6.21,9.33-9.22,14.04-2.93,4.51-5.74,9.06-8.46,13.65-2.73,4.43-5.34,8.94-7.91,13.45-.55.75-.95,1.5-1.38,2.25-2.37,4.23-4.83,8.58-7.16,12.89-.83,1.31-1.5,2.61-2.1,3.88-2.25,4.15-4.51,8.39-6.68,12.62-.47.87-.95,1.86-1.38,2.81-2.37,4.59-4.63,9.22-6.88,13.84-5.18,10.72-10.09,21.64-14.75,32.63-.08.2-.12.36-.2.55-.95,2.1-1.86,4.23-2.65,6.33-.08.12-.08.2-.12.28-7.08,14.32-19.46,25.43-34.65,30.85-6.41,2.25-13.29,3.48-20.49,3.48s-14.04-1.23-20.49-3.48c-15.23-5.38-27.57-16.49-34.65-30.85-.08-.08-.08-.12-.12-.28-.83-2.1-1.7-4.23-2.65-6.33-.08-.2-.12-.36-.2-.55-4.63-11-9.57-21.91-14.75-32.63-1.11-2.33-2.25-4.63-3.4-6.96-1.62-3.56-3.4-7.04-5.26-10.44-2.06-3.96-4.15-7.99-6.29-11.87-.55-1.23-1.23-2.37-1.98-3.6.08-.08,0-.2-.12-.28-1.15-2.18-2.33-4.31-3.56-6.49-1.15-2.18-2.37-4.31-3.6-6.41-.36-.63-.67-1.31-1.15-1.9-1.31-2.37-2.65-4.79-4.11-7.08-1.38-2.25-2.65-4.43-4.03-6.68-5.58-9.33-11.55-18.63-17.68-27.69-1.31-1.98-2.65-3.96-4.03-5.93-10.64-15.7-21.91-30.97-33.86-45.8-3.68-4.63-7.52-9.3-11.39-13.84-.83-1.03-1.7-2.1-2.73-3.12-2.45-3.09-5.1-6.09-7.83-9.06-.08-.12-.2-.36-.4-.47-2.06-2.37-4.15-4.79-6.33-7.08-16.3-18.08-33.66-35.4-51.74-51.74-2.33-2.18-4.71-4.31-7.08-6.33-.12-.2-.36-.36-.47-.4-3.01-2.73-6.01-5.38-9.06-7.83-1.03-1.03-2.1-1.9-3.12-2.73-4.59-3.88-9.22-7.71-13.84-11.39-14.79-11.95-30.1-23.22-45.8-33.86-1.98-1.34-3.96-2.73-5.93-4.03-9.06-6.13-18.35-12.06-27.69-17.68-2.25-1.34-4.43-2.65-6.68-4.03-2.33-1.42-4.71-2.81-7.08-4.11-.63-.47-1.31-.83-1.9-1.15-2.1-1.23-4.23-2.45-6.41-3.6-2.18-1.23-4.31-2.37-6.49-3.56-.08-.12-.2-.2-.28-.12-1.23-.75-2.37-1.42-3.6-1.98-3.88-2.1-7.91-4.23-11.87-6.29-3.4-1.86-6.88-3.6-10.44-5.26-2.33-1.15-4.63-2.33-6.96-3.4-10.72-5.18-21.64-10.09-32.63-14.75-.2-.08-.36-.12-.55-.2-2.1-.95-4.23-1.86-6.33-2.65-.12-.08-.2-.08-.28-.12-14.32-7.08-25.43-19.46-30.85-34.65-2.25-6.41-3.48-13.29-3.48-20.49s1.23-14.04,3.48-20.49c5.38-15.23,16.49-27.57,30.85-34.65.08-.08.12-.08.28-.12,2.1-.83,4.23-1.7,6.33-2.65.2-.08.36-.12.55-.2C238.36,379.49,379.45,238.36,453.89,62.27c.08-.2.12-.36.2-.55.95-2.1,1.86-4.23,2.65-6.33.08-.12.08-.2.12-.28,7.08-14.32,19.46-25.43,34.65-30.85,6.41-2.25,13.29-3.48,20.49-3.48s14.04,1.23,20.49,3.48c15.23,5.38,27.57,16.49,34.65,30.85.08.08.08.12.12.28.83,2.1,1.7,4.23,2.65,6.33.08.2.12.36.2.55,74.44,176.14,215.57,317.23,391.67,391.67.2.08.36.12.55.2,2.1.95,4.23,1.86,6.33,2.65.12.08.2.08.28.12,14.32,7.08,25.43,19.46,30.85,34.65,2.25,6.41,3.48,13.29,3.48,20.49l-.12-.04Z"/></g></svg>