<?xml version="1.0" encoding="UTF-8"?><svg id="uuid-6ec82ffe-8b5e-44a0-a132-2ee34f4aa191" xmlns="http://www.w3.org/2000/svg" xmlns:xlink="http://www.w3.org/1999/xlink" viewBox="0 0 24 24"><defs><linearGradient id="uuid-342d5d98-4ca0-423a-8e75-abcbf8ddf712" x1="7.86" y1="16.96" x2="20.79" y2="1.45" gradientUnits="userSpaceOnUse"><stop offset="0" stop-color="#5eead4"/><stop offset="1" stop-color="#d688ff"/></linearGradient><linearGradient id="uuid-f9613e03-8fc3-4704-80c4-cbe5be8f06e2" x1="7.61" y1="11.96" x2="16.39" y2="11.96" gradientUnits="userSpaceOnUse"><stop offset="0" stop-color="#2a4943"/><stop offset="1" stop-color="#3f3f25"/></linearGradient></defs><path d="M11.03,2.48c.18-.35.53-.61.97-.61s.79.26.97.61l1.05,2.28c.26.61,1.05.97,1.76.7l2.28-.88c.35-.18.79-.09,1.05.26.26.26.35.7.26,1.14l-.88,2.28c-.26.7.09,1.49.7,1.76l2.28,1.05c.35.18.61.53.61.97s-.26.79-.61.97l-2.28,1.05c-.61.26-.97,1.05-.7,1.76l.88,2.28c.18.35.09.79-.26,1.05-.26.26-.7.35-1.05.26l-2.28-.88c-.7-.26-1.49.09-1.76.7l-1.05,2.28c-.18.35-.53.61-.97.61s-.79-.26-.97-.61l-1.05-2.28c-.26-.61-1.05-.97-1.76-.7l-2.28.88c-.35.18-.79.09-1.05-.26s-.35-.7-.26-1.05l.88-2.28c.26-.7-.09-1.49-.7-1.76l-2.28-1.05c-.35-.18-.61-.53-.61-.97s.26-.79.61-.97l2.28-1.05c.61-.26.97-1.05.7-1.76l-.88-2.28c-.18-.44-.09-.88.26-1.14.26-.26.7-.35,1.05-.26l2.28.88c.7.26,1.49-.09,1.76-.7l1.05-2.28Z" style="fill:url(#uuid-342d5d98-4ca0-423a-8e75-abcbf8ddf712); fill-rule:evenodd; isolation:isolate;"/><path d="M16.39,11.96c0,2.46-1.93,4.39-4.39,4.39s-4.39-1.93-4.39-4.39,1.93-4.39,4.39-4.39,4.39,1.93,4.39,4.39" style="fill:url(#uuid-f9613e03-8fc3-4704-80c4-cbe5be8f06e2); fill-rule:evenodd;"/></svg>