<?xml version="1.0" encoding="UTF-8"?><svg id="uuid-1246bc6b-09c7-48a0-bfb2-f25dc86b5eae" xmlns="http://www.w3.org/2000/svg" viewBox="0 0 556.56 478.8"><g id="uuid-cb8b1eaa-5f7d-4637-99d7-81ee8e30f80e"><path d="M387.72,193.26L272.53,9.6c-4.19-6.68-13.39-7.96-19.24-2.68L43.15,196.55c-5.67,5.12-6.8,13.6-2.65,20.02,1.43,2.21,3.03,4.7,4.74,7.36-6.75,5.79-17.46,16.57-13.13,23.47,6.16,9.82,28.3,57.5,44.48,47.11,2.26-1.47,6.15-3.39,10.2-5.26,8.4,10.36,14.89,13.16,21.11,11.32,4.1,26.46,82.72,74.71,96.4,79.01,13.69,4.3,28.64-4.99,14.5-17.57-15.57-10.14-35.18-43.72-43.91-59.65-2.46-4.5-.4-10.14,4.39-12l202.28-78.53c7.42-2.88,10.39-11.81,6.15-18.56Z" style="fill:#fcce1a; stroke-width:0px;"/><path d="M240.9,87.69c-8.53,0-15.46-6.94-15.46-15.46s6.94-15.46,15.46-15.46,15.46,6.94,15.46,15.46-6.94,15.46-15.46,15.46ZM240.9,62.26c-5.5,0-9.97,4.47-9.97,9.97s4.47,9.97,9.97,9.97,9.97-4.47,9.97-9.97-4.47-9.97-9.97-9.97Z" style="fill:#231f20; stroke-width:0px;"/><path d="M357.19,478.8c-5.84,0-10.59-4.75-10.59-10.59s4.75-10.59,10.59-10.59,10.59,4.75,10.59,10.59-4.75,10.59-10.59,10.59ZM357.19,463.11c-2.81,0-5.1,2.29-5.1,5.1s2.29,5.1,5.1,5.1,5.1-2.29,5.1-5.1-2.29-5.1-5.1-5.1Z" style="fill:#231f20; stroke-width:0px;"/><path d="M50.24,206.11c-.7,0-1.41-.27-1.94-.8-1.07-1.07-1.07-2.81,0-3.88l9.4-9.4c1.41-1.41,3.88-1.41,5.29,0l7.19,7.19,8.34-8.34c1.46-1.46,3.83-1.46,5.29,0l8.34,8.34,8.72-8.72c1.41-1.41,3.88-1.41,5.29,0l8.34,8.34,8.08-8.08c1.07-1.07,2.81-1.07,3.88,0,1.07,1.07,1.07,2.81,0,3.88l-9.32,9.32c-1.41,1.41-3.88,1.41-5.29,0l-8.34-8.34-8.72,8.72c-1.41,1.41-3.88,1.41-5.29,0l-8.34-8.34-8.34,8.34c-1.41,1.41-3.88,1.41-5.29,0l-7.19-7.19-8.16,8.16c-.54.54-1.24.8-1.94.8Z" style="fill:#fff; stroke-width:0px;"/><path d="M412.66,250.88c-.7,0-1.4-.27-1.94-.8-1.07-1.07-1.07-2.81,0-3.88l9.4-9.4c1.41-1.41,3.88-1.41,5.29,0l7.19,7.19,8.34-8.34c1.41-1.41,3.88-1.41,5.29,0l8.34,8.34,8.72-8.72c1.41-1.41,3.88-1.42,5.29,0l8.34,8.34,8.08-8.08c1.07-1.07,2.81-1.07,3.88,0,1.07,1.07,1.07,2.81,0,3.88l-9.32,9.32c-1.41,1.42-3.88,1.41-5.29,0l-8.34-8.34-8.72,8.72c-1.41,1.41-3.88,1.41-5.29,0l-8.34-8.34-8.34,8.34c-1.41,1.41-3.88,1.41-5.29,0l-7.19-7.19-8.16,8.16c-.54.54-1.24.8-1.94.8ZM424,240.68h0s0,0,0,0Z" style="fill:#231f20; stroke-width:0px;"/><path d="M479.54,369.88c-.7,0-1.4-.27-1.94-.8-1.07-1.07-1.07-2.81,0-3.88l9.4-9.4c1.46-1.46,3.83-1.46,5.29,0l7.19,7.19,8.34-8.34c1.46-1.46,3.83-1.46,5.29,0l8.34,8.34,8.72-8.72c1.46-1.46,3.83-1.46,5.29,0l8.34,8.34,8.08-8.08c1.07-1.07,2.81-1.07,3.88,0,1.07,1.07,1.07,2.81,0,3.88l-9.32,9.32c-1.41,1.42-3.88,1.41-5.29,0l-8.34-8.34-8.72,8.72c-1.46,1.46-3.83,1.46-5.29,0l-8.34-8.34-8.34,8.34c-1.41,1.41-3.88,1.41-5.29,0l-7.19-7.19-8.16,8.16c-.54.54-1.24.8-1.94.8Z" style="fill:#fcce1a; stroke-width:0px;"/><path d="M99.09,308.72c-5.77,0-11.35-2.92-14.54-8.01l-60.11-95.84c-4.29-6.84-3.17-15.86,2.65-21.44l.12-.11L221.88,7.26c3.73-3.54,8.78-5.2,13.88-4.57,5.13.63,9.65,3.51,12.4,7.89l108.7,173.32c2.75,4.38,3.37,9.7,1.71,14.6-1.65,4.87-5.35,8.69-10.16,10.51l-243.4,98.66c-1.93.72-3.93,1.06-5.91,1.06ZM34.65,191.4c-2.04,2.01-2.42,5.21-.9,7.64l60.11,95.84c1.52,2.43,4.57,3.48,7.27,2.51l243.38-98.65c1.74-.65,3.07-2.02,3.67-3.78.6-1.75.37-3.66-.61-5.23L238.86,16.41c-.98-1.57-2.6-2.6-4.44-2.83-1.84-.23-3.66.38-5,1.66l-.12.11L34.65,191.4Z" style="fill:#231f20; stroke-width:0px;"/><path d="M69.03,301.26c-5.78,0-11.43-2.88-14.72-8.12l-35.75-57.01c-5.08-8.1-2.62-18.82,5.48-23.9l12.91-8.09,54.18,86.38-12.91,8.09c-2.86,1.79-6.04,2.65-9.18,2.65ZM33.48,219.28l-3.6,2.26c-2.97,1.86-3.87,5.79-2.01,8.76l35.75,57.01c.9,1.44,2.31,2.44,3.97,2.82,1.65.38,3.36.09,4.8-.81l3.6-2.26-42.51-67.78Z" style="fill:#231f20; stroke-width:0px;"/><path d="M210.68,387c-3.29,0-6.58-.96-9.43-2.86l-71.53-47.9c-6.78-4.54-12.42-10.35-16.76-17.27l-8.89-14.17,9.3-5.84,8.89,14.17c3.51,5.6,8.07,10.3,13.56,13.98l71.53,47.9c1.95,1.31,4.49,1.34,6.48.1,1.54-.97,2.54-2.55,2.75-4.36.21-1.81-.41-3.59-1.69-4.89-22.35-22.61-58.63-64.39-50.45-90.25l10.47,3.31c-5.46,17.27,22.33,53.47,47.79,79.22,3.64,3.68,5.38,8.74,4.79,13.87-.6,5.13-3.45,9.65-7.83,12.39-2.75,1.72-5.88,2.59-9,2.59Z" style="fill:#231f20; stroke-width:0px;"/><path d="M412.67,158.83c-.06,0-.11,0-.17,0l-36.09-1.1c-3.03-.09-5.41-2.62-5.32-5.66.09-3.03,2.66-5.42,5.65-5.32l36.09,1.1c3.03.09,5.41,2.62,5.32,5.66-.09,2.97-2.53,5.32-5.49,5.32Z" style="fill:#231f20; stroke-width:0px;"/><path d="M371.12,120.55c-2.37,0-4.55-1.55-5.26-3.93-.86-2.91.8-5.96,3.71-6.82l34.62-10.26c2.91-.86,5.96.8,6.82,3.7.86,2.91-.8,5.96-3.71,6.82l-34.62,10.26c-.52.15-1.05.23-1.56.23Z" style="fill:#231f20; stroke-width:0px;"/><path d="M356.12,87.02c-1.86,0-3.68-.95-4.71-2.66-1.56-2.6-.72-5.97,1.88-7.53l30.94-18.61c2.6-1.56,5.97-.72,7.54,1.88,1.56,2.6.72,5.97-1.88,7.54l-30.94,18.61c-.88.53-1.86.79-2.82.79Z" style="fill:#231f20; stroke-width:0px;"/><path d="M332.15,61.29c-1.37,0-2.74-.51-3.81-1.53-2.18-2.1-2.25-5.58-.15-7.76l25.04-26.01c2.1-2.18,5.58-2.25,7.76-.15,2.18,2.1,2.25,5.58.15,7.76l-25.04,26.01c-1.08,1.12-2.52,1.68-3.96,1.68Z" style="fill:#231f20; stroke-width:0px;"/><path d="M306.19,42.87c-.87,0-1.75-.21-2.57-.64-2.68-1.42-3.7-4.75-2.27-7.42l16.93-31.89c1.42-2.68,4.75-3.7,7.42-2.27,2.68,1.42,3.7,4.75,2.27,7.42l-16.93,31.89c-.99,1.86-2.89,2.92-4.85,2.92Z" style="fill:#231f20; stroke-width:0px;"/><path d="M10.92,332.14c-6.02,0-10.92-4.9-10.92-10.92s4.9-10.92,10.92-10.92,10.92,4.9,10.92,10.92-4.9,10.92-10.92,10.92ZM10.92,315.79c-2.99,0-5.43,2.44-5.43,5.43s2.43,5.43,5.43,5.43,5.43-2.44,5.43-5.43-2.44-5.43-5.43-5.43Z" style="fill:#fcce1a; stroke-width:0px;"/><path d="M322.96,203.27c-1.08,0-2.11-.64-2.54-1.71-.57-1.4.1-3.01,1.5-3.58l15.05-6.15c1.41-.57,3.01.1,3.58,1.5.57,1.4-.1,3.01-1.5,3.58l-15.05,6.15c-.34.14-.69.2-1.04.2Z" style="fill:#231f20; stroke-width:0px;"/><path d="M207.84,250.33c-1.08,0-2.11-.64-2.54-1.71-.57-1.4.1-3.01,1.5-3.58l100.22-40.97c1.41-.58,3.01.1,3.58,1.5.57,1.4-.1,3.01-1.5,3.58l-100.22,40.97c-.34.14-.69.21-1.04.21Z" style="fill:#231f20; stroke-width:0px;"/><path d="M195.12,255.53c-1.08,0-2.11-.64-2.54-1.71-.57-1.4.1-3.01,1.5-3.58l7.67-3.13c1.41-.58,3.01.1,3.58,1.5.57,1.4-.1,3.01-1.5,3.58l-7.67,3.13c-.34.14-.69.2-1.04.2Z" style="fill:#231f20; stroke-width:0px;"/><path d="M37.27,116.67c-1.52,0-2.75-1.23-2.75-2.75v-11.45c0-1.52,1.23-2.75,2.75-2.75s2.75,1.23,2.75,2.75v11.45c0,1.52-1.23,2.75-2.75,2.75Z" style="fill:#231f20; stroke-width:0px;"/><path d="M37.27,137.11c-1.52,0-2.75-1.23-2.75-2.75v-11.45c0-1.52,1.23-2.75,2.75-2.75s2.75,1.23,2.75,2.75v11.45c0,1.52-1.23,2.75-2.75,2.75Z" style="fill:#231f20; stroke-width:0px;"/><path d="M53.21,121.16h-11.45c-1.52,0-2.75-1.23-2.75-2.75s1.23-2.75,2.75-2.75h11.45c1.52,0,2.75,1.23,2.75,2.75s-1.23,2.75-2.75,2.75Z" style="fill:#231f20; stroke-width:0px;"/><path d="M32.78,121.16h-11.45c-1.52,0-2.75-1.23-2.75-2.75s1.23-2.75,2.75-2.75h11.45c1.52,0,2.75,1.23,2.75,2.75s-1.23,2.75-2.75,2.75Z" style="fill:#231f20; stroke-width:0px;"/><path d="M140.1,385.37h-19.35c-1.78,0-3.37-.92-4.26-2.46-.89-1.54-.89-3.38,0-4.92l9.68-16.76c.89-1.54,2.48-2.46,4.26-2.46s3.37.92,4.26,2.46l9.67,16.76c.89,1.54.89,3.38,0,4.92-.89,1.54-2.48,2.46-4.26,2.46ZM121.74,379.88h17.37l-8.68-15.04-8.68,15.04ZM128.54,362.61h.01-.01Z" style="fill:#231f20; stroke-width:0px;"/><path d="M307.67,280.33c14.23,0,20.64,10.14,20.64,20.28s-6.41,20.19-20.64,20.19h-11.3v20.82h-13.97v-61.29h25.26ZM307.04,308.62c5.25,0,7.21-4.09,7.21-8.01s-1.96-8.1-7.12-8.1h-10.76v16.1h10.67Z" style="fill:#fcce1a; stroke-width:0px;"/><path d="M368.43,341.63l-14.06-21.53h-2.85v21.53h-13.97v-61.29h25.09c14.23,0,20.64,10.14,20.64,20.28,0,8.63-6.41,16.9-14.32,18.68l15.75,22.33h-16.28ZM351.52,292.52v16.55h8.9c6.14,0,8.81-4,8.81-8.1s-2.76-8.45-8.45-8.45h-9.25Z" style="fill:#fcce1a; stroke-width:0px;"/><path d="M390.76,310.93c0-17.35,13.79-31.67,31.31-31.67s31.22,14.32,31.22,31.67-13.97,31.76-31.22,31.76-31.31-14.41-31.31-31.76ZM439.24,310.93c0-10.23-7.03-18.5-17.26-18.5s-17.17,8.27-17.17,18.5,6.85,18.59,17.17,18.59,17.26-8.36,17.26-18.59Z" style="fill:#fcce1a; stroke-width:0px;"/><path d="M323.5,358.3v12.19h-16.19v49.11h-13.97v-49.11h-16.19v-12.19h46.35Z" style="fill:#fcce1a; stroke-width:0px;"/><path d="M332.31,419.59v-61.29h13.97v61.29h-13.97Z" style="fill:#fcce1a; stroke-width:0px;"/><path d="M385.68,358.3c14.23,0,20.64,10.14,20.64,20.28s-6.41,20.19-20.64,20.19h-11.3v20.82h-13.97v-61.29h25.26ZM385.06,386.58c5.25,0,7.21-4.09,7.21-8.01s-1.96-8.1-7.12-8.1h-10.76v16.1h10.67Z" style="fill:#fcce1a; stroke-width:0px;"/><path d="M302.8,277.67c14.23,0,20.64,10.14,20.64,20.28s-6.41,20.19-20.64,20.19h-11.3v20.82h-13.97v-61.29h25.27ZM302.18,305.96c5.25,0,7.21-4.09,7.21-8.01s-1.96-8.1-7.12-8.1h-10.76v16.1h10.67Z" style="fill:#231f20; stroke-width:0px;"/><path d="M363.56,338.96l-14.06-21.53h-2.85v21.53h-13.97v-61.29h25.09c14.23,0,20.64,10.14,20.64,20.28,0,8.63-6.41,16.9-14.32,18.68l15.75,22.33h-16.28ZM346.66,289.85v16.55h8.9c6.14,0,8.81-4,8.81-8.1s-2.76-8.45-8.45-8.45h-9.25Z" style="fill:#231f20; stroke-width:0px;"/><path d="M385.9,308.27c0-17.35,13.79-31.67,31.31-31.67s31.22,14.32,31.22,31.67-13.97,31.76-31.22,31.76-31.31-14.41-31.31-31.76ZM434.38,308.27c0-10.23-7.03-18.5-17.26-18.5s-17.17,8.27-17.17,18.5,6.85,18.59,17.17,18.59,17.26-8.36,17.26-18.59Z" style="fill:#231f20; stroke-width:0px;"/><path d="M318.64,355.63v12.19h-16.19v49.11h-13.97v-49.11h-16.19v-12.19h46.35Z" style="fill:#231f20; stroke-width:0px;"/><path d="M327.45,416.92v-61.29h13.97v61.29h-13.97Z" style="fill:#231f20; stroke-width:0px;"/><path d="M380.82,355.63c14.23,0,20.64,10.14,20.64,20.28s-6.41,20.19-20.64,20.19h-11.3v20.82h-13.97v-61.29h25.26ZM380.2,383.92c5.25,0,7.21-4.09,7.21-8.01s-1.96-8.1-7.12-8.1h-10.76v16.1h10.67Z" style="fill:#231f20; stroke-width:0px;"/></g></svg>