<?xml version="1.0" encoding="UTF-8"?><svg id="Layer_1" xmlns="http://www.w3.org/2000/svg" xmlns:xlink="http://www.w3.org/1999/xlink" viewBox="0 0 720 810"><defs><style>.cls-1{fill:url(#linear-gradient-2);}.cls-2,.cls-3{fill:#fff;}.cls-4{fill:#fafafa;}.cls-5{fill:#bfbfbf;}.cls-6{filter:url(#drop-shadow-3);}.cls-6,.cls-7,.cls-8,.cls-9{fill:#009688;}.cls-10{fill:#ffeb3b;}.cls-11,.cls-12,.cls-13,.cls-14,.cls-15{stroke-miterlimit:10;stroke-width:2px;}.cls-11,.cls-12,.cls-16,.cls-17,.cls-18{fill:none;}.cls-11,.cls-13,.cls-14,.cls-15{stroke:#2f2f2f;}.cls-3{opacity:.7;}.cls-19{fill:#313131;}.cls-20{fill:#17423c;}.cls-21{fill:#0d0d0d;}.cls-22{fill:#d4d4d4;}.cls-12{stroke:#232323;}.cls-23{fill:#272727;}.cls-13{filter:url(#drop-shadow-6);stroke-linecap:round;}.cls-13,.cls-14,.cls-15,.cls-24{fill:#121212;}.cls-8{filter:url(#drop-shadow-7);}.cls-14{filter:url(#drop-shadow-4);}.cls-15{filter:url(#drop-shadow-2);}.cls-16{opacity:.83;}.cls-9{filter:url(#drop-shadow-5);}.cls-24{filter:url(#drop-shadow-1);}.cls-25{fill:url(#linear-gradient-3);}.cls-26{fill:url(#linear-gradient);}.cls-18{opacity:.79;}.cls-27{fill:#c4c4c4;}</style><filter id="drop-shadow-1" filterUnits="userSpaceOnUse"><feOffset dx="0" dy="0"/><feGaussianBlur result="blur" stdDeviation="20"/><feFlood flood-color="#000" flood-opacity=".2"/><feComposite in2="blur" operator="in"/><feComposite in="SourceGraphic"/></filter><linearGradient id="linear-gradient" x1="150.61" y1="923.6" x2="175.53" y2="903.83" gradientTransform="translate(95.95 1002.56) rotate(-10.93) scale(1 -1)" gradientUnits="userSpaceOnUse"><stop offset="0" stop-color="#185051"/><stop offset="1" stop-color="#0a3638"/></linearGradient><linearGradient id="linear-gradient-2" x1="118.06" y1="890.55" x2="155" y2="906.46" gradientTransform="translate(65.78 980.75) rotate(-7.67) scale(1 -1)" gradientUnits="userSpaceOnUse"><stop offset="0" stop-color="#2b8ba5"/><stop offset="1" stop-color="#118e8e"/></linearGradient><linearGradient id="linear-gradient-3" x1="61.79" y1="857.93" x2="101" y2="840.82" gradientTransform="translate(0 923) scale(1 -1)" gradientUnits="userSpaceOnUse"><stop offset="0" stop-color="#55ffd6"/><stop offset="1" stop-color="#15c1ff"/></linearGradient><filter id="drop-shadow-2" filterUnits="userSpaceOnUse"><feOffset dx="0" dy="10"/><feGaussianBlur result="blur-2" stdDeviation="10"/><feFlood flood-color="#000" flood-opacity=".2"/><feComposite in2="blur-2" operator="in"/><feComposite in="SourceGraphic"/></filter><filter id="drop-shadow-3" filterUnits="userSpaceOnUse"><feOffset dx="0" dy="0"/><feGaussianBlur result="blur-3" stdDeviation="10"/><feFlood flood-color="#000" flood-opacity=".2"/><feComposite in2="blur-3" operator="in"/><feComposite in="SourceGraphic"/></filter><filter id="drop-shadow-4" filterUnits="userSpaceOnUse"><feOffset dx="0" dy="10"/><feGaussianBlur result="blur-4" stdDeviation="10"/><feFlood flood-color="#000" flood-opacity=".2"/><feComposite in2="blur-4" operator="in"/><feComposite in="SourceGraphic"/></filter><filter id="drop-shadow-5" filterUnits="userSpaceOnUse"><feOffset dx="0" dy="0"/><feGaussianBlur result="blur-5" stdDeviation="10"/><feFlood flood-color="#000" flood-opacity=".2"/><feComposite in2="blur-5" operator="in"/><feComposite in="SourceGraphic"/></filter><filter id="drop-shadow-6" filterUnits="userSpaceOnUse"><feOffset dx="0" dy="10"/><feGaussianBlur result="blur-6" stdDeviation="10"/><feFlood flood-color="#000" flood-opacity=".2"/><feComposite in2="blur-6" operator="in"/><feComposite in="SourceGraphic"/></filter><filter id="drop-shadow-7" filterUnits="userSpaceOnUse"><feOffset dx="0" dy="0"/><feGaussianBlur result="blur-7" stdDeviation="10"/><feFlood flood-color="#000" flood-opacity=".2"/><feComposite in2="blur-7" operator="in"/><feComposite in="SourceGraphic"/></filter></defs><rect class="cls-24" x="29.18" y="28.91" width="661.9" height="751.91" rx="32.89" ry="32.89"/><path class="cls-19" d="m672.96,32.42v743.8c10.74-5.41,18.11-16.53,18.11-29.38V61.8c0-12.85-7.37-23.97-18.11-29.38Z"/><path class="cls-23" d="m672.96,32.42c-4.44-2.24-9.45-3.51-14.77-3.51H62.04c-18.15,0-32.86,14.72-32.86,32.89v56.59h643.79V32.42Z"/><path class="cls-26" d="m91.74,55.19c.26.17.48.39.65.63.42.57.59,1.27.5,1.96,0,0,0,0,0,.01-.02.1-.04.19-.06.29,0,0,0,.02,0,.02-.1.51-.19,1.02-.26,1.54-.03.22-.06.45-.09.67,0,.04-.01.09-.02.13-.02.21-.05.41-.07.62,0,.06-.02.13-.02.19-.02.21-.04.43-.06.64,0,.04,0,.07,0,.11-.02.23-.03.45-.04.68-.01.23-.02.46-.03.7,0,.24-.01.49-.01.73,0,.31,0,.62,0,.93,0,.2.01.41.02.61,0,.17.01.34.02.51.01.23.03.46.05.69,0,.02,0,.03,0,.05.02.26.04.52.07.78,0,.05.01.09.02.14.02.19.04.39.07.59.02.14.03.27.06.41.03.24.07.47.11.71.05.29.1.58.15.86s.12.57.18.86c.05.24.11.47.17.7.03.14.06.27.1.4.05.19.1.38.15.57.01.05.02.09.04.14.07.25.14.5.22.75,0,.02,0,.04.02.05.07.22.14.44.21.66.05.16.11.33.17.48.06.19.14.38.21.57.11.29.22.58.34.86.09.23.19.45.28.67.09.22.19.43.29.64.09.21.19.41.29.61.01.04.03.07.05.1.09.19.19.38.29.57.03.06.06.12.09.17.09.18.19.37.29.55.02.04.04.08.07.12.11.2.22.39.33.59.26.45.53.89.82,1.33,0,0,.01.01.02.02.05.09.11.17.16.25,0,0,0,0,0,.01.34.6.44,1.32.27,2-.07.29-.2.56-.37.82s-.39.48-.63.65c-.57.42-1.27.59-1.96.5,0,0,0,0-.01,0-.1-.02-.19-.04-.29-.06,0,0-.02,0-.02,0-.51-.1-1.02-.19-1.54-.26-.11-.02-.22-.03-.33-.05-.17-.03-.34-.05-.51-.06-.19-.02-.39-.05-.58-.06-.06-.01-.12-.01-.18-.02,0,0,0,0-.01,0-.11-.01-.21-.02-.32-.03-.11-.01-.21-.02-.32-.03-.03,0-.06,0-.1,0-.12-.01-.24-.02-.36-.02-.11,0-.22-.01-.34-.02-.47-.03-.95-.04-1.43-.04-.1,0-.21,0-.31,0-.83,0-1.65.03-2.48.1-.26.02-.52.04-.78.07-.06,0-.12.01-.18.02-.17.01-.34.04-.52.06,0,0-.02,0-.03,0-.14.02-.27.03-.41.06-1.05.15-2.1.35-3.13.6-.14.03-.27.06-.4.1-.01,0-.02,0-.03,0-.17.04-.34.09-.5.14-.06.01-.12.03-.17.05-.25.07-.5.14-.75.22-.79.24-1.57.52-2.34.83-.1.04-.2.08-.29.12-.44.18-.88.37-1.31.57-.1.05-.2.09-.31.14-.11.05-.22.1-.32.16-.03.01-.06.03-.09.04-.1.05-.19.09-.29.14-.1.05-.19.1-.29.15,0,0-.01,0-.01,0-.06.03-.11.05-.16.08-.17.09-.35.18-.52.27-.15.08-.3.16-.44.25-.1.06-.2.11-.29.17-.45.26-.89.53-1.33.82,0,0-.01.01-.02.02-.09.05-.17.11-.25.16,0,0,0,0-.01,0-.6.34-1.32.44-2,.27-.29-.07-.56-.2-.82-.37s-.48-.39-.65-.63c-.42-.57-.59-1.27-.5-1.96,0,0,0,0,0-.01.02-.1.04-.19.06-.29,0,0,0-.02,0-.02,1.61-8.17-.04-16.7-4.57-23.68,0,0-.01-.01-.02-.02-.05-.09-.11-.17-.16-.25,0,0,0,0,0-.01-.34-.6-.44-1.32-.27-2,.07-.29.2-.56.37-.82.18-.26.39-.48.63-.65.57-.42,1.27-.59,1.96-.5,0,0,0,0,.01,0,.1.02.19.04.29.06,0,0,.02,0,.02,0,8.17,1.61,16.7-.04,23.68-4.57,0,0,.01-.01.02-.02.09-.05.17-.11.25-.16,0,0,0,0,.01,0,.6-.34,1.32-.44,2-.27.29.07.56.2.82.37h0s0,0,0,0Z"/><g class="cls-16"><path class="cls-1" d="m98.47,62.55c.15.27.25.56.3.85.12.69-.05,1.4-.45,1.97,0,0,0,0,0,.01-.06.08-.13.15-.19.23,0,0-.01.01-.02.02-.32.41-.63.83-.93,1.25-.13.18-.26.37-.38.55-.03.04-.05.07-.08.11-.12.17-.23.35-.34.52-.04.05-.07.1-.1.16-.11.18-.23.36-.34.54-.02.03-.04.06-.06.1-.12.19-.23.39-.35.58-.12.2-.23.4-.34.61-.12.21-.23.43-.34.65-.14.27-.28.55-.41.83-.09.18-.17.37-.26.55-.07.15-.14.31-.21.47-.09.21-.18.42-.27.64,0,.02-.01.03-.02.05-.1.24-.2.48-.29.73-.02.04-.03.09-.05.13-.07.18-.14.37-.2.55-.05.13-.09.26-.14.39-.08.22-.15.45-.23.68-.09.28-.17.56-.25.84-.08.28-.16.56-.23.84-.06.23-.12.47-.17.7-.03.13-.06.27-.09.4-.05.19-.08.39-.12.58-.01.05-.02.09-.03.14-.05.26-.1.51-.14.77,0,.02,0,.04,0,.05-.04.23-.08.46-.11.68-.03.17-.05.34-.07.51-.03.2-.05.4-.08.6-.03.31-.06.61-.09.92-.02.24-.04.49-.05.73-.02.23-.03.47-.03.7-.01.23-.01.45-.02.68,0,.04,0,.08,0,.11,0,.21,0,.43,0,.64,0,.07,0,.13,0,.19,0,.21,0,.41.01.62,0,.04,0,.09,0,.14,0,.22.02.45.03.67.03.52.07,1.04.13,1.55,0,0,0,.02,0,.03,0,.1.02.2.03.3,0,0,0,0,0,.01.03.69-.21,1.38-.67,1.91-.2.22-.43.41-.71.56s-.56.25-.85.3c-.69.12-1.4-.05-1.97-.45,0,0,0,0-.01,0-.08-.06-.15-.13-.23-.19,0,0-.01-.01-.02-.02-.41-.32-.83-.63-1.25-.93-.09-.07-.18-.13-.28-.19-.14-.1-.28-.2-.42-.29-.16-.11-.33-.22-.49-.32-.05-.03-.1-.06-.15-.1,0,0,0,0-.01,0-.09-.06-.18-.11-.27-.17-.09-.06-.18-.11-.27-.17-.03-.02-.05-.04-.08-.05-.1-.06-.2-.13-.31-.18-.1-.06-.19-.11-.29-.17-.41-.24-.83-.47-1.26-.68-.09-.05-.18-.09-.28-.14-.74-.37-1.49-.72-2.26-1.03-.24-.1-.48-.2-.73-.29-.05-.02-.11-.04-.17-.06-.16-.07-.32-.12-.49-.18,0,0-.02,0-.03,0-.13-.05-.26-.09-.39-.14-1-.34-2.03-.64-3.06-.88-.13-.03-.27-.06-.4-.09,0,0-.02,0-.03,0-.17-.04-.34-.08-.51-.11-.06-.02-.12-.03-.18-.04-.26-.05-.51-.1-.77-.14-.82-.14-1.64-.25-2.46-.32-.1,0-.21-.02-.31-.03-.47-.04-.95-.07-1.43-.09-.11,0-.22,0-.34-.01-.12,0-.24,0-.36,0-.03,0-.07,0-.1,0-.11,0-.21,0-.32,0-.11,0-.21,0-.32,0,0,0-.01,0-.01,0-.06,0-.12,0-.18,0-.19,0-.39,0-.58.01-.17,0-.34,0-.51.02-.11,0-.23,0-.34.02-.52.03-1.04.07-1.55.13,0,0-.02,0-.03,0-.1,0-.2.02-.3.03,0,0,0,0-.01,0-.69.03-1.38-.21-1.91-.67-.22-.2-.41-.43-.56-.71-.15-.27-.25-.56-.3-.85-.12-.69.05-1.4.45-1.97,0,0,0,0,0-.01.06-.08.13-.15.19-.23,0,0,.01-.01.02-.02,5.14-6.55,7.54-14.9,6.66-23.18,0,0,0-.02,0-.03,0-.1-.02-.2-.03-.3,0,0,0,0,0-.01-.03-.69.21-1.38.67-1.91.2-.22.43-.41.71-.56s.56-.25.85-.3c.69-.12,1.4.05,1.97.45,0,0,0,0,.01,0,.08.06.15.13.23.19,0,0,.01.01.02.02,6.55,5.14,14.9,7.54,23.18,6.66,0,0,.02,0,.03,0,.1,0,.2-.02.3-.03,0,0,0,0,.01,0,.69-.03,1.38.21,1.91.67.22.2.41.43.56.71h0s0,0,0,0Z"/></g><g class="cls-18"><path class="cls-25" d="m101.15,72.91c0,.31-.05.61-.15.89-.23.66-.72,1.2-1.34,1.51,0,0,0,0-.01,0-.09.04-.18.07-.28.12,0,0-.02,0-.02,0-.48.2-.95.42-1.42.64-.2.1-.4.2-.6.3-.04.02-.08.04-.12.06-.18.09-.37.19-.55.29-.06.03-.11.06-.17.09-.19.1-.38.21-.56.31-.03.02-.07.04-.1.06-.2.11-.39.23-.59.34-.2.12-.4.24-.59.37-.21.13-.41.27-.61.4-.26.17-.51.34-.76.52-.16.12-.33.24-.49.36-.14.1-.27.2-.41.31-.18.14-.37.28-.55.43-.02,0-.03.02-.04.03-.2.16-.4.33-.6.5-.04.03-.07.06-.11.09-.15.12-.3.25-.45.39-.1.09-.21.18-.31.28-.18.16-.35.32-.53.49-.21.2-.42.4-.63.61-.21.21-.41.42-.61.63-.17.18-.33.35-.49.53-.09.1-.19.21-.28.31-.13.15-.26.3-.39.45-.03.04-.06.07-.09.11-.17.2-.33.4-.5.6-.01.02-.02.03-.03.04-.15.18-.29.36-.43.55-.11.14-.21.27-.31.41-.12.16-.24.33-.36.49-.18.25-.35.5-.52.76-.14.2-.27.41-.4.61-.13.2-.25.39-.37.59-.12.19-.23.39-.34.59-.02.03-.04.07-.06.1-.1.18-.21.37-.31.56-.04.06-.07.11-.09.17-.1.18-.2.37-.29.55-.02.04-.04.08-.06.12-.1.2-.2.4-.3.6-.23.47-.44.94-.64,1.42,0,0,0,.02,0,.02-.04.09-.08.18-.12.28,0,0,0,0,0,.01-.31.62-.85,1.11-1.51,1.34-.28.1-.58.15-.89.15s-.61-.05-.89-.15c-.66-.23-1.2-.72-1.51-1.34,0,0,0,0,0-.01-.04-.09-.07-.18-.12-.28,0,0,0-.02,0-.02-.2-.48-.42-.95-.64-1.42-.05-.1-.1-.2-.15-.3-.07-.16-.15-.31-.23-.45-.09-.17-.18-.35-.27-.52-.02-.05-.05-.1-.09-.16,0,0,0,0,0-.01-.05-.09-.1-.19-.16-.28-.05-.09-.1-.19-.16-.28-.02-.03-.03-.06-.05-.08-.06-.1-.12-.21-.18-.31-.06-.1-.12-.19-.18-.29-.24-.41-.5-.81-.77-1.21-.06-.09-.12-.17-.18-.26-.46-.68-.95-1.35-1.47-1.99-.16-.2-.33-.4-.5-.6-.04-.04-.07-.09-.12-.14-.11-.13-.22-.27-.34-.39,0,0,0-.02-.02-.02-.09-.1-.18-.21-.28-.31-.71-.79-1.47-1.54-2.25-2.25-.1-.09-.21-.19-.31-.28,0,0-.02-.02-.02-.02-.13-.12-.26-.23-.39-.34-.04-.04-.09-.08-.14-.12-.2-.17-.4-.34-.6-.5-.64-.52-1.31-1.01-1.99-1.47-.09-.06-.17-.12-.26-.18-.39-.27-.8-.53-1.21-.77-.1-.06-.19-.12-.29-.18-.1-.06-.21-.12-.31-.18-.03-.02-.06-.04-.08-.05-.09-.05-.18-.11-.28-.16-.09-.05-.19-.1-.28-.16,0,0,0,0-.01,0-.05-.03-.1-.06-.16-.09-.17-.09-.34-.18-.52-.27-.15-.08-.3-.16-.45-.23-.1-.05-.2-.1-.3-.15-.47-.23-.94-.44-1.42-.64,0,0-.02,0-.02,0-.09-.04-.18-.08-.28-.12,0,0,0,0-.01,0-.62-.31-1.11-.85-1.34-1.51-.1-.28-.15-.58-.15-.89s.05-.61.15-.89c.23-.66.72-1.2,1.34-1.51,0,0,0,0,.01,0,.09-.04.18-.07.28-.12,0,0,.02,0,.02,0,7.67-3.24,13.81-9.39,17.05-17.05,0,0,0-.02,0-.02.04-.09.08-.18.12-.28,0,0,0,0,0-.01.31-.62.85-1.11,1.51-1.34.28-.1.58-.15.89-.15s.61.05.89.15c.66.23,1.2.72,1.51,1.34,0,0,0,0,0,.01.04.09.07.18.12.28,0,0,0,.02,0,.02,3.24,7.67,9.39,13.81,17.05,17.05,0,0,.02,0,.02,0,.09.04.18.08.28.12,0,0,0,0,.01,0,.62.31,1.11.85,1.34,1.51.1.28.15.58.15.89h0Z"/></g><path class="cls-2" d="m117.48,76.24c0-8.4,6.64-15.3,15.17-15.3,4.67,0,8.74,1.97,11.31,5.06l-4.97,4.16c-1.59-1.84-3.81-2.96-6.34-2.96-4.76,0-8.4,4.11-8.4,9.04s3.56,9.25,8.61,9.25c3.3,0,6.94-1.84,6.94-4.76h-8.31v-5.44h15.64c0,11.18-6.21,16.2-14.1,16.2-9.08,0-15.55-6.94-15.55-15.25Z"/><path class="cls-2" d="m150.98,90.98v-30.89h6.34v30.89h-6.34Z"/><path class="cls-2" d="m161.87,64.28c0-2.1,1.8-3.69,3.94-3.69s3.86,1.59,3.86,3.69-1.71,3.68-3.86,3.68-3.94-1.67-3.94-3.68Zm.77,26.69v-20.01h6.34v20.01h-6.34Z"/><path class="cls-2" d="m206.51,80.22v10.75h-6.34v-10.58c0-3.08-1.54-4.07-3.17-4.07-1.97,0-3.43,1.37-3.43,4.88v9.77h-6.34v-10.45c0-3.08-1.54-4.2-3.13-4.2-1.71,0-3.47.86-3.47,4.2v10.45h-6.34v-20.01h6.34v3.17c.77-2.53,3.51-3.68,5.4-3.68,2.96,0,5.14,1.41,6.34,3.81,1.37-2.66,4.46-3.81,6.56-3.81,5.01,0,7.58,3.64,7.58,9.77Z"/><path class="cls-2" d="m243.79,80.22v10.75h-6.34v-10.58c0-3.08-1.54-4.07-3.17-4.07-1.97,0-3.43,1.37-3.43,4.88v9.77h-6.34v-10.45c0-3.08-1.54-4.2-3.13-4.2-1.71,0-3.47.86-3.47,4.2v10.45h-6.34v-20.01h6.34v3.17c.77-2.53,3.51-3.68,5.4-3.68,2.96,0,5.14,1.41,6.34,3.81,1.37-2.66,4.46-3.81,6.56-3.81,5.01,0,7.58,3.64,7.58,9.77Z"/><path class="cls-2" d="m264.1,71.05l-1.5,6.04c-1.24-.73-2.23-.77-2.87-.77-2.48,0-4.54,2.1-4.54,8.01v6.64h-6.34v-20.01h6.26v4.24c1.16-3.3,3.56-4.76,6-4.76.94,0,1.97.09,3,.6Z"/><path class="cls-17" d="m56.59,28.91h606.48c15.45,0,28,12.55,28,28v61.48H28.59v-61.48c0-15.45,12.55-28,28-28Z"/><path class="cls-10" d="m283.22,62.67l-.9-2.09-2.17-.96,2.17-.94.9-1.98.9,1.98,2.17.94-2.17.96-.9,2.09Zm0,12.43l-.9-2.01-2.17-.94,2.17-.94.9-2.11.9,2.11,2.17.94-2.17.94-.9,2.01Zm-9.17-3.22l-1.92-4.12-4.2-1.88,4.2-1.88,1.92-4.09,1.94,4.09,4.18,1.88-4.18,1.88-1.94,4.12Z"/><path class="cls-2" d="m603.33,86.14l-1.92-1.92,10.57-10.57-10.57-10.57,1.92-1.92,10.57,10.57,10.57-10.57,1.92,1.92-10.57,10.57,10.57,10.57-1.92,1.92-10.57-10.57-10.57,10.57Z"/><path class="cls-2" d="m531.46,86.3l-1.42-1.42,7.85-7.85,7.85,7.85-1.42,1.42-6.43-6.43-6.43,6.43Zm6.43-17.5l-7.85-7.85,1.42-1.42,6.43,6.43,6.43-6.43,1.42,1.42-7.85,7.85Z"/><line class="cls-12" x1="29.18" y1="205.5" x2="672.96" y2="205.5"/><line class="cls-11" x1="342.89" y1="134.43" x2="342.89" y2="190.13"/><path class="cls-3" d="m99.19,171.04c-2.61,0-4.83-.92-6.66-2.75-1.83-1.83-2.75-4.05-2.75-6.66s.92-4.83,2.75-6.66c1.83-1.83,4.05-2.75,6.66-2.75,1.67,0,3.13.34,4.38,1.01s2.34,1.6,3.26,2.78v-3.79h1.76v7.47h-7.47v-1.76h4.94c-.74-1.18-1.7-2.13-2.85-2.85s-2.5-1.09-4.03-1.09c-2.14,0-3.95.74-5.43,2.22-1.48,1.48-2.22,3.29-2.22,5.43s.74,3.95,2.22,5.43c1.48,1.48,3.29,2.22,5.43,2.22,1.63,0,3.12-.47,4.47-1.4,1.35-.93,2.29-2.16,2.82-3.69h1.82c-.57,2.06-1.7,3.71-3.38,4.97-1.69,1.25-3.6,1.88-5.73,1.88Z"/><path class="cls-2" d="m137.33,162.81h-2.68v5.98h-3.37v-16.33h6.07c1.93,0,3.42.43,4.46,1.29,1.05.86,1.57,2.08,1.57,3.65,0,1.11-.24,2.04-.72,2.79-.48.74-1.21,1.34-2.19,1.78l3.53,6.68v.16h-3.61l-3.06-5.98Zm-2.68-2.73h2.71c.85,0,1.5-.21,1.96-.65.46-.43.7-1.02.7-1.78s-.22-1.38-.66-1.82-1.11-.66-2.01-.66h-2.7v4.9Z"/><path class="cls-2" d="m155.78,161.71h-6.46v4.38h7.58v2.7h-10.95v-16.33h10.93v2.73h-7.56v3.89h6.46v2.64Z"/><path class="cls-2" d="m168.7,162.11h-6.46v6.68h-3.37v-16.33h10.64v2.73h-7.27v4.22h6.46v2.72Z"/><path class="cls-2" d="m177.51,162.81h-2.68v5.98h-3.37v-16.33h6.07c1.93,0,3.42.43,4.46,1.29,1.05.86,1.57,2.08,1.57,3.65,0,1.11-.24,2.04-.72,2.79-.48.74-1.21,1.34-2.19,1.78l3.53,6.68v.16h-3.61l-3.06-5.98Zm-2.68-2.73h2.71c.85,0,1.5-.21,1.96-.65.46-.43.7-1.02.7-1.78s-.22-1.38-.66-1.82-1.11-.66-2.01-.66h-2.7v4.9Z"/><path class="cls-2" d="m195.95,161.71h-6.46v4.38h7.58v2.7h-10.95v-16.33h10.93v2.73h-7.56v3.89h6.46v2.64Z"/><path class="cls-2" d="m207.52,164.5c0-.64-.22-1.12-.67-1.46-.45-.34-1.26-.7-2.42-1.08-1.17-.38-2.09-.75-2.77-1.12-1.85-1-2.78-2.35-2.78-4.05,0-.88.25-1.67.75-2.36s1.21-1.23,2.14-1.62c.93-.39,1.98-.58,3.14-.58s2.21.21,3.12.63c.91.42,1.62,1.02,2.13,1.79.5.77.76,1.65.76,2.63h-3.37c0-.75-.24-1.33-.71-1.74s-1.13-.62-1.99-.62-1.46.17-1.92.52-.68.81-.68,1.37c0,.53.27.98.8,1.33s1.32.7,2.36,1.01c1.91.58,3.31,1.29,4.18,2.14.88.85,1.31,1.92,1.31,3.19,0,1.41-.54,2.52-1.6,3.33-1.07.8-2.51,1.21-4.32,1.21-1.26,0-2.4-.23-3.43-.69-1.03-.46-1.82-1.09-2.36-1.89s-.81-1.73-.81-2.78h3.38c0,1.8,1.08,2.7,3.23,2.7.8,0,1.42-.16,1.87-.49.45-.33.67-.78.67-1.36Z"/><path class="cls-2" d="m226.47,168.79h-3.37v-7h-6.56v7h-3.37v-16.33h3.37v6.62h6.56v-6.62h3.37v16.33Z"/><path class="cls-3" d="m465.95,148.97v-2.01h8.02v2.01h-8.02Zm3.01,14.94h2.01v-7.69h-2.01v7.69Zm1,11.1c-1.65,0-3.2-.32-4.66-.95s-2.74-1.5-3.83-2.59c-1.09-1.09-1.96-2.37-2.59-3.83s-.95-3.01-.95-4.66.32-3.2.95-4.66,1.5-2.74,2.59-3.83c1.09-1.09,2.37-1.96,3.83-2.59s3.01-.95,4.66-.95c1.49,0,2.89.25,4.2.74s2.47,1.18,3.49,2.07l1.7-1.7,1.44,1.44-1.7,1.7c.8.89,1.49,1.97,2.06,3.24s.85,2.79.85,4.55c0,1.65-.32,3.2-.95,4.66s-1.5,2.74-2.59,3.83-2.37,1.96-3.83,2.59-3.01.95-4.66.95Z"/><path class="cls-2" d="m509.49,164.5c0-.64-.22-1.12-.67-1.46-.45-.34-1.26-.7-2.42-1.08-1.17-.38-2.09-.75-2.77-1.12-1.85-1-2.78-2.35-2.78-4.05,0-.88.25-1.67.75-2.36.5-.69,1.21-1.23,2.14-1.62.93-.39,1.98-.58,3.14-.58s2.21.21,3.12.63c.91.42,1.62,1.02,2.13,1.79s.76,1.65.76,2.63h-3.37c0-.75-.24-1.33-.71-1.75-.47-.42-1.13-.62-1.99-.62s-1.46.17-1.92.52c-.46.35-.68.81-.68,1.37,0,.53.27.98.8,1.34.54.36,1.32.7,2.36,1.01,1.92.58,3.31,1.29,4.19,2.14.88.85,1.31,1.92,1.31,3.19,0,1.41-.54,2.52-1.6,3.33-1.07.8-2.51,1.21-4.32,1.21-1.26,0-2.4-.23-3.43-.69-1.03-.46-1.82-1.09-2.36-1.89-.54-.8-.81-1.73-.81-2.78h3.38c0,1.8,1.08,2.7,3.23,2.7.8,0,1.43-.16,1.87-.49.45-.33.67-.78.67-1.36Z"/><path class="cls-2" d="m527.97,163.35c-.13,1.76-.78,3.14-1.95,4.15-1.17,1.01-2.71,1.52-4.63,1.52-2.09,0-3.74-.71-4.94-2.12-1.2-1.41-1.8-3.35-1.8-5.81v-1c0-1.57.28-2.95.83-4.15s1.34-2.12,2.37-2.75c1.03-.64,2.22-.96,3.58-.96,1.88,0,3.4.5,4.56,1.51,1.15,1.01,1.82,2.43,2,4.25h-3.37c-.08-1.05-.38-1.82-.88-2.29s-1.27-.71-2.31-.71c-1.12,0-1.96.4-2.52,1.21s-.84,2.05-.86,3.74v1.23c0,1.77.27,3.06.8,3.87.53.82,1.38,1.22,2.53,1.22,1.04,0,1.82-.24,2.33-.71.51-.47.81-1.21.88-2.2h3.37Z"/><path class="cls-2" d="m543.47,168.79h-3.37v-7h-6.56v7h-3.37v-16.34h3.37v6.62h6.56v-6.62h3.37v16.34Z"/><path class="cls-2" d="m556.24,161.71h-6.46v4.38h7.58v2.7h-10.95v-16.34h10.93v2.73h-7.56v3.89h6.46v2.64Z"/><path class="cls-2" d="m559.34,168.79v-16.34h5.03c1.44,0,2.72.32,3.85.97,1.13.65,2.02,1.57,2.65,2.76.64,1.19.95,2.55.95,4.07v.75c0,1.52-.31,2.87-.94,4.05-.62,1.18-1.51,2.1-2.64,2.75-1.14.65-2.42.98-3.85.99h-5.06Zm3.37-13.61v10.91h1.63c1.32,0,2.32-.43,3.02-1.29.7-.86,1.05-2.09,1.07-3.69v-.86c0-1.66-.34-2.92-1.03-3.78-.69-.86-1.69-1.28-3.02-1.28h-1.66Z"/><path class="cls-2" d="m586.64,152.45v10.76c0,1.79-.56,3.2-1.68,4.24-1.12,1.04-2.65,1.56-4.58,1.56s-3.42-.5-4.54-1.52c-1.12-1.01-1.69-2.4-1.72-4.16v-10.88h3.37v10.78c0,1.07.26,1.85.77,2.34.51.49,1.22.73,2.13.73,1.89,0,2.85-.99,2.88-2.98v-10.87h3.38Z"/><path class="cls-2" d="m592.77,166.08h7.15v2.7h-10.51v-16.34h3.37v13.63Z"/><path class="cls-2" d="m611.67,161.71h-6.46v4.38h7.58v2.7h-10.95v-16.34h10.93v2.73h-7.56v3.89h6.46v2.64Z"/><g id="SLIDER_WRAPPER"><rect class="cls-15" x="59.22" y="251.41" width="583.33" height="90.09" rx="12.61" ry="12.61"/><path class="cls-27" d="m95.41,298.26v-3.61h17.78v3.61h-17.78Z"/><rect id="TRACK" class="cls-7" x="164.22" y="292.82" width="391.41" height="7.26" rx="3.63" ry="3.63"/><rect id="TRACK_BACK" class="cls-20" x="375.11" y="292.82" width="180.52" height="7.26" rx="3.63" ry="3.63"/><circle id="THUMB" class="cls-6" cx="367.78" cy="296.45" r="17.85"/><path class="cls-27" d="m596.72,306.21v-8.71h-8.71v-2.09h8.71v-8.71h2.09v8.71h8.71v2.09h-8.71v8.71h-2.09Z"/></g><rect class="cls-23" x="57.19" y="372.02" width="587.26" height="194.37" rx="21.48" ry="21.48"/><g id="SLIDER_WRAPPER-2"><rect class="cls-14" x="59.22" y="475.41" width="583.33" height="90.09" rx="12.61" ry="12.61"/><path class="cls-27" d="m95.41,522.26v-3.61h17.78v3.61h-17.78Z"/><rect id="TRACK-2" class="cls-7" x="164.22" y="516.82" width="391.41" height="7.26" rx="3.63" ry="3.63"/><rect id="TRACK_BACK-2" class="cls-20" x="492" y="516.82" width="63.63" height="7.26" rx="3.63" ry="3.63"/><circle id="THUMB-2" class="cls-9" cx="497.78" cy="520.45" r="17.85"/><path class="cls-27" d="m596.72,530.21v-8.71h-8.71v-2.09h8.71v-8.71h2.09v8.71h8.71v2.09h-8.71v8.71h-2.09Z"/></g><path class="cls-22" d="m97.89,434.75v-3.02l1.94-1.94h-6.9c-.66,0-1.24-.25-1.74-.74s-.74-1.07-.74-1.74v-19.84c0-.66.25-1.24.74-1.74s1.07-.74,1.74-.74h28.1c.66,0,1.24.25,1.74.74s.74,1.07.74,1.74v19.84c0,.66-.25,1.24-.74,1.74s-1.07.74-1.74.74h-6.94l1.98,1.94v3.02h-18.18Zm-4.96-7.44h28.1v-19.84h-28.1v19.84Zm0,0v-19.84,19.84Z"/><path class="cls-4" d="m175.46,407.57c0,1.98-.35,3.71-1.05,5.2-.7,1.49-1.7,2.64-3,3.45s-2.79,1.21-4.48,1.21-3.15-.4-4.46-1.2c-1.31-.8-2.32-1.94-3.04-3.43s-1.08-3.19-1.09-5.12v-.99c0-1.98.36-3.72,1.07-5.22.71-1.5,1.72-2.66,3.02-3.46,1.3-.8,2.79-1.21,4.46-1.21s3.16.4,4.46,1.21c1.3.81,2.31,1.96,3.02,3.46.71,1.5,1.07,3.24,1.07,5.21v.9Zm-4.19-.91c0-2.11-.38-3.71-1.13-4.8-.75-1.09-1.83-1.64-3.23-1.64s-2.46.54-3.21,1.62c-.75,1.08-1.14,2.66-1.15,4.75v.98c0,2.05.38,3.64,1.13,4.77.75,1.13,1.84,1.7,3.26,1.7s2.46-.54,3.2-1.63c.75-1.09,1.12-2.68,1.13-4.77v-.98Z"/><path class="cls-4" d="m178.47,417.16v-20.08h6.18c1.77,0,3.35.4,4.74,1.19,1.39.8,2.48,1.93,3.26,3.39.78,1.47,1.17,3.13,1.17,5v.92c0,1.87-.38,3.53-1.15,4.98-.77,1.45-1.85,2.58-3.25,3.38-1.4.8-2.98,1.2-4.73,1.21h-6.22Zm4.14-16.73v13.41h2c1.62,0,2.86-.53,3.71-1.59s1.29-2.57,1.31-4.54v-1.06c0-2.04-.42-3.59-1.27-4.64-.85-1.05-2.08-1.58-3.71-1.58h-2.04Z"/><path class="cls-4" d="m203.75,406.12l4.18-9.05h4.52l-6.59,12.8v7.28h-4.21v-7.28l-6.59-12.8h4.54l4.15,9.05Z"/><path class="cls-4" d="m224.48,411.89c0-.78-.28-1.38-.83-1.8-.55-.42-1.54-.86-2.98-1.32s-2.57-.92-3.41-1.37c-2.28-1.23-3.42-2.89-3.42-4.98,0-1.09.31-2.05.92-2.9.61-.85,1.49-1.52,2.63-1.99,1.15-.48,2.43-.72,3.86-.72s2.71.26,3.83.78,1.99,1.25,2.61,2.2.93,2.02.93,3.23h-4.14c0-.92-.29-1.63-.87-2.15-.58-.51-1.39-.77-2.44-.77s-1.8.21-2.36.64-.84.99-.84,1.69c0,.65.33,1.2.99,1.64.66.44,1.63.85,2.9,1.24,2.35.71,4.07,1.59,5.15,2.63,1.08,1.05,1.61,2.35,1.61,3.92,0,1.74-.66,3.1-1.97,4.09-1.32.99-3.09,1.48-5.31,1.48-1.54,0-2.95-.28-4.22-.85-1.27-.57-2.24-1.34-2.9-2.32-.67-.98-1-2.12-1-3.42h4.15c0,2.22,1.32,3.32,3.97,3.32.98,0,1.75-.2,2.3-.6.55-.4.83-.96.83-1.68Z"/><path class="cls-4" d="m241.85,411.89c0-.78-.28-1.38-.83-1.8-.55-.42-1.54-.86-2.98-1.32s-2.57-.92-3.41-1.37c-2.28-1.23-3.42-2.89-3.42-4.98,0-1.09.31-2.05.92-2.9.61-.85,1.49-1.52,2.63-1.99,1.15-.48,2.43-.72,3.86-.72s2.71.26,3.83.78,1.99,1.25,2.61,2.2.93,2.02.93,3.23h-4.14c0-.92-.29-1.63-.87-2.15-.58-.51-1.39-.77-2.44-.77s-1.8.21-2.36.64-.84.99-.84,1.69c0,.65.33,1.2.99,1.64.66.44,1.63.85,2.9,1.24,2.35.71,4.07,1.59,5.15,2.63,1.08,1.05,1.61,2.35,1.61,3.92,0,1.74-.66,3.1-1.97,4.09-1.32.99-3.09,1.48-5.31,1.48-1.54,0-2.95-.28-4.22-.85-1.27-.57-2.24-1.34-2.9-2.32-.67-.98-1-2.12-1-3.42h4.15c0,2.22,1.32,3.32,3.97,3.32.98,0,1.75-.2,2.3-.6.55-.4.83-.96.83-1.68Z"/><path class="cls-4" d="m260.89,408.45h-7.95v5.38h9.33v3.32h-13.46v-20.08h13.44v3.35h-9.3v4.79h7.95v3.24Z"/><path class="cls-4" d="m271.62,406.12l4.18-9.05h4.52l-6.59,12.8v7.28h-4.21v-7.28l-6.59-12.8h4.54l4.15,9.05Z"/><path class="cls-4" d="m305.08,414.62c-.75.89-1.8,1.58-3.16,2.08-1.36.49-2.87.74-4.52.74-1.74,0-3.26-.38-4.57-1.14s-2.32-1.86-3.03-3.3c-.71-1.44-1.08-3.14-1.1-5.09v-1.37c0-2,.34-3.74,1.01-5.21s1.65-2.59,2.92-3.37c1.27-.78,2.77-1.17,4.48-1.17,2.38,0,4.24.57,5.59,1.7,1.34,1.14,2.14,2.79,2.39,4.96h-4.03c-.18-1.15-.59-1.99-1.22-2.52s-1.5-.8-2.6-.8c-1.41,0-2.48.53-3.21,1.59-.74,1.06-1.11,2.63-1.12,4.72v1.28c0,2.11.4,3.7,1.2,4.77.8,1.08,1.97,1.61,3.52,1.61s2.66-.33,3.32-.99v-3.46h-3.77v-3.05h7.9v8.01Z"/><path class="cls-4" d="m326.84,409.6h2.28v3.21h-2.28v4.35h-3.99v-4.35h-8.24l-.18-2.51,8.37-13.23h4.03v12.53Zm-8.43,0h4.44v-7.09l-.26.46-4.18,6.63Z"/><path class="cls-4" d="m344.77,408.85c0,2.78-.57,4.9-1.72,6.37-1.15,1.47-2.83,2.21-5.05,2.21s-3.86-.72-5.02-2.17-1.75-3.51-1.78-6.21v-3.7c0-2.8.58-4.93,1.75-6.39,1.16-1.45,2.84-2.18,5.03-2.18s3.86.72,5.02,2.16c1.16,1.44,1.75,3.51,1.78,6.2v3.7Zm-3.99-4.06c0-1.67-.23-2.88-.68-3.64s-1.17-1.14-2.13-1.14-1.63.36-2.08,1.08c-.45.72-.68,1.85-.71,3.39v4.89c0,1.64.22,2.86.67,3.65.45.8,1.16,1.19,2.15,1.19s1.68-.38,2.11-1.15c.43-.76.66-1.93.68-3.51v-4.78Z"/><path class="cls-4" d="m354.92,417.16v-20.08h7.04c2.44,0,4.29.47,5.55,1.4,1.26.93,1.89,2.3,1.89,4.1,0,.98-.25,1.85-.76,2.6s-1.21,1.3-2.11,1.65c1.03.26,1.84.78,2.43,1.56.59.78.89,1.74.89,2.87,0,1.93-.62,3.39-1.85,4.39-1.23.99-2.99,1.5-5.27,1.52h-7.81Zm4.14-11.67h3.06c2.09-.04,3.13-.87,3.13-2.5,0-.91-.26-1.57-.79-1.97-.53-.4-1.36-.6-2.5-.6h-2.9v5.06Zm0,2.92v5.42h3.55c.97,0,1.74-.23,2.28-.7.55-.46.82-1.11.82-1.92,0-1.84-.95-2.77-2.86-2.8h-3.79Z"/><path class="cls-5" d="m167.15,440.43c0-.58-.21-1.03-.62-1.34-.41-.31-1.15-.64-2.22-.99-1.07-.35-1.91-.69-2.54-1.02-1.7-.92-2.55-2.15-2.55-3.71,0-.81.23-1.53.68-2.16.46-.63,1.11-1.13,1.96-1.48.85-.36,1.81-.53,2.87-.53s2.02.19,2.86.58c.84.39,1.48.93,1.95,1.64.46.71.69,1.51.69,2.4h-3.08c0-.68-.22-1.22-.65-1.6-.43-.38-1.04-.57-1.82-.57s-1.34.16-1.76.48-.63.74-.63,1.26c0,.49.24.89.73,1.22.49.33,1.21.64,2.16.92,1.75.53,3.03,1.18,3.83,1.96.8.78,1.2,1.75,1.2,2.92,0,1.29-.49,2.31-1.47,3.05-.98.74-2.3,1.1-3.96,1.1-1.15,0-2.2-.21-3.14-.63-.95-.42-1.67-1-2.16-1.73-.5-.73-.74-1.58-.74-2.55h3.09c0,1.65.99,2.48,2.96,2.48.73,0,1.3-.15,1.72-.45.41-.3.62-.71.62-1.25Z"/><path class="cls-5" d="m180.77,441.28h-5.4l-1.03,3.08h-3.28l5.57-14.96h2.86l5.6,14.96h-3.28l-1.04-3.08Zm-4.57-2.5h3.74l-1.88-5.6-1.86,5.6Z"/><path class="cls-5" d="m190.51,429.4l3.84,10.85,3.82-10.85h4.05v14.96h-3.09v-4.09l.31-7.06-4.04,11.15h-2.12l-4.03-11.14.31,7.05v4.09h-3.08v-14.96h4.03Z"/><path class="cls-5" d="m214.77,431.06l-5.78,13.3h-3.13l5.79-12.56h-7.44v-2.39h10.56v1.66Z"/><path class="cls-5" d="m226.92,444.36h-10.25v-2.03l4.84-5.16c.66-.73,1.16-1.36,1.47-1.9.32-.54.48-1.05.48-1.54,0-.67-.17-1.19-.5-1.57-.34-.38-.82-.57-1.44-.57-.67,0-1.2.23-1.59.69-.39.46-.58,1.07-.58,1.82h-2.98c0-.91.22-1.74.65-2.5.43-.75,1.05-1.34,1.84-1.77.79-.43,1.69-.64,2.7-.64,1.54,0,2.74.37,3.59,1.11.85.74,1.28,1.78,1.28,3.13,0,.74-.19,1.49-.58,2.26-.38.77-1.04,1.66-1.97,2.68l-3.4,3.59h6.43v2.39Z"/><path class="cls-5" d="m238.91,431.06l-5.78,13.3h-3.13l5.79-12.56h-7.44v-2.39h10.56v1.66Z"/><path class="cls-5" d="m249.57,441.28h-5.4l-1.03,3.08h-3.28l5.57-14.96h2.86l5.6,14.96h-3.28l-1.04-3.08Zm-4.57-2.5h3.74l-1.88-5.6-1.86,5.6Z"/><path class="cls-2" d="m498.39,420.92c-.25-.8-.67-1.48-1.27-2.03s-1.3-.96-2.1-1.2v-13.27c4.41.43,8.15,2.19,11.24,5.27s4.84,6.83,5.27,11.24h-13.13Zm-7.17,20.3c-4.72-.43-8.65-2.39-11.81-5.87-3.16-3.48-4.74-7.61-4.74-12.39s1.57-8.95,4.72-12.51,7.09-5.57,11.84-6.03v13.27c-1.08.43-1.95,1.13-2.61,2.08s-.99,2.02-.99,3.19c0,1.11.33,2.11.99,3.01s1.53,1.54,2.61,1.94v13.32Zm3.79,0v-13.32c.8-.25,1.5-.64,2.1-1.18s1.03-1.21,1.27-2.01h13.13c-.43,4.41-2.19,8.15-5.27,11.24-3.08,3.08-6.83,4.84-11.24,5.27Z"/><path class="cls-2" d="m579.23,441.2c-2.5,0-4.86-.48-7.06-1.43s-4.12-2.24-5.75-3.87-2.92-3.54-3.87-5.75-1.43-4.56-1.43-7.06.48-4.86,1.43-7.06,2.24-4.12,3.87-5.75,3.54-2.92,5.75-3.87,4.56-1.43,7.06-1.43c1.9,0,3.7.27,5.41.81s3.28,1.3,4.73,2.26l-2.76,2.76c-1.09-.63-2.25-1.13-3.48-1.49s-2.53-.54-3.89-.54c-3.95,0-7.32,1.4-10.11,4.19-2.79,2.79-4.19,6.16-4.19,10.11s1.4,7.32,4.19,10.11c2.79,2.79,6.16,4.19,10.11,4.19s7.32-1.4,10.11-4.19c2.79-2.79,4.19-6.16,4.19-10.11,0-.51-.02-1-.07-1.47-.05-.47-.11-.93-.2-1.38l3.08-3.08c.33.94.58,1.89.75,2.87s.25,2,.25,3.05c0,2.5-.48,4.86-1.43,7.06s-2.24,4.12-3.87,5.75-3.54,2.92-5.75,3.87-4.56,1.43-7.06,1.43Zm-2.49-9.82l-7.74-7.78,2.67-2.67,5.11,5.11,17.88-17.88,2.67,2.62-20.59,20.59Z"/><path class="cls-23" d="m622.96,594.02H78.67c-11.86,0-21.48,9.62-21.48,21.48v151.41c0,4.79,1.59,9.19,4.23,12.76l.1.05h578.63s.03,0,.05-.02c2.66-3.58,4.25-7.99,4.25-12.79v-151.41c0-11.86-9.62-21.48-21.48-21.48Z"/><g id="SLIDER_WRAPPER-3"><path class="cls-13" d="m642.37,779.72c.62-1.49.97-3.12.97-4.83v-64.87c0-6.96-5.66-12.61-12.65-12.61H70.87c-6.99,0-12.65,5.65-12.65,12.61v64.87c0,1.7.34,3.32.95,4.8"/><path class="cls-27" d="m94.58,744.26v-3.61h17.86v3.61h-17.86Z"/><rect id="TRACK-3" class="cls-7" x="163.74" y="738.82" width="393.32" height="7.26" rx="3.63" ry="3.63"/><rect id="TRACK_BACK-3" class="cls-20" x="266.96" y="738.82" width="290.1" height="7.26" rx="3.63" ry="3.63"/><ellipse id="THUMB-3" class="cls-8" cx="268.63" cy="742.45" rx="17.94" ry="17.85"/><path class="cls-27" d="m598.36,752.21v-8.71h-8.76v-2.09h8.76v-8.71h2.1v8.71h8.76v2.09h-8.76v8.71h-2.1Z"/></g><path class="cls-22" d="m97.89,656.75v-3.02l1.94-1.94h-6.9c-.66,0-1.24-.25-1.74-.74s-.74-1.07-.74-1.74v-19.84c0-.66.25-1.24.74-1.74s1.07-.74,1.74-.74h28.1c.66,0,1.24.25,1.74.74s.74,1.07.74,1.74v19.84c0,.66-.25,1.24-.74,1.74s-1.07.74-1.74.74h-6.94l1.98,1.94v3.02h-18.18Zm-4.96-7.44h28.1v-19.84h-28.1v19.84Zm0,0v-19.84,19.84Z"/><path class="cls-4" d="m165.25,631.1l-2.15,2.32v5.74h-4.14v-20.08h4.14v9.1l1.82-2.5,5.12-6.61h5.09l-7.13,8.93,7.34,11.16h-4.92l-5.16-8.06Z"/><path class="cls-4" d="m188.23,635.02h-7.26l-1.38,4.14h-4.4l7.48-20.08h3.83l7.52,20.08h-4.4l-1.39-4.14Zm-6.14-3.35h5.02l-2.52-7.52-2.5,7.52Z"/><path class="cls-4" d="m216.28,639.16h-13.77v-2.73l6.5-6.92c.89-.97,1.55-1.83,1.98-2.55s.64-1.42.64-2.07c0-.89-.23-1.59-.68-2.1-.45-.51-1.09-.77-1.93-.77-.9,0-1.61.31-2.13.93-.52.62-.78,1.44-.78,2.45h-4c0-1.22.29-2.34.88-3.35.58-1.01,1.41-1.8,2.48-2.38,1.07-.57,2.28-.86,3.63-.86,2.07,0,3.68.5,4.82,1.49,1.15.99,1.72,2.4,1.72,4.21,0,.99-.26,2-.77,3.03-.52,1.03-1.4,2.23-2.65,3.6l-4.57,4.81h8.64v3.21Z"/><path class="cls-4" d="m232.37,621.3l-7.77,17.86h-4.21l7.78-16.87h-9.99v-3.21h14.18v2.23Z"/><path class="cls-4" d="m248.69,639.16h-13.77v-2.73l6.5-6.92c.89-.97,1.55-1.83,1.98-2.55s.64-1.42.64-2.07c0-.89-.23-1.59-.68-2.1-.45-.51-1.09-.77-1.93-.77-.9,0-1.61.31-2.13.93-.52.62-.78,1.44-.78,2.45h-4c0-1.22.29-2.34.88-3.35.58-1.01,1.41-1.8,2.48-2.38,1.07-.57,2.28-.86,3.63-.86,2.07,0,3.68.5,4.82,1.49,1.15.99,1.72,2.4,1.72,4.21,0,.99-.26,2-.77,3.03-.52,1.03-1.4,2.23-2.65,3.6l-4.57,4.81h8.64v3.21Z"/><path class="cls-5" d="m167.84,663.28h-5.4l-1.03,3.08h-3.28l5.57-14.96h2.86l5.6,14.96h-3.28l-1.04-3.08Zm-4.57-2.5h3.74l-1.88-5.6-1.86,5.6Z"/><path class="cls-5" d="m185.29,661.38c-.12,1.61-.71,2.88-1.78,3.8-1.07.92-2.48,1.39-4.24,1.39-1.92,0-3.43-.65-4.53-1.94-1.1-1.29-1.65-3.06-1.65-5.32v-.91c0-1.44.25-2.71.76-3.8.51-1.1,1.23-1.94,2.17-2.52.94-.59,2.04-.88,3.28-.88,1.73,0,3.12.46,4.17,1.39,1.05.92,1.66,2.22,1.83,3.89h-3.08c-.08-.97-.34-1.67-.81-2.1-.46-.43-1.17-.65-2.11-.65-1.03,0-1.8.37-2.31,1.1s-.77,1.88-.79,3.43v1.13c0,1.62.24,2.8.73,3.54.49.75,1.26,1.12,2.32,1.12.95,0,1.66-.22,2.13-.65.47-.43.74-1.11.81-2.02h3.08Z"/><path class="cls-5" d="m192.85,660.88h-2.46v5.48h-3.08v-14.96h5.56c1.77,0,3.13.39,4.09,1.18.96.79,1.44,1.9,1.44,3.34,0,1.02-.22,1.87-.66,2.55-.44.68-1.11,1.22-2.01,1.63l3.24,6.11v.14h-3.31l-2.8-5.48Zm-2.46-2.5h2.49c.77,0,1.37-.2,1.8-.59.42-.39.64-.94.64-1.63s-.2-1.26-.6-1.66c-.4-.4-1.02-.61-1.84-.61h-2.48v4.49Z"/><path class="cls-5" d="m213.03,659.22c0,1.47-.26,2.76-.78,3.87-.52,1.11-1.27,1.97-2.23,2.57s-2.08.9-3.33.9-2.35-.3-3.32-.89c-.97-.6-1.73-1.45-2.26-2.55s-.81-2.38-.81-3.82v-.74c0-1.47.27-2.77.8-3.89.53-1.12,1.28-1.98,2.25-2.58s2.08-.9,3.32-.9,2.35.3,3.32.9,1.72,1.46,2.25,2.58c.53,1.12.8,2.41.8,3.88v.67Zm-3.12-.68c0-1.57-.28-2.76-.84-3.58-.56-.81-1.36-1.22-2.4-1.22s-1.83.4-2.39,1.21c-.56.81-.85,1.99-.85,3.54v.73c0,1.53.28,2.71.84,3.55.56.84,1.37,1.26,2.42,1.26s1.83-.41,2.38-1.22.84-2,.84-3.55v-.73Z"/><path class="cls-5" d="m225.12,653.06l-5.78,13.3h-3.13l5.79-12.56h-7.44v-2.39h10.56v1.66Z"/><path class="cls-5" d="m237.28,666.36h-10.25v-2.03l4.84-5.16c.66-.73,1.16-1.36,1.47-1.9.32-.54.48-1.05.48-1.54,0-.67-.17-1.19-.5-1.57-.34-.38-.82-.57-1.44-.57-.67,0-1.2.23-1.59.69-.39.46-.58,1.07-.58,1.82h-2.98c0-.91.22-1.74.65-2.5.43-.75,1.05-1.34,1.84-1.77.79-.43,1.69-.64,2.7-.64,1.54,0,2.74.37,3.59,1.11.85.74,1.28,1.78,1.28,3.13,0,.74-.19,1.49-.58,2.26-.38.77-1.04,1.66-1.97,2.68l-3.4,3.59h6.43v2.39Z"/><path class="cls-5" d="m247.86,663.28h-5.4l-1.03,3.08h-3.28l5.57-14.96h2.86l5.6,14.96h-3.28l-1.04-3.08Zm-4.57-2.5h3.74l-1.88-5.6-1.86,5.6Z"/><path class="cls-2" d="m491.96,662.57c-4.63-.35-8.5-2.2-11.62-5.54s-4.68-7.31-4.68-11.91,1.56-8.6,4.68-11.93,6.99-5.16,11.62-5.51v4.48c-3.37.32-6.2,1.72-8.48,4.2s-3.43,5.41-3.43,8.81,1.14,6.33,3.43,8.79,5.11,3.84,8.48,4.13v4.48Zm2.64,0v-4.48c3.1-.23,5.75-1.46,7.93-3.67,2.18-2.21,3.45-4.87,3.8-7.97h4.39c-.32,4.36-2,8.07-5.03,11.12-3.03,3.05-6.73,4.72-11.09,5.01Zm11.73-18.76c-.32-3.1-1.58-5.76-3.78-7.97s-4.85-3.45-7.95-3.71v-4.48c4.34.32,8.03,2.01,11.07,5.05s4.73,6.75,5.05,11.12h-4.39Z"/><path class="cls-2" d="m579.23,663.2c-2.5,0-4.86-.48-7.06-1.43s-4.12-2.24-5.75-3.87-2.92-3.54-3.87-5.75-1.43-4.56-1.43-7.06.48-4.86,1.43-7.06,2.24-4.12,3.87-5.75,3.54-2.92,5.75-3.87,4.56-1.43,7.06-1.43c1.9,0,3.7.27,5.41.81s3.28,1.3,4.73,2.26l-2.76,2.76c-1.09-.63-2.25-1.13-3.48-1.49s-2.53-.54-3.89-.54c-3.95,0-7.32,1.4-10.11,4.19-2.79,2.79-4.19,6.16-4.19,10.11s1.4,7.32,4.19,10.11c2.79,2.79,6.16,4.19,10.11,4.19s7.32-1.4,10.11-4.19c2.79-2.79,4.19-6.16,4.19-10.11,0-.51-.02-1-.07-1.47-.05-.47-.11-.93-.2-1.38l3.08-3.08c.33.94.58,1.89.75,2.87s.25,2,.25,3.05c0,2.5-.48,4.86-1.43,7.06s-2.24,4.12-3.87,5.75-3.54,2.92-5.75,3.87-4.56,1.43-7.06,1.43Zm-2.49-9.82l-7.74-7.78,2.67-2.67,5.11,5.11,17.88-17.88,2.67,2.62-20.59,20.59Z"/><path class="cls-21" d="m672.96,777.71c9.95-4.95,17.04-14.79,18.11-26.38v-179.2h-18.11v205.58Z"/></svg>